<?xml version="1.0" encoding="UTF-8"?>
<svg width="599px" height="603px" viewBox="0 0 599 603" version="1.1" xmlns="http://www.w3.org/2000/svg" xmlns:xlink="http://www.w3.org/1999/xlink">
    <!-- Generator: Sketch 52.5 (67469) - http://www.bohemiancoding.com/sketch -->
    <title>Artboard</title>
    <desc>Created with Sketch.</desc>
    <defs>
        <rect id="path-1" x="5.45696821e-12" y="-2.84217094e-13" width="251" height="516" rx="36.4499981"></rect>
        <filter x="-28.7%" y="-7.8%" width="149.4%" height="124.0%" filterUnits="objectBoundingBox" id="filter-2">
            <feOffset dx="-10" dy="22" in="SourceAlpha" result="shadowOffsetOuter1"></feOffset>
            <feGaussianBlur stdDeviation="17" in="shadowOffsetOuter1" result="shadowBlurOuter1"></feGaussianBlur>
            <feColorMatrix values="0 0 0 0 0   0 0 0 0 0   0 0 0 0 0  0 0 0 0.1 0" type="matrix" in="shadowBlurOuter1"></feColorMatrix>
        </filter>
        <rect id="path-3" x="0.464210662" y="0.510457184" width="251" height="417"></rect>
    </defs>
    <g id="Artboard" stroke="none" stroke-width="1" fill="none" fill-rule="evenodd">
        <g id="Background" opacity="0.2" transform="translate(35.000000, 7.000000)">
            <circle id="Oval" fill="#FF9B21" cx="330" cy="230" r="230"></circle>
            <circle id="Oval" fill="#2B44FF" cx="273" cy="454" r="41"></circle>
            <polygon id="Polygon" fill="#2B44FF" points="346 230 395 279 346 328 297 279"></polygon>
            <polygon id="Polygon" fill="#2026A2" points="371 22 383 34 371 46 359 34"></polygon>
        </g>
        <g id="Group-4" transform="translate(-1.000000, 25.000000)">
            <g id="Group" transform="translate(140.423964, 262.459001) rotate(-2.000000) translate(-140.423964, -262.459001) translate(8.923964, 4.459001)">
                <g id="base">
                    <use fill="black" fill-opacity="1" filter="url(#filter-2)" xlink:href="#path-1"></use>
                    <use fill="#F2F2F2" fill-rule="evenodd" xlink:href="#path-1"></use>
                </g>
                <path d="M64,11 L64,15.0510368 C64,22.6559974 70.1650387,28.8210361 77.7699993,28.8210361 L173.193622,28.8210361 C180.798583,28.8210361 186.963622,22.6559974 186.963622,15.0510368 L186.963622,11 L214.974051,11 C228.39457,11 239.27405,21.87948 239.27405,35.2999987 L239.27405,480.018683 C239.27405,493.439201 228.39457,504.318681 214.974051,504.318681 L35.2999987,504.318681 C21.87948,504.318681 11,493.439201 11,480.018683 L11,35.2999987 C11,21.87948 21.87948,11 35.2999987,11 L64,11 Z" id="Screen" fill="#1F28CF"></path>
                <g id="Illustration" transform="translate(11.000000, 67.000000)">
                    <mask id="mask-4" fill="white">
                        <use xlink:href="#path-3"></use>
                    </mask>
                    <g id="Mask"></g>
                    <g id="Group-2" mask="url(#mask-4)">
                        <g transform="translate(75.980691, 243.252377) rotate(14.000000) translate(-75.980691, -243.252377) translate(-141.019309, -63.247623)">
                            <g id="Head/Front/Pony" transform="translate(296.914911, 111.560723) rotate(32.000000) translate(-296.914911, -111.560723) translate(205.395532, 38.067579)">
                                <g id="Head" stroke-width="1" transform="translate(72.661765, 43.817308)" fill="#B28B67">
                                    <path d="M11.1176185,48.7504676 C4.91726968,41.1054063 0.720743877,31.7362782 1.4219858,21.2379012 C3.44245905,-9.01084639 43.5278023,-2.35650733 51.3252314,12.9104629 C59.1226606,28.1774331 58.1961233,66.9033691 48.1186408,69.6320025 C44.0997547,70.7201778 35.5383325,68.0545842 26.824802,62.5376248 L32.2941176,103.182692 L0,103.182692 L11.1176185,48.7504676 Z"></path>
                                </g>
                                <path d="M94.9564417,90.440801 C90.9518391,98.5154111 85.4132434,104.596154 79.8799552,104.596154 C69.3699482,104.596154 61.8970588,89.83577 61.8970588,73.9658327 C61.8970588,73.408246 61.9075764,72.8543687 61.9283284,72.3046283 C50.8106155,80.3186878 42.2423309,96.1153846 27.5317384,96.1153846 C7.51810983,96.1153846 -0.430136454,53.7115385 27.5317384,53.7115385 C46.5479379,53.7115385 55.9018929,56.6239492 63.9631747,60.9307182 C65.5531217,56.2223209 67.977529,52.2637138 70.9420974,49.4992835 C71.6552877,48.6559458 72.7486882,47.8490691 74.1592966,47.1010533 C75.0216871,46.6054214 75.9141084,46.2017488 76.8313053,45.897971 C81.6929558,44.0212519 88.7347547,42.6975487 96.6005908,42.4090124 C98.0693935,42.3551335 99.5119299,42.3393671 100.919183,42.3592285 C100.942086,34.5734147 106.957685,28.2692308 114.375,28.2692308 C121.806479,28.2692308 127.830882,34.5975136 127.830882,42.4038462 C127.830882,49.9532735 122.196478,56.1203352 115.10397,56.5180727 C111.046698,57.8331258 105.83383,58.7986639 100.052812,59.2058264 C100.61409,61.4230373 100.919118,63.9418724 100.919118,66.7882658 C100.919118,69.3016022 100.655032,71.9671325 100.168761,74.6736126 C98.9149271,73.1081201 97.2383999,72.0865385 95.5367647,72.0865385 C90.7766573,72.0865385 87.4632353,76.1999223 87.4632353,80.5673077 C87.4632353,86.1102034 90.5094971,90.120083 94.9564417,90.440801 Z" id="hair" fill="#191847"></path>
                            </g>
                            <g id="Bottom/Standing/Skirt" transform="translate(0.430002, 273.747879)">
                                <path d="M131.175871,138.718699 C163.481527,148.207943 191.35387,152.952565 214.7929,152.952565 C238.231931,152.952565 260.003186,145.645931 280.106667,131.032663 C248.492644,121.292818 222.457089,116.422895 202,116.422895 C181.542911,116.422895 157.934868,123.85483 131.175871,138.718699 Z" id="Skirt-Shadow" fill="#1F28CF"></path>
                                <path d="M242.759338,166.63022 C242.447835,166.138434 242.184769,165.60347 241.976111,165.023977 C237.657897,153.031251 168.490738,23.6536835 161.6,0 L239.472464,0 C244.71159,17.9842296 268.292384,130.843844 271.610978,153.361001 C282.081753,188.879377 303.640031,303.91043 306.392123,311.879429 C309.287276,320.262682 292.997208,328.995863 288.656288,318.689694 C281.749152,302.290838 265.291513,256.915499 257.963609,229.209634 C251.093714,203.235445 245.499785,179.867621 242.759338,166.63022 Z" id="Leg" fill="#997659"></path>
                                <path d="M179.048843,182.426089 C147.426755,190.819348 31.7598253,205.992875 23.822254,208.372805 C15.6569696,210.821009 8.49757752,193.146181 18.5903101,189.317514 C34.6495517,183.225457 78.9000311,169.149501 105.729257,163.405381 C127.309061,158.785159 147.000898,155.015063 160.221478,152.807337 C159.101461,113.807627 153.981578,20.2143029 157.337379,1.42108547e-14 L226.24,1.42108547e-14 C223.022012,19.3841573 195.818951,160.822541 190.762874,174.980123 C189.158323,180.034475 184.370677,182.268126 179.048843,182.426089 Z" id="Leg" fill="#B28B67"></path>
                                <g id="Accessories/Shoe/Flat-Sneaker" transform="translate(32.993333, 222.033473) rotate(80.000000) translate(-32.993333, -222.033473) translate(-8.080000, 193.748954)" fill="#E4E4E4">
                                    <path d="M3.87788883,35.4230127 C2.18880447,40.0689355 1.3442623,43.5114583 1.3442623,45.7505809 C1.3442623,48.3202638 1.74809778,52.0700701 2.55576876,57 C5.36788288,57 30.6408261,57 78.3745983,57 C80.3448609,50.0951728 79.207511,46.3674788 74.9625487,45.816918 C70.7175865,45.2663572 67.1912242,44.7692448 64.3834619,44.3255809 L28.850815,27.533546 C28.3514814,27.2975707 27.7553957,27.5110648 27.5194204,28.0103985 C27.5093666,28.0316727 27.5000668,28.0532951 27.4915384,28.0752254 L25.0882537,34.2551404 C21.1585288,36.1987793 17.9652194,37.1705988 15.5083255,37.1705988 C13.4027497,37.1705988 10.4509618,36.2197427 6.6529617,34.3180307 L6.65295834,34.3180374 C5.66528732,33.8234966 4.46371725,34.2232577 3.96917648,35.2109287 C3.93468845,35.2798064 3.90420845,35.350619 3.87788883,35.4230127 Z" id="shoe"></path>
                                </g>
                                <g id="Accessories/Shoe/Flat-Sneaker" transform="translate(280.106667, 281.430962)" fill="#E4E4E4">
                                    <path d="M3.87788883,35.4230127 C2.18880447,40.0689355 1.3442623,43.5114583 1.3442623,45.7505809 C1.3442623,48.3202638 1.74809778,52.0700701 2.55576876,57 C5.36788288,57 30.6408261,57 78.3745983,57 C80.3448609,50.0951728 79.207511,46.3674788 74.9625487,45.816918 C70.7175865,45.2663572 67.1912242,44.7692448 64.3834619,44.3255809 L28.850815,27.533546 C28.3514814,27.2975707 27.7553957,27.5110648 27.5194204,28.0103985 C27.5093666,28.0316727 27.5000668,28.0532951 27.4915384,28.0752254 L25.0882537,34.2551404 C21.1585288,36.1987793 17.9652194,37.1705988 15.5083255,37.1705988 C13.4027497,37.1705988 10.4509618,36.2197427 6.6529617,34.3180307 L6.65295834,34.3180374 C5.66528732,33.8234966 4.46371725,34.2232577 3.96917648,35.2109287 C3.93468845,35.2798064 3.90420845,35.350619 3.87788883,35.4230127 Z" id="shoe"></path>
                                </g>
                                <path d="M157.56,7.10542736e-15 C187.923077,-9.12280253 216.651966,-9.12280253 243.746667,7.10542736e-15 C253.173333,45.166796 276.078706,63.0935324 280.106667,132.341744 C234.32,156.233392 177.76,115.302487 130.626667,138.601653 C117.16,106.011943 136.013333,27.5272265 157.56,7.10542736e-15 Z" id="Skirt" fill="#2B44FF"></path>
                            </g>
                            <g id="Body/Jacket" transform="translate(225.583631, 276.213630) rotate(21.000000) translate(-225.583631, -276.213630) translate(53.311859, 144.067305)">
                                <path d="M261.505161,125.820016 L299.681439,164.834166 C310.789328,169.797664 319.890661,175.278368 326.985438,181.276278 C328.580947,183.292379 330.317918,187.155334 322.811128,185.426717 C315.304337,183.6981 307.334107,182.233523 305.92322,184.790918 C304.512332,187.348313 308.669628,191.267152 306.062132,194.614124 C304.323802,196.845439 298.477662,189.748063 288.52371,173.321996 L248.82543,148.803482 L261.505161,125.820016 Z M92.0556062,131.3222 L120.218107,131.438218 C102.829062,190.243396 93.4415619,221.445055 92.0556062,225.043196 C88.9372057,233.139011 95.5361604,245.468798 98.3581353,252.094733 C89.167057,256.403111 90.1463762,240.447429 78.5520782,246.098107 C67.9693407,251.255783 59.9190786,260.601148 47.6922545,252.697936 C46.1890383,251.726283 44.5417583,248.067832 48.5217951,245.208946 C58.4375182,238.086419 72.7266759,225.620714 74.6573661,221.517531 C77.2902072,215.922107 83.0896206,185.856997 92.0556062,131.3222 Z" id="Skin" fill="#B28B67"></path>
                                <path d="M164.069929,12.791617 L175.49644,9.69004406 C200.059395,60.2454756 239.112388,104.717431 292.655417,143.105911 L259.211981,194.295063 C204.089607,137.787631 167.900496,77.6780024 164.069929,12.791617 Z" id="Coat-Back" fill="#191847" transform="translate(228.362673, 101.992553) rotate(5.000000) translate(-228.362673, -101.992553) "></path>
                                <path d="M121.289062,160.941176 L225.058594,160.941176 C201.017578,99.7060896 188.99707,47.6876098 188.99707,4.88573689 L157.694929,0 C133.094387,41.4471626 126.147129,92.4770117 121.289062,160.941176 Z" id="Shirt" fill="#DDE3E9"></path>
                                <path d="M157.032187,0.0231809886 C157.036297,0.0154526489 157.040407,0.00772565262 157.044516,-6.9218848e-15 L159.087791,-4.26351396e-14 C161.532747,0.088197368 165.256728,0.247102438 170.259735,0.476715211 L177.823455,23.1203013 C178.623529,50.7281264 183.295839,106.365343 191.840386,190.031952 L123.817376,190.031952 C123.995697,195.81046 124.289721,201.642946 124.699448,207.529412 L74.1210938,207.529412 C81.6867233,118.113831 109.315457,48.9373599 157.007293,1.42108547e-14 L157.032187,0.0231809796 Z" id="Coat-Front" fill="#2F3676"></path>
                                <path d="M128.310662,116.09379 C130.246588,152.114671 135.093555,176.946153 142.851562,190.588235 L123.834894,190.588235 C123.002351,164.672265 124.494274,139.840812 128.31066,116.0938 Z" id="Shade" fill-opacity="0.1" fill="#000000"></path>
                                <polygon id="Light" fill-opacity="0.2" fill="#FFFFFF" points="138.958047 146.823529 172.5 130.488384 172.5 146.823529"></polygon>
                            </g>
                        </g>
                    </g>
                </g>
            </g>
        </g>
        <g id="Image" transform="translate(308.000000, 156.000000)">
            <g id="Web">
                <rect id="Container" fill="#F2F2F2" x="0" y="0" width="396" height="346" rx="8"></rect>
                <path d="M8,0 L388,0 C392.418278,-8.11624501e-16 396,3.581722 396,8 L396,27 L0,27 L0,8 C-5.41083001e-16,3.581722 3.581722,8.11624501e-16 8,0 Z" id="Header" fill="#C5CFD6"></path>
                <g id="Buttons" transform="translate(9.000000, 10.000000)" fill="#F2F2F2">
                    <circle id="buttons" cx="4" cy="4" r="4"></circle>
                    <circle id="buttons" cx="16" cy="4" r="4"></circle>
                    <circle id="buttons" cx="28" cy="4" r="4"></circle>
                </g>
                <g id="Content" transform="translate(16.000000, 43.000000)">
                    <g id="Rows">
                        <g id="Row">
                            <rect id="Container" fill="#FFFFFF" x="0" y="0" width="286" height="47" rx="4"></rect>
                            <g id="Text-Stuff" transform="translate(9.000000, 14.100000)" fill="#DDE3E9">
                                <rect id="Label" x="0" y="0" width="228" height="7.05" rx="3"></rect>
                                <rect id="Label" x="0" y="11.75" width="153.041096" height="7.05" rx="3"></rect>
                            </g>
                            <g id="Check" transform="translate(248.435115, 16.500000)">
                                <circle id="Background" fill="#DDE3E9" cx="7" cy="7" r="7"></circle>
                                <circle id="Indicator" fill="#F2F2F2" cx="7" cy="7" r="3"></circle>
                            </g>
                        </g>
                        <g id="Row" transform="translate(0.000000, 55.000000)">
                            <rect id="Container" fill="#FFFFFF" x="0" y="0" width="286" height="39" rx="4"></rect>
                            <g id="Text-Stuff" transform="translate(9.000000, 11.700000)" fill="#DDE3E9">
                                <rect id="Label" x="0" y="0" width="228" height="5.85" rx="2.925"></rect>
                                <rect id="Label" x="0" y="9.75" width="153.041096" height="5.85" rx="2.925"></rect>
                            </g>
                            <g id="Check" transform="translate(248.435115, 12.500000)">
                                <circle id="Background" fill="#DDE3E9" cx="7" cy="7" r="7"></circle>
                                <circle id="Indicator" fill="#F2F2F2" cx="7" cy="7" r="3"></circle>
                            </g>
                        </g>
                        <g id="Row" transform="translate(0.000000, 102.000000)">
                            <rect id="Container" fill="#FFFFFF" x="0" y="0" width="286" height="39" rx="4"></rect>
                            <g id="Text-Stuff" transform="translate(9.000000, 11.700000)" fill="#DDE3E9">
                                <rect id="Label" x="0" y="0" width="228" height="5.85" rx="2.925"></rect>
                                <rect id="Label" x="0" y="9.75" width="153.041096" height="5.85" rx="2.925"></rect>
                            </g>
                            <g id="Check" transform="translate(248.435115, 12.500000)">
                                <circle id="Background" fill="#DDE3E9" cx="7" cy="7" r="7"></circle>
                                <circle id="Indicator" fill="#AFB9C5" cx="7" cy="7" r="3"></circle>
                            </g>
                        </g>
                        <g id="Row" transform="translate(0.000000, 243.000000)">
                            <rect id="Container" fill="#FFFFFF" x="0" y="0" width="286" height="39" rx="4"></rect>
                            <g id="Text-Stuff" transform="translate(9.000000, 11.700000)" fill="#DDE3E9">
                                <rect id="Label" x="0" y="0" width="228" height="5.85" rx="2.925"></rect>
                                <rect id="Label" x="0" y="9.75" width="153.041096" height="5.85" rx="2.925"></rect>
                            </g>
                            <g id="Check" transform="translate(248.435115, 12.500000)">
                                <circle id="Background" fill="#DDE3E9" cx="7" cy="7" r="7"></circle>
                                <circle id="Indicator" fill="#F2F2F2" cx="7" cy="7" r="3"></circle>
                            </g>
                        </g>
                        <g id="Row" transform="translate(0.000000, 196.000000)">
                            <rect id="Container" fill="#FFFFFF" x="0" y="0" width="286" height="39" rx="4"></rect>
                            <g id="Text-Stuff" transform="translate(9.000000, 11.700000)" fill="#DDE3E9">
                                <rect id="Label" x="0" y="0" width="228" height="5.85" rx="2.925"></rect>
                                <rect id="Label" x="0" y="9.75" width="153.041096" height="5.85" rx="2.925"></rect>
                            </g>
                            <g id="Check" transform="translate(248.435115, 12.500000)">
                                <circle id="Background" fill="#DDE3E9" cx="7" cy="7" r="7"></circle>
                                <circle id="Indicator" fill="#F2F2F2" cx="7" cy="7" r="3"></circle>
                            </g>
                        </g>
                        <g id="Row" transform="translate(0.000000, 149.000000)">
                            <rect id="Container" fill="#FFFFFF" x="0" y="0" width="286" height="39" rx="4"></rect>
                            <g id="Text-Stuff" transform="translate(9.000000, 11.700000)" fill="#DDE3E9">
                                <rect id="Label" x="0" y="0" width="228" height="5.85" rx="2.925"></rect>
                                <rect id="Label" x="0" y="9.75" width="153.041096" height="5.85" rx="2.925"></rect>
                            </g>
                            <g id="Check" transform="translate(248.435115, 12.500000)">
                                <circle id="Background" fill="#DDE3E9" cx="7" cy="7" r="7"></circle>
                                <circle id="Indicator" fill="#F2F2F2" cx="7" cy="7" r="3"></circle>
                            </g>
                        </g>
                    </g>
                </g>
            </g>
            <g transform="translate(155.225279, 246.207110) rotate(-14.000000) translate(-155.225279, -246.207110) translate(104.725279, 212.207110)">
                <path d="M50.8280383,54.6067275 C50.8260383,54.6117275 50.8240383,54.6167275 50.8210383,54.6227275 C50.8240383,54.6177275 50.8280383,54.5977275 50.8280383,54.6067275" id="Fill-35" fill="#C5CFD6"></path>
                <path d="M50.8233815,54.6143262 C50.8233815,54.6153262 50.8223815,54.6173262 50.8223815,54.6193262 C50.8223815,54.6143262 50.8313815,54.5993262 50.8233815,54.6143262" id="Fill-37" fill="#C5CFD6"></path>
                <path d="M50.8581098,54.5297294 C50.8511098,54.5497294 50.8421098,54.5687294 50.8341098,54.5887294 C50.8381098,54.5787294 50.8421098,54.5707294 50.8461098,54.5607294 C50.7421098,54.8207294 50.8081098,54.6517294 50.8581098,54.5297294" id="Fill-39" fill="#C5CFD6"></path>
                <path d="M50.8357258,54.5899536 C50.8317258,54.5989536 50.8277258,54.6089536 50.8237258,54.6179536 C50.7947258,54.6739536 50.8357258,54.5899536 50.8357258,54.5899536" id="Fill-41" fill="#C5CFD6"></path>
                <polygon id="Fill-43" fill="#C5CFD6" points="50.8245383 54.6140786 50.8245383 54.6140786 50.8245383 54.6130786"></polygon>
                <path d="M50.8240383,54.6145786 C50.8240383,54.6135786 50.8240383,54.6135786 50.8250383,54.6125786 C50.8240383,54.6135786 50.8240383,54.6135786 50.8240383,54.6145786" id="Fill-45" fill="#C5CFD6"></path>
                <path d="M50.8192941,54.621754 C50.8132941,54.633754 50.8472941,54.575754 50.8192941,54.621754" id="Fill-47" fill="#C5CFD6"></path>
                <path d="M50.8235383,54.6145786 L50.8255383,54.6125786 C50.8245383,54.6135786 50.8245383,54.6145786 50.8235383,54.6145786" id="Fill-49" fill="#C5CFD6"></path>
                <rect id="Photo-Background" fill="#2B44FF" x="0.574535623" y="0.818446954" width="100" height="66" rx="4"></rect>
                <g id="icons8-night_landscape" transform="translate(9.057629, 20.092572)" fill="#000000" fill-opacity="0.2">
                    <polygon id="Mountains" points="29.3115079 0 0.47121868 47 58.1517972 47"></polygon>
                    <polygon id="Mountains" points="59.0474583 12.5892857 33.5509707 47 84.543946 47"></polygon>
                </g>
                <circle id="Sun" fill="#FFFFFF" cx="79.0165764" cy="23.6424793" r="9.5"></circle>
            </g>
        </g>
        <g id="Group" transform="translate(432.500000, 377.500000) scale(-1, 1) translate(-432.500000, -377.500000) translate(279.000000, 156.000000)">
            <g id="Head/Front/Curly" transform="translate(110.762628, 77.514119) rotate(-27.000000) translate(-110.762628, -77.514119) translate(42.762628, 25.514119)">
                <g id="Head" stroke-width="1" transform="translate(54.000000, 31.000000)" fill="#B28B67">
                    <path d="M8.26227388,34.4901268 C3.65436435,29.0813759 0.535634794,22.4528771 1.05677633,15.0254539 C2.55833022,-6.37502057 32.3485306,-1.66718886 38.1433414,9.13393292 C43.9381521,19.9350547 43.249578,47.3329958 35.7603014,49.2634576 C32.7735882,50.033323 26.4110012,48.1474609 19.935372,44.244306 L24,73 L0,73 L8.26227388,34.4901268 Z"></path>
                </g>
                <path d="M102.7757,25.1604378 C102.27871,23.413499 100.941932,21.9177553 99.1403997,21.4740102 C98.7035309,21.3663739 98.2523568,21.3228991 97.8028308,21.3410245 C97.6415842,21.3474604 97.5963613,21.3939561 97.5210118,21.2811974 C97.4651095,21.197597 97.463857,20.9933574 97.44085,20.8951122 C97.3692581,20.5896064 97.2797352,20.2879096 97.169249,19.9940277 C96.7923038,18.9916772 96.1588538,18.1045809 95.3952068,17.3573001 C93.9668625,15.9592762 92.0369134,14.9944243 90.0318126,14.8198684 C88.9343996,14.7243814 87.8449632,14.9026807 86.8074738,15.2596732 C86.2703367,15.444474 85.7494825,15.6745884 85.2422083,15.9290015 C85.0894658,16.0055749 84.5939258,16.3806273 84.4406558,16.3563287 C84.2713667,16.3295345 83.9311403,15.9088402 83.793494,15.8032397 C82.0920984,14.4978789 79.9910802,13.9846529 77.8718674,14.0003485 C75.4798671,14.0180142 73.1765325,14.1375371 71.1815838,15.5957165 C70.7592838,15.9044402 70.3570902,16.2424535 69.974146,16.5983297 C69.7724889,16.7856917 69.5771603,16.9800806 69.3908631,17.1825471 C69.2784651,17.3046969 69.1690337,17.4296049 69.0636894,17.5578621 C68.8849074,17.7755645 68.9135837,17.8470813 68.6633416,17.6951821 C67.7032454,17.1118841 66.5906702,16.8390829 65.4700524,16.976797 C64.80463,17.0586242 64.1572045,17.2583982 63.5424765,17.5213485 C63.3331724,17.6108594 62.8487074,17.9679176 62.6256255,17.9713982 C62.4043234,17.9748132 61.9266485,17.6438267 61.6986882,17.5597009 C60.4674524,17.1051856 59.1403652,16.9931493 57.8462393,17.2031681 C56.5113072,17.4198854 55.1999755,17.9524847 54.068942,18.6884699 C53.524949,19.0425073 53.0503065,19.4347656 52.6690763,19.9611918 C52.5044676,20.1884823 52.3556804,20.4289072 52.1691195,20.6396484 C52.0598858,20.7630459 51.8435939,20.8896614 51.7849887,21.0458292 C51.8200595,20.9523124 50.3250675,20.3759756 50.1839932,20.3391337 C49.43241,20.1428403 48.6671149,20.1826375 47.9311554,20.4248355 C46.5472429,20.8802703 45.3570768,21.9016 44.3789178,22.9487388 C43.8765219,23.4865919 43.4368843,24.0811198 43.0636966,24.7145254 C42.8848487,25.0179297 42.7212948,25.3300027 42.5716506,25.6487085 C42.4991357,25.8031032 42.4510782,25.9962443 42.3555564,26.1353375 C42.232413,26.3145561 42.1496802,26.3179711 41.9266642,26.3961207 C40.7940485,26.7929104 39.7615692,27.4645372 38.9753108,28.3720574 C38.1800209,29.2902166 37.663979,30.42089 37.4476212,31.6115877 C37.4348981,31.6817253 37.427317,31.9723892 37.3862473,32.0103476 C37.3299494,32.0626224 37.1021869,32.0395059 37.0160261,32.0496194 C36.7176606,32.0846225 36.4214046,32.1367003 36.1291039,32.2059185 C35.5902528,32.3334534 35.0657729,32.5211438 34.5696396,32.7666254 C32.6356033,33.723531 31.2525478,35.5174909 30.5756549,37.5361144 C29.8654051,39.6545592 29.8779963,42.0815964 30.7268813,44.1605068 C30.8640002,44.4962873 31.0271586,44.8222171 31.2187955,45.1305467 C31.3364672,45.3198132 31.3744386,45.3202729 31.2980344,45.5188648 C31.2128624,45.7397851 31.0572852,45.9544667 30.9561599,46.1703303 C30.6262175,46.874793 30.3955544,47.6219424 30.2498656,48.3850501 C30.0108303,49.6368226 29.8923675,50.9522969 30.1281725,52.2135918 C30.2376699,52.799254 30.4284498,53.3717818 30.7194979,53.8934139 C30.8678896,54.1593852 31.0415297,54.411631 31.2375834,54.6449634 C31.3393678,54.7661281 31.4474808,54.881842 31.5605381,54.9926962 C31.6252081,55.0560039 31.7099845,55.111431 31.7649639,55.1821597 C31.8991823,55.3546142 31.9273971,55.2128285 31.8581785,55.4660594 C31.7614041,55.8200967 31.5420138,56.1694057 31.4076636,56.5139206 C31.2692262,56.868943 31.1441052,57.2288251 31.0296636,57.5922535 C30.7978799,58.3281731 30.6018921,59.077424 30.479342,59.8395467 C30.2439984,61.3027828 30.2853319,62.8618999 30.9774529,64.204825 C31.2733793,64.7792573 31.6979207,65.2831579 32.2128419,65.6751536 C32.4648638,65.8669157 32.7378492,66.0322119 33.0242168,66.1679557 C33.171356,66.2378307 33.3592353,66.2677771 33.4263445,66.4100881 C33.4985956,66.5631037 33.3913396,66.8669677 33.3668823,67.038043 C33.1540843,68.5263001 33.0473557,70.0888978 33.489762,71.5473398 C33.8972294,72.890659 34.7943696,74.0766939 35.9591555,74.8619331 C38.2187834,76.3851933 41.2646697,76.2992944 43.6389369,75.0798325 C44.257818,74.7619147 44.8368159,74.3672265 45.3533193,73.9016782 C46.6685404,75.6721932 49.3749915,75.6161751 51.2972276,75.1116834 C53.6920627,74.4832031 55.6137056,72.8179602 56.7208751,70.6300344 C58.2347869,72.4729856 61.411991,71.8750427 62.4618079,69.8757268 C62.718774,69.3864053 62.871187,68.8471075 62.9462069,68.3013738 C62.9856945,68.0143875 62.9605121,67.7249057 62.9901773,67.4402179 C63.0280168,67.0774462 63.2703482,66.7249193 63.4096426,66.3739686 C63.6809139,65.6909806 63.8493461,64.9854671 63.8565976,64.2487595 C63.8603552,63.8641191 63.8116384,63.4892637 63.7750514,63.1077099 C63.742156,62.7642457 63.8374141,62.4442264 63.8915365,62.105228 C63.277336,62.2063627 62.5290489,62.0407382 61.9503806,61.8626359 C61.3825236,61.6878829 60.8506603,61.2275884 60.4498511,60.8072225 C59.5192222,59.831075 58.950706,58.5514576 58.5618947,57.2778821 C57.7083952,54.4826224 58.0582462,51.1289544 60.8697779,49.5948583 C62.1795274,48.8802164 66.1033718,48.8825605 67.6633416,49.2357609 C69.3035816,49.6071356 71.1630595,53.2263842 71.25456,53.5665648 C71.3111875,53.7771089 71.282709,54.0376951 71.4761258,54.1779703 C71.9011945,54.4864314 72.6022151,53.9511395 72.9157428,53.6869414 C73.4567694,53.2309812 73.8426801,52.624304 74.1769075,52.0093522 C74.9051541,50.669645 75.4922605,49.2329403 75.9069794,47.7662893 C76.2267038,46.6355502 76.4311297,45.4695452 76.8490129,44.367636 C77.2648524,43.2711776 77.9203865,42.2911555 78.9396153,41.6700305 C80.048367,40.9943321 81.3192882,40.638456 82.5364825,40.2138213 C83.7429973,39.7929956 84.9286806,39.2786532 85.8639241,38.385712 C86.0695366,38.189353 86.269282,37.9807133 86.4348135,37.7495481 C86.5654721,37.5670459 86.6946144,37.2176712 86.8937005,37.1019573 C87.203207,36.9219506 87.6549084,37.39006 87.9225541,37.560019 C89.2429831,38.3986494 90.3446151,39.5682663 91.2331195,40.8459792 C92.1166797,42.1167309 92.841683,43.3394764 93.430833,44.7584496 C93.8678337,45.8108422 94.1405685,47.158627 94.9091597,48.0210964 C95.2522867,48.4061965 97.8028308,48.6391716 98.6289725,48.3029602 C99.4551141,47.9667489 100.380997,47.0937432 100.658267,46.5466304 C100.942129,45.9866459 101.009964,45.371497 100.888666,44.7584496 C100.817338,44.3977794 100.671649,44.0608825 100.591949,43.7066481 C100.52484,43.4090887 100.463927,43.1278158 100.319095,42.8552117 C100.044594,42.3386363 99.5756205,41.9673273 99.0100708,41.8120789 C99.5986275,41.2694318 100.086323,40.6202648 100.42378,39.8945901 C100.774422,39.1406764 101.071601,38.2238307 101.155916,37.3963645 C101.224476,36.7242781 101.11867,36.0279587 100.750756,35.4503742 C100.36478,34.844485 99.6810307,34.4492057 99.0894416,34.0712638 C99.9931082,33.3642399 100.766512,32.5043974 101.402335,31.5524173 C102.638845,29.7011258 103.403678,27.3675397 102.7757,25.1604378 Z" id="hair" fill="#191847"></path>
            </g>
            <g id="Bottom/Standing/Baggy-Pants" transform="translate(7.000000, 204.000000)">
                <polygon id="Leg" fill="#997659" points="134 0 183.081639 124.226909 216.000898 229.25029 229 229.25029 178.673688 5.090379e-13"></polygon>
                <path d="M124.116628,0 C123.593979,43.6541888 115.971833,102.427468 114.754071,105.148648 C113.942229,106.962768 85.9161573,130.032465 30.6758546,174.357739 L39.6290713,183.938736 C104.807511,145.935376 138.9048,124.399339 141.920937,119.330628 C146.445143,111.72756 161.1744,41.763137 173,0 L124.116628,0 Z" id="Leg" fill="#B28B67"></path>
                <g id="Accessories/Shoe/Flat-Sneaker" transform="translate(51.500000, 189.000000) rotate(50.000000) translate(-51.500000, -189.000000) translate(21.000000, 169.000000)" fill="#E4E4E4">
                    <path d="M2.67813181,25.4019242 C1.55937727,28.3884109 1,30.6229931 1,32.1056708 C1,33.908957 1.3004142,36.5404001 1.90124261,40 C3.99318117,40 22.7937852,40 58.3030548,40 C59.768738,35.1545073 58.9226607,32.5385816 55.7648228,32.1522232 C52.606985,31.7658647 49.9837155,31.4170139 47.8950143,31.1056708 L21.6799926,19.4188835 C21.1755635,19.1940064 20.584344,19.4206282 20.359467,19.9250573 C20.35562,19.9336867 20.3518954,19.9423702 20.3482945,19.9511052 L18.6632131,24.038695 C15.7398812,25.4026522 13.3643706,26.0846307 11.5366811,26.0846307 C10.0517269,26.0846307 8.00099246,25.4849054 5.38447792,24.2854549 L5.38448339,24.285443 C4.38038273,23.8251478 3.19325534,24.2659892 2.73296014,25.2700899 C2.71312074,25.3133681 2.69483298,25.3573409 2.67813181,25.4019242 Z" id="shoe"></path>
                </g>
                <g id="Accessories/Shoe/Flat-Sneaker" transform="translate(208.000000, 199.000000)" fill="#E4E4E4">
                    <path d="M2.67813181,25.4019242 C1.55937727,28.3884109 1,30.6229931 1,32.1056708 C1,33.908957 1.3004142,36.5404001 1.90124261,40 C3.99318117,40 22.7937852,40 58.3030548,40 C59.768738,35.1545073 58.9226607,32.5385816 55.7648228,32.1522232 C52.606985,31.7658647 49.9837155,31.4170139 47.8950143,31.1056708 L21.6799926,19.4188835 C21.1755635,19.1940064 20.584344,19.4206282 20.359467,19.9250573 C20.35562,19.9336867 20.3518954,19.9423702 20.3482945,19.9511052 L18.6632131,24.038695 C15.7398812,25.4026522 13.3643706,26.0846307 11.5366811,26.0846307 C10.0517269,26.0846307 8.00099246,25.4849054 5.38447792,24.2854549 L5.38448339,24.285443 C4.38038273,23.8251478 3.19325534,24.2659892 2.73296014,25.2700899 C2.71312074,25.3133681 2.69483298,25.3573409 2.67813181,25.4019242 Z" id="shoe"></path>
                </g>
                <polygon id="Pant" fill="#69A1AC" points="167 218.432889 228.804464 211.725327 183 2.84217094e-14 127.644073 2.84217094e-14"></polygon>
                <path d="M43.4599581,158.900479 L84,206.885961 C126.699953,160.249961 151.594137,129.819963 158.682552,115.595966 C165.770967,101.37197 172.143091,62.839981 177.798925,0 L115.478146,0 C112.388642,55.2838742 110.306102,84.2121259 109.230525,86.7847551 C108.154948,89.3573843 86.2314253,113.395959 43.4599581,158.900479 Z" id="Pant" fill="#89C5CC"></path>
            </g>
            <g id="Body/Jacket-2" transform="translate(147.288204, 196.692459) rotate(-14.000000) translate(-147.288204, -196.692459) translate(19.288204, 103.192459)">
                <path d="M198,77.6170876 L234.234567,61.7041739 C240.582018,55.3790221 246.711387,50.5716141 252.622674,47.2819501 C254.390261,46.7192094 257.410101,46.5491987 254.188168,51.2551684 C250.966235,55.961138 247.78889,61.0560141 249.076289,62.7052963 C250.363689,64.3545786 254.093006,62.5342201 255.566345,65.2162765 C256.548571,67.0043141 250.262286,69.1431805 236.707491,71.6328758 L209.56994,92.4392868 L198,77.6170876 Z M51.5082829,82 L72,86.0658446 C51.3920824,124.471059 40.3404263,144.825845 38.8450319,147.130202 C35.4803944,152.315007 38.6196693,161.817238 39.7793043,166.821179 C32.5044044,168.51462 35.3734014,157.565005 26.1671562,159.851185 C17.7641225,161.937904 10.6393632,167.293169 2.8038784,160.07074 C1.84055159,159.182785 1.13535082,156.407288 4.41981989,154.983749 C12.6026301,151.437195 24.6920431,144.796343 26.6523424,142.218096 C29.3255608,138.702197 37.6108743,118.629498 51.5082829,82 Z" id="Skin" fill="#B28B67"></path>
                <path d="M123.280247,9.87718027 L131.765198,7.64600959 C152.120135,24.2050747 163.602366,67.2616718 176.61267,71.9556463 C188.913385,76.3936093 205.208593,69.6320097 224.503164,60.7390322 L231.796052,73.8353428 C215.409826,95.0000245 178.298612,114.916545 161.84294,106.839809 C135.533742,93.9267871 125.046804,40.501408 123.280247,9.87718027 Z" id="Coat-Back" fill="#DB2721" transform="translate(177.538150, 58.161768) rotate(5.000000) translate(-177.538150, -58.161768) "></path>
                <path d="M90,114 C124.671756,114 150.175573,114 166.511451,114 C170.007634,114 169.348845,108.951637 168.84345,106.404206 C163.010588,77.0037663 140.241304,45.3115155 140.241304,3.4607303 L118.1718,0 C99.917485,29.3584068 93.6048263,65.5045499 90,114 Z" id="Shirt" fill="#DDE3E9"></path>
                <path d="M82.3687546,84.2331696 C66.7713811,112.367832 53.6609446,132.623442 43.0374452,145 L27,141.85882 C37.3305927,77.7906722 67.2466105,30.5043988 116.748053,3.81764932e-14 L117,2.9470116e-14 L125.486398,0 C145.298923,67.5369477 150.760885,112.536948 141.872285,135 L73,135 C74.0896281,118.56345 77.5833963,101.181199 82.3687561,84.2331662 Z" id="Coat-Front" fill="#FF4133"></path>
            </g>
        </g>
    </g>
</svg>