<?xml version="1.0" encoding="UTF-8"?>
<svg width="415px" height="466px" viewBox="0 0 415 466" version="1.1" xmlns="http://www.w3.org/2000/svg" xmlns:xlink="http://www.w3.org/1999/xlink">
    <!-- Generator: Sketch 52.5 (67469) - http://www.bohemiancoding.com/sketch -->
    <title>Scene Wireframe</title>
    <desc>Created with Sketch.</desc>
    <g id="Scene-Wireframe" stroke="none" stroke-width="1" fill="none" fill-rule="evenodd">
        <g id="Scene/Wireframe" transform="translate(-46.000000, -41.000000)">
            <path d="M679.830799,173.592978 C679.297366,173.205064 678.031811,173.067515 677.443051,172.95131 C674.995801,172.468873 672.474782,172.258824 669.97986,172.258824 C662.286664,172.270342 654.468547,173.025505 646.903054,174.332556 C642.099722,175.162252 636.292853,177.954558 631.514574,176.438135 C623.190165,173.795913 614.777026,173.92567 606.879225,177.697756 C599.658567,181.146975 594.177047,187.697815 590.978189,194.776152 C590.495559,195.844695 588.53755,199.777367 587.983239,202.428398 C587.746274,202.970461 587.518704,203.516252 587.313403,204.070173 C586.730907,205.642836 586.208609,207.243279 585.723195,208.846771 C585.515807,209.530788 584.994205,211.041113 585.613586,211.33315 C584.623968,213.159566 583.746744,215.041882 583.016014,216.985181 C580.890981,222.636873 578.567607,228.836388 577.820871,234.826531 C577.544237,237.044589 577.533798,239.27552 577.790598,241.497981 C577.917605,242.596338 577.865062,244.805247 578.609711,245.640364 C580.190176,247.412574 581.001635,244.931616 580.823476,243.749917 C579.462926,234.743528 582.090074,226.285978 585.203681,217.819959 C587.217016,212.345454 590.525136,207.337124 594.230982,202.801405 C597.230107,199.12994 600.447408,196.238707 604.558635,193.804502 C609.586058,190.827895 614.9611,188.421471 620.286731,186.007593 C623.789364,184.419346 627.296173,182.873787 630.896585,181.505415 C631.697256,181.200843 632.956896,180.420271 633.844559,180.417222 C635.721839,180.410446 638.382045,181.795758 640.1953,182.311057 C646.159449,184.0067 652.199804,186.177665 658.363687,187.043612 C662.317285,187.599566 666.021391,186.973822 669.718885,185.656607 C670.096777,185.522446 670.730077,185.176541 671.506042,184.682586 C674.251152,183.626578 676.848028,182.297505 679.109116,180.380294 C680.411903,179.2755 681.593946,177.84784 682.671947,176.541127 C682.994512,176.150502 683.137178,175.702622 683.14205,175.277102 C683.386323,175.149378 683.548475,175.000311 683.585012,174.826173 C683.85399,173.540127 681.401172,173.516411 679.830799,173.592978" id="Twisted-Leaf" fill="#89C5CC"></path>
            <path d="M84.4203507,248 C82.4782261,248 80.5420227,248.038809 78.6023362,248.139235 C77.1237998,248.216172 74.8643733,247.911148 73.6132773,248.828262 C72.3134192,249.78078 72.4029325,251.730752 72.6059918,253.107784 C73.6794544,260.389882 76.2993721,266.847122 81.7802316,272.00631 C90.2192086,279.950541 99.8936082,283.986997 111.341555,285.784458 C119.383121,287.047106 126.806801,285.293901 132.72652,279.602964 C137.051717,287.591791 140.333058,296.432369 141.979475,305.35499 C142.791713,309.757747 143.039703,314.107397 142.896899,318.590495 C142.804948,321.462006 142.645775,324.326709 142.336484,327.184603 C142.202388,328.426485 141.566043,330.306329 142.054708,331.479785 C142.628011,332.857838 144.561428,332.991285 145.429394,331.816128 C146.151769,330.838078 146.019067,328.917382 146.167443,327.759927 C146.413343,325.837188 146.641132,323.913089 146.804136,321.9815 C147.068845,318.855008 147.26459,315.719665 147.25031,312.581258 C147.217221,305.52997 145.641857,298.451108 143.486921,291.75761 C139.35294,278.916321 132.645366,267.503808 122.213412,258.549527 C115.799107,253.043443 108.457974,250.813638 100.129059,249.616693 C94.943559,248.871496 89.6734215,248 84.4203507,248" id="Fill-16" fill="#DDE3E9" transform="translate(109.869393, 290.306754) rotate(-39.000000) translate(-109.869393, -290.306754) "></path>
            <path d="M128.932238,288.644291 C127.357223,276.102578 125.689907,263.632696 122.638445,251.33473 C120.839821,244.087696 118.534767,236.993174 116.440435,229.828524 C116.628169,230.727254 116.794308,231.631772 116.938505,232.538672 C116.20986,230.401805 114.688134,228.357874 113.812854,226.228496 C112.836568,223.85367 112.051498,221.386928 111.305786,218.934824 C109.849889,214.149085 108.476191,209.355176 106.837785,204.624247 C105.011993,199.353398 102.90965,194.17004 100.950459,188.945489 C99.2876714,184.511413 97.730419,179.856058 95.5657303,175.624537 C94.386036,173.318136 93.3282468,170.840841 92.1701471,168.489844 C91.7824884,167.703115 88.4562169,158.914282 88.4812946,158.914282 C89.0312614,158.914282 91.093898,162.821035 91.4355809,163.394997 C92.434159,165.071265 93.2826194,166.815619 94.1401357,168.563377 C94.5103793,166.488127 95.0965693,164.456452 96.0199144,162.548692 C96.3048244,161.959752 98.3047669,157.61657 98.9560891,157.61657 C99.2814019,157.61657 96.2752188,165.818164 95.8952228,166.53817 C95.5866284,167.123025 95.0084493,167.864478 94.8071315,168.48678 C94.4818186,169.491724 94.6493513,169.240488 94.9178911,170.147048 C95.4100399,171.808678 96.4991762,173.435924 97.1846319,175.031511 C97.5607966,175.883262 98.487973,178.835455 99.3900718,180.157678 C101.712889,184.697967 103.363486,190.23401 105.131808,195.130047 C105.512153,192.724582 106.169744,190.405245 107.080551,188.141738 C107.296497,187.604202 109.015013,182.61659 109.509948,182.61659 C110.066881,182.61659 107.934236,190.604736 107.644449,191.294784 C107.106325,192.576496 106.260303,193.817016 105.812736,195.121536 C105.321632,196.553377 106.184373,197.842238 106.733992,199.30676 C108.755877,204.694715 110.528379,210.136459 112.147977,215.651395 C121.553837,211.531874 123.424212,199.407526 124.037917,190.466522 C124.479911,184.022558 123.482378,177.460466 121.918508,171.209524 C119.83149,162.866993 116.320271,154.812804 112.594847,147.058532 C108.253976,138.023229 102.28445,129.95338 95.0868169,122.879624 C91.3223832,119.179852 87.0351502,115.973359 82.6806951,112.96874 C80.5536229,111.500814 78.3683845,110.282422 75.885349,109.465735 C74.7659106,109.098073 73.6168667,108.831858 72.4552839,108.627941 C71.57269,108.473047 69.7719755,107.654657 69.0401958,107.86334 C63.0647494,109.516459 58.5730639,112.266097 55.0907537,117.377625 C51.7940878,122.21613 49.7478213,128.000685 48.6102713,133.675281 C47.3438501,139.994308 47.0383904,146.36542 48.1254368,152.724958 C48.9547407,157.57708 50.3852116,162.333882 51.8177723,167.044046 C56.9127146,183.796854 65.8431439,201.757502 81.8674131,210.947359 C87.0543067,213.92236 92.8096271,215.661267 98.7178515,216.583146 C100.110009,216.80034 101.500774,217.006979 102.90965,217.086299 C103.859466,217.140087 106.981982,216.509274 107.669179,216.918809 C108.611332,217.480175 109.152591,220.66488 109.563238,221.819612 C112.683315,230.596189 115.473552,239.472172 118.00535,248.427474 C120.698759,257.955376 122.83837,267.575875 124.620624,277.303609 C125.378527,281.441172 126.116924,285.571927 126.745607,289.731959 C126.892241,290.699796 126.740731,293.743904 127.685322,294.598719 C128.282658,295.139319 129.126939,294.9177 129.482205,294.255908 C130.100091,293.105261 129.093502,289.928386 128.932238,288.644291" id="Leaf" fill="#C1DEE2" transform="translate(88.570734, 201.366026) rotate(-37.000000) translate(-88.570734, -201.366026) "></path>
            <path d="M670.618319,204.224481 C667.207369,203.479326 663.441156,203.536356 659.966691,203.597827 C641.333148,203.85122 623.035326,212.67322 611.126665,226.769363 C600.988739,238.769713 598.201071,253.689557 596.198264,268.771614 C595.999693,270.269096 595.914542,271.757017 595.802518,273.257573 C595.778439,273.579609 595.742494,273.866811 595.704106,274.13728 C594.916453,274.841455 594.503259,275.662424 594.969498,276.564329 C593.23436,280.36148 591.766542,284.254935 590.507066,288.270647 C586.80018,300.090684 583.02943,312.13543 585.352254,324.564706 C585.89492,317.724779 587.03644,310.730494 588.401658,304.002922 C588.480179,303.616684 588.564981,303.233519 588.653274,302.851721 C588.662347,302.811424 588.670723,302.771127 588.679797,302.731171 C589.163137,300.670895 589.791304,298.67243 590.555226,296.705383 C590.563252,296.683869 590.57093,296.662696 590.579305,296.641523 C590.680161,296.382665 590.787299,296.125173 590.89304,295.867681 C591.111852,295.334598 591.336596,294.802539 591.574951,294.273212 C591.655566,294.0929 591.73304,293.91088 591.807373,293.727493 C592.919578,291.001631 593.389308,287.93017 594.385652,285.109712 C594.624006,284.468373 594.873179,283.829424 595.134218,283.19389 C595.149573,283.156667 595.165277,283.119443 595.180982,283.08222 C595.886623,281.371982 596.666249,279.682576 597.490544,278.010927 C597.938637,277.674207 598.178039,276.838896 598.564362,276.079738 C598.644279,275.930161 599.268956,274.932636 599.454964,274.35789 C599.940398,273.418761 600.424087,272.479292 600.91301,271.541871 C600.898353,271.547335 600.883696,271.552799 600.869039,271.558263 C601.358311,270.658066 601.84898,269.761626 602.33581,268.868942 C602.442947,268.67292 602.551132,268.476557 602.658967,268.279852 C602.833807,267.966696 603.008647,267.653881 603.183138,267.341749 C604.815327,264.420889 606.545928,261.558427 608.343185,258.73148 C608.984614,257.722686 610.516994,256.276087 610.810837,255.143327 C610.821655,255.100981 610.824098,255.06205 610.830729,255.021411 C614.730602,249.544075 619.220255,244.491906 624.604349,240.48883 C623.953498,241.192322 622.570133,243.579757 622.2044,244.052395 C621.085215,245.499676 619.87006,246.846898 618.650368,248.210513 C616.46609,250.65327 614.333461,253.173549 612.438489,255.838624 C608.973098,260.712528 605.983369,265.841875 603.157313,271.074356 C603.130442,271.105091 603.101127,271.134119 603.075652,271.165537 C601.655295,272.916413 600.761203,275.562706 599.738686,277.56561 C603.785132,275.691452 608.25943,274.470585 612.412315,272.80645 C616.553684,271.147437 620.582332,269.299916 624.471736,267.130359 C629.641206,264.247065 635.003662,260.991535 639.888014,257.30742 C645.485336,253.835378 650.188915,249.056411 654.340753,244.041466 C659.253023,238.107884 663.754891,232.122393 666.539069,224.917744 C667.906729,221.377401 668.98264,217.685774 669.620579,213.951117 C669.648498,213.788221 669.684094,213.611665 669.722831,213.428279 C670.375427,212.138429 670.958925,210.819551 671.448547,209.47028 C672.226079,207.330434 674.062422,204.976467 670.618319,204.224481" id="Fill-10" fill="#69A1AC"></path>
            <path d="M85.0410593,240.970688 C84.6260788,239.451352 84.3769032,237.880452 84.4921235,236.290918 C84.521397,235.889131 84.8583929,232.970688 85.1846163,232.970688 C85.9443209,232.970688 84.8979707,240.502788 85.0410593,240.970688 M71.8196392,247.54459 C71.8656767,247.563048 72.7021403,249.170774 72.9765334,249.637576 C73.5594468,250.630567 74.1810684,251.599483 74.8196392,252.54459 C73.6215173,250.987423 72.5466204,249.485096 71.8196392,247.54459 M116.694872,199.711962 C117.406507,199.111692 117.017177,197.612053 116.173095,198.440022 C115.491634,199.110913 115.47134,199.044447 114.614707,199.001607 C113.919093,198.966817 113.179153,198.750802 112.480068,198.664864 C110.99725,198.482602 109.522709,198.405491 108.030812,198.509603 C104.832859,198.732368 101.721157,199.49413 98.7597931,200.678834 C93.591959,202.746548 88.3752583,205.425957 84.2640625,209.157138 C77.7271649,215.089743 72.4776196,223.210532 69.3800701,231.307955 C67.4614586,236.322759 66.4285861,241.355997 68.1725598,246.571757 C69.0438792,249.178469 70.4230898,251.658999 72.4247476,253.617408 C72.9481267,254.129143 73.6378655,254.525602 74.1275988,255.062782 C74.8806237,255.888674 74.7081223,255.624108 74.218656,256.802581 C73.6840617,258.08932 73.1542739,259.377617 72.6279576,260.667732 C71.2503491,264.045812 69.8941031,267.462058 68.8938082,270.967358 C68.564293,272.120906 68.3108815,273.292108 68.1271647,274.476033 C67.987775,275.371247 67.1786737,278.777107 67.8828322,279.692312 C69.0542933,281.215577 69.5533726,278.876547 69.5910239,278.076359 C69.6238686,277.375351 69.6850185,276.672785 69.7726044,275.975931 C69.9931713,274.221334 70.3921143,272.498931 70.9104198,270.806645 C71.4703819,268.977793 72.1566494,267.183212 72.8386443,265.394603 C73.4749771,263.726723 74.1409503,262.069748 74.8200079,260.418225 C75.1970544,259.500683 75.5786405,258.584959 75.9602265,257.669234 C76.0905372,257.356377 76.1575618,256.702882 76.5025647,256.971082 C77.2566578,255.015789 78.4844624,253.158896 79.5023812,251.323294 C80.7494119,249.075135 82.0218105,246.831649 83.4549612,244.68968 C84.4886348,243.144866 85.5773167,241.632506 86.7685381,240.197257 C87.4646856,239.358643 88.2088986,238.570399 88.9995748,237.814868 C89.4340328,237.399975 90.9173852,235.620193 91.5157997,235.620193 C91.2586497,235.620193 90.0954664,237.880555 89.914153,238.147457 C89.1897002,239.215586 88.4032965,240.233086 87.6006039,241.246692 C86.1111099,243.12773 84.7289619,245.077052 83.4787269,247.116207 C83.8394846,247.330923 85.3396598,246.341722 85.7869353,246.150892 C86.7901675,245.723278 87.8214379,245.357715 88.8780761,245.075754 C90.7392761,244.578817 93.0141058,244.012818 94.8515401,244.012818 C94.310003,244.012818 93.0530922,244.896607 92.4893916,245.136767 C91.5860286,245.521283 90.6597011,245.872047 89.7205561,246.164913 C88.8535093,246.43519 87.9707077,246.641338 87.0820314,246.83113 C86.1928211,247.020662 84.5861008,247.027931 83.7769995,247.501501 C83.728133,247.530061 83.7788687,247.988572 83.5874081,248.111378 C83.3946124,248.235223 82.8423941,248.194721 82.797533,248.228732 C82.1350313,248.726188 81.671734,250.167669 81.273058,250.876726 C80.2385833,252.715184 79.2308116,254.567923 78.2131597,256.415209 C77.8977972,256.987439 77.4782928,257.378965 77.7557371,257.842929 C78.0518735,258.337529 79.4508444,258.644414 79.9974551,258.8246 C82.0271511,259.494192 84.0838171,259.715918 86.2000309,259.364376 C90.1638262,258.706467 93.6042423,256.990814 96.7060643,254.562211 C108.586769,245.260093 118.331232,233.554816 121.305948,218.692665 C122.537224,212.539631 123.86383,202.94335 116.694872,199.711962" id="Leave-the-Leaf!" fill="#89C5CC" transform="translate(94.780437, 239.196435) scale(-1, 1) rotate(-302.000000) translate(-94.780437, -239.196435) "></path>
            <g id="Background-Shape-2" opacity="0.6" stroke-width="1" transform="translate(38.367568, 324.305882)" fill="#DDE3E9">
                <path d="M650.980758,132.396861 C660.474058,191.572629 430.245391,230.170957 232.082241,203.234114 C33.9190904,176.297272 -56.9887671,71.1058633 37.5713844,15.0557459 C132.131536,-40.9943715 641.487459,73.2210938 650.980758,132.396861 Z" id="Background-Shape"></path>
            </g>
            <g id="Mobile3" stroke-width="1" transform="translate(134.472973, 54.635294)">
                <rect id="Container" fill="#F2F2F2" x="0" y="0" width="159" height="302" rx="8"></rect>
                <circle id="Touch" fill="#FFFFFF" cx="79" cy="268" r="15"></circle>
                <g id="Camera" transform="translate(64.000000, 16.000000)" fill="#FFFFFF">
                    <circle id="Lens" cx="2" cy="2" r="2"></circle>
                    <rect id="Sensor" x="9" y="0" width="21" height="4" rx="2"></rect>
                </g>
                <g id="Rows" transform="translate(14.000000, 28.000000)">
                    <g id="Row">
                        <rect id="Background" fill="#FFFFFF" x="0" y="0" width="131" height="54" rx="4"></rect>
                        <g id="Text" transform="translate(39.000000, 16.200000)" fill="#DDE3E9">
                            <rect id="Name" x="0" y="0" width="73" height="8.1" rx="3"></rect>
                            <rect id="Name" x="0" y="13.5" width="49" height="8.1" rx="3"></rect>
                        </g>
                        <circle id="Avatar" fill="#C5CFD6" cx="21" cy="27" r="12"></circle>
                    </g>
                    <g id="Row" transform="translate(0.000000, 62.000000)">
                        <rect id="Background" fill="#FFFFFF" x="0" y="0" width="131" height="42" rx="4"></rect>
                        <g id="Text" transform="translate(39.000000, 12.600000)" fill="#DDE3E9">
                            <rect id="Name" x="0" y="0" width="73" height="6.3" rx="3"></rect>
                            <rect id="Name" x="0" y="10.5" width="49" height="6.3" rx="3"></rect>
                        </g>
                        <circle id="Avatar" fill="#C5CFD6" cx="21" cy="21" r="12"></circle>
                    </g>
                    <g id="Row" transform="translate(0.000000, 112.000000)">
                        <rect id="Background" fill="#FFFFFF" x="0" y="0" width="131" height="42" rx="4"></rect>
                        <g id="Text" transform="translate(39.000000, 12.600000)" fill="#DDE3E9">
                            <rect id="Name" x="0" y="0" width="73" height="6.3" rx="3"></rect>
                            <rect id="Name" x="0" y="10.5" width="49" height="6.3" rx="3"></rect>
                        </g>
                        <circle id="Avatar" fill="#AFB9C5" cx="21" cy="21" r="12"></circle>
                    </g>
                    <g id="Row" transform="translate(0.000000, 162.000000)">
                        <rect id="Background" fill="#FFFFFF" x="0" y="0" width="131" height="42" rx="4"></rect>
                        <g id="Text" transform="translate(39.000000, 12.600000)" fill="#DDE3E9">
                            <rect id="Name" x="0" y="0" width="73" height="6.3" rx="3"></rect>
                            <rect id="Name" x="0" y="10.5" width="49" height="6.3" rx="3"></rect>
                        </g>
                        <circle id="Avatar" fill="#C5CFD6" cx="21" cy="21" r="12"></circle>
                    </g>
                </g>
            </g>
            <g id="Mobile3" stroke-width="1" transform="translate(151.791892, 78.188235)">
                <g id="Group" transform="translate(0.000000, 218.000000)" fill="#89C5CC">
                    <path d="M12.139863,0 C10.8150371,0 9.4942504,0.0266022626 8.17108772,0.095441451 C7.1624999,0.14817927 5.62122565,-0.0609051802 4.76778691,0.567748289 C3.88108497,1.22067049 3.94214671,2.55731751 4.08066419,3.50123112 C4.81292983,8.49288902 6.60011418,12.9191321 10.3388981,16.4555996 C16.0955705,21.9011294 22.6949899,24.6679981 30.5042395,25.9001029 C35.9898168,26.7656098 41.0539017,25.563841 45.0920545,21.6628758 C48.0425006,27.1389749 50.2808765,33.1989237 51.4039848,39.3151105 C51.9580547,42.3330672 52.1272219,45.3146208 52.0298082,48.3876489 C51.9670833,50.3559829 51.8585027,52.31965 51.647519,54.2786499 C51.5560451,55.1299223 51.1219604,56.4184986 51.4553052,57.222867 C51.8463854,58.1674807 53.1652714,58.2589551 53.7573564,57.4534199 C54.250127,56.7829963 54.1596035,55.4664176 54.2608187,54.6730168 C54.4285603,53.355038 54.583947,52.0361258 54.6951411,50.7120799 C54.8757128,48.5689643 55.0092408,46.4197815 54.9994994,44.2684985 C54.9769279,39.4350541 53.9022889,34.582708 52.4322929,29.9945178 C49.6122862,21.1922025 45.0366951,13.3692704 37.9205081,7.23138172 C33.5449714,3.45712737 28.5371962,1.92866404 22.8556037,1.10819426 C19.3182997,0.597384143 15.7232603,0 12.139863,0" id="Fill-16"></path>
                    <path d="M32.5712675,35 C18.2723696,35 8.64204555,46.5241625 4.08868149,58.5015953 C2.37224237,63.0163306 1.96994464,67.9738742 1.30842479,72.7144486 C1.09603594,74.2357354 1.17471582,76.5539408 0.557219238,77.9092029 C0.333122071,78.4006816 -0.180638832,78.5773956 0.0650016363,79.2469528 C0.213697249,79.6524625 0.505468481,79.9008173 0.943593663,79.9813279 C1.84302649,80.1468978 3.11478377,79.1673519 3.88589345,78.780719 C10.2819123,75.5730304 14.484261,70.6132124 17.9124559,64.5448952 C20.0375153,60.7836392 22.1937187,56.8791017 23.4561093,52.7498622 C24.227219,50.2274235 24.6761159,47.5708006 24.9397871,44.953978 C25.0435228,43.9234876 25.1439802,42.8684346 25.1378918,41.8315761 C25.1318035,40.8029052 24.6531676,40.2591173 24.3091772,39.363721 C29.080316,37.5576904 34.465673,37.0655295 39.2986316,38.9370602 C43.7686325,40.6680385 47.4818078,44.0130955 49.5609705,48.2155678 C50.1011922,49.3079195 50.5177741,50.460313 50.8212537,51.6356771 C51.0198267,52.4055314 51.0294275,53.4044089 51.397537,54.1003482 C52.290179,55.7876597 54.1681928,54.6596013 53.9878848,53.088962 C53.4851297,48.7075013 50.9786134,44.3087559 47.774984,41.2625435 C43.7344442,37.4207769 38.2575282,35 32.5712675,35" id="Fill-18"></path>
                </g>
                <rect id="Container" fill="#DDE3E9" x="48" y="0" width="159" height="302" rx="8"></rect>
                <circle id="Touch" fill="#FFFFFF" cx="127" cy="268" r="15"></circle>
                <g id="Camera" transform="translate(112.000000, 16.000000)" fill="#FFFFFF">
                    <circle id="Lens" cx="2" cy="2" r="2"></circle>
                    <rect id="Sensor" x="9" y="0" width="21" height="4" rx="2"></rect>
                </g>
                <g id="Rows" transform="translate(62.000000, 28.000000)">
                    <g id="Row">
                        <rect id="Container" fill="#FFFFFF" x="0" y="0" width="131" height="54" rx="4"></rect>
                        <g id="Text-Stuff" transform="translate(9.000000, 16.200000)" fill="#DDE3E9">
                            <rect id="Label" x="0" y="0" width="73" height="8.1" rx="3"></rect>
                            <rect id="Label" x="0" y="13.5" width="49" height="8.1" rx="3"></rect>
                        </g>
                        <g id="Check" transform="translate(110.000000, 20.000000)">
                            <circle id="Background" fill="#DDE3E9" cx="7" cy="7" r="7"></circle>
                            <circle id="Indicator" fill="#F2F2F2" cx="7" cy="7" r="3"></circle>
                        </g>
                    </g>
                    <g id="Row" transform="translate(0.000000, 62.000000)">
                        <rect id="Background" fill="#FFFFFF" x="0" y="0" width="131" height="42" rx="4"></rect>
                        <g id="Text" transform="translate(39.000000, 12.600000)" fill="#DDE3E9">
                            <rect id="Name" x="0" y="0" width="73" height="6.3" rx="3"></rect>
                            <rect id="Name" x="0" y="10.5" width="49" height="6.3" rx="3"></rect>
                        </g>
                        <circle id="Avatar" fill="#C5CFD6" cx="21" cy="21" r="12"></circle>
                    </g>
                    <g id="Row" transform="translate(0.000000, 112.000000)">
                        <rect id="Container" fill="#FFFFFF" x="0" y="0" width="131" height="42" rx="4"></rect>
                        <g id="Text-Stuff" transform="translate(9.000000, 12.600000)">
                            <rect id="Label" fill="#DDE3E9" x="0" y="0" width="73" height="6.3" rx="3"></rect>
                            <rect id="Label" fill="#AFB9C5" x="0" y="10.5" width="49" height="6.3" rx="3"></rect>
                        </g>
                        <g id="Check" transform="translate(110.000000, 14.000000)">
                            <circle id="Background" fill="#DDE3E9" cx="7" cy="7" r="7"></circle>
                            <circle id="Indicator" fill="#F2F2F2" cx="7" cy="7" r="3"></circle>
                        </g>
                    </g>
                    <g id="Row" transform="translate(0.000000, 162.000000)">
                        <rect id="Background" fill="#FFFFFF" x="0" y="0" width="131" height="42" rx="4"></rect>
                        <g id="Text" transform="translate(39.000000, 12.600000)" fill="#DDE3E9">
                            <rect id="Name" x="0" y="0" width="73" height="6.3" rx="3"></rect>
                            <rect id="Name" x="0" y="10.5" width="49" height="6.3" rx="3"></rect>
                        </g>
                        <circle id="Avatar" fill="#C5CFD6" cx="21" cy="21" r="12"></circle>
                    </g>
                </g>
            </g>
            <g id="Web" stroke-width="1" transform="translate(262.905405, 98.764706)">
                <rect id="Container" fill="#F2F2F2" x="0" y="0" width="335" height="346" rx="8"></rect>
                <rect id="Background" fill="#FFFFFF" x="249" y="43" width="70" height="81" rx="8"></rect>
                <g id="Profile-Info" transform="translate(259.000000, 58.000000)" fill="#DDE3E9">
                    <circle id="Avatar" cx="25" cy="16" r="16"></circle>
                    <rect id="Name" x="0" y="36" width="50" height="6" rx="3"></rect>
                    <rect id="Name" x="8" y="46" width="34" height="6" rx="3"></rect>
                </g>
                <path d="M8,0 L327,0 C331.418278,-8.11624501e-16 335,3.581722 335,8 L335,27 L0,27 L0,8 C-5.41083001e-16,3.581722 3.581722,8.11624501e-16 8,0 Z" id="Header" fill="#C5CFD6"></path>
                <g id="Buttons" transform="translate(9.000000, 10.000000)" fill="#F2F2F2">
                    <circle id="buttons" cx="4" cy="4" r="4"></circle>
                    <circle id="buttons" cx="16" cy="4" r="4"></circle>
                    <circle id="buttons" cx="28" cy="4" r="4"></circle>
                </g>
                <g id="Components" transform="translate(249.000000, 132.000000)">
                    <rect id="Background" fill="#FFFFFF" x="0" y="0" width="70" height="194" rx="8"></rect>
                    <g id="Rows" transform="translate(18.000000, 18.000000)">
                        <rect id="Data" fill="#DDE3E9" x="0" y="0" width="34" height="26" rx="4"></rect>
                        <rect id="Data" fill="#AFB9C5" x="0" y="34" width="34" height="25" rx="4"></rect>
                        <rect id="Data" fill="#DDE3E9" x="0" y="67" width="34" height="25" rx="4"></rect>
                        <rect id="Data" fill="#DDE3E9" x="0" y="133" width="34" height="25" rx="4"></rect>
                        <rect id="Data" fill="#C5CFD6" x="0" y="100" width="34" height="25" rx="4"></rect>
                    </g>
                </g>
                <g id="Rows" transform="translate(16.000000, 44.000000)">
                    <g id="Row">
                        <rect id="Container" fill="#FFFFFF" x="0" y="0" width="225" height="47" rx="4"></rect>
                        <g id="Text-Stuff" transform="translate(9.000000, 14.100000)" fill="#DDE3E9">
                            <rect id="Label" x="0" y="0" width="167" height="7.05" rx="3"></rect>
                            <rect id="Label" x="0" y="11.75" width="112.09589" height="7.05" rx="3"></rect>
                        </g>
                        <g id="Check" transform="translate(193.954198, 16.500000)">
                            <circle id="Background" fill="#DDE3E9" cx="7" cy="7" r="7"></circle>
                            <circle id="Indicator" fill="#F2F2F2" cx="7" cy="7" r="3"></circle>
                        </g>
                    </g>
                    <g id="Row" transform="translate(0.000000, 55.000000)">
                        <rect id="Container" fill="#FFFFFF" x="0" y="0" width="225" height="39" rx="4"></rect>
                        <g id="Text-Stuff" transform="translate(9.000000, 11.700000)" fill="#DDE3E9">
                            <rect id="Label" x="0" y="0" width="167" height="5.85" rx="2.925"></rect>
                            <rect id="Label" x="0" y="9.75" width="112.09589" height="5.85" rx="2.925"></rect>
                        </g>
                        <g id="Check" transform="translate(193.954198, 12.500000)">
                            <circle id="Background" fill="#DDE3E9" cx="7" cy="7" r="7"></circle>
                            <circle id="Indicator" fill="#F2F2F2" cx="7" cy="7" r="3"></circle>
                        </g>
                    </g>
                    <g id="Row" transform="translate(0.000000, 102.000000)">
                        <rect id="Container" fill="#FFFFFF" x="0" y="0" width="225" height="39" rx="4"></rect>
                        <g id="Text-Stuff" transform="translate(9.000000, 11.700000)" fill="#DDE3E9">
                            <rect id="Label" x="0" y="0" width="167" height="5.85" rx="2.925"></rect>
                            <rect id="Label" x="0" y="9.75" width="112.09589" height="5.85" rx="2.925"></rect>
                        </g>
                        <g id="Check" transform="translate(193.954198, 12.500000)">
                            <circle id="Background" fill="#DDE3E9" cx="7" cy="7" r="7"></circle>
                            <circle id="Indicator" fill="#AFB9C5" cx="7" cy="7" r="3"></circle>
                        </g>
                    </g>
                    <g id="Row" transform="translate(0.000000, 243.000000)">
                        <rect id="Container" fill="#FFFFFF" x="0" y="0" width="225" height="39" rx="4"></rect>
                        <g id="Text-Stuff" transform="translate(9.000000, 11.700000)" fill="#DDE3E9">
                            <rect id="Label" x="0" y="0" width="167" height="5.85" rx="2.925"></rect>
                            <rect id="Label" x="0" y="9.75" width="112.09589" height="5.85" rx="2.925"></rect>
                        </g>
                        <g id="Check" transform="translate(193.954198, 12.500000)">
                            <circle id="Background" fill="#DDE3E9" cx="7" cy="7" r="7"></circle>
                            <circle id="Indicator" fill="#F2F2F2" cx="7" cy="7" r="3"></circle>
                        </g>
                    </g>
                    <g id="Row" transform="translate(0.000000, 196.000000)">
                        <rect id="Container" fill="#FFFFFF" x="0" y="0" width="225" height="39" rx="4"></rect>
                        <g id="Text-Stuff" transform="translate(9.000000, 11.700000)" fill="#DDE3E9">
                            <rect id="Label" x="0" y="0" width="167" height="5.85" rx="2.925"></rect>
                            <rect id="Label" x="0" y="9.75" width="112.09589" height="5.85" rx="2.925"></rect>
                        </g>
                        <g id="Check" transform="translate(193.954198, 12.500000)">
                            <circle id="Background" fill="#DDE3E9" cx="7" cy="7" r="7"></circle>
                            <circle id="Indicator" fill="#F2F2F2" cx="7" cy="7" r="3"></circle>
                        </g>
                    </g>
                    <g id="Row" transform="translate(0.000000, 149.000000)">
                        <rect id="Container" fill="#FFFFFF" x="0" y="0" width="225" height="39" rx="4"></rect>
                        <g id="Text-Stuff" transform="translate(9.000000, 11.700000)" fill="#DDE3E9">
                            <rect id="Label" x="0" y="0" width="167" height="5.85" rx="2.925"></rect>
                            <rect id="Label" x="0" y="9.75" width="112.09589" height="5.85" rx="2.925"></rect>
                        </g>
                        <g id="Check" transform="translate(193.954198, 12.500000)">
                            <circle id="Background" fill="#DDE3E9" cx="7" cy="7" r="7"></circle>
                            <circle id="Indicator" fill="#F2F2F2" cx="7" cy="7" r="3"></circle>
                        </g>
                    </g>
                </g>
            </g>
            <path d="M677.850416,259.352013 C673.906099,256.677368 668.660918,255.976471 663.940808,255.976471 C645.504946,255.976471 628.176092,262.816519 613.206001,273.008339 C605.003135,278.592824 597.665051,285.704443 591.186578,293.108883 C587.447194,297.383058 584.112875,302.006961 581.752267,307.149514 C580.159327,310.620502 579.065981,314.237001 578.324898,317.967315 C577.421715,322.51342 576.704264,327.15173 576.379694,331.773472 C576.251934,333.593427 575.194405,343.25075 578.2204,343.414269 C578.203046,343.652344 578.198984,343.879253 578.217446,344.08275 C571.647031,354.35633 567.587507,366.396559 563.823014,377.811887 C560.547776,387.745463 557.629232,397.762959 555.734616,408.03942 C553.240339,421.568964 551.601981,435.302007 550.822866,449.026045 C550.655596,451.975503 550.54076,454.926402 550.441801,457.879822 C550.357982,460.398873 550.273054,462.917924 550.190343,465.436975 C550.09803,468.260013 549.601021,471.510215 550.050028,474.316685 C550.440693,476.76082 552.556121,476.390922 552.649541,473.958672 C552.762531,471.02146 552.744068,468.078485 552.872567,465.139112 C553.043529,461.238077 553.219661,457.337041 553.410563,453.437086 C554.73949,426.345221 559.725089,399.651707 568.926035,374.060683 C572.649541,363.704624 576.916213,353.901071 582.399929,344.321185 C587.221213,335.898175 593.020637,327.743855 598.94856,320.149244 C604.710321,312.768935 610.700647,305.559349 617.760318,299.306383 C623.489215,294.232263 629.790818,289.811858 636.268552,285.69868 C644.496158,280.474729 652.707885,275.377558 661.620078,271.36739 C666.252676,269.283068 670.972785,267.417011 675.641569,265.416969 C676.48161,265.057156 677.382209,264.708149 678.190125,264.291428 C680.885274,262.90152 679.997968,260.808194 677.850416,259.352013" id="Fill-1" fill="#C1DEE2"></path>
            <path d="M618.11193,352.282353 C610.63464,352.282353 603.98102,353.253939 597.091519,356.225469 C591.144496,358.790076 585.724816,362.185188 580.462852,365.881498 C573.061294,371.080062 567.231343,377.130548 563.150516,385.147323 C560.712511,389.936583 558.924131,396.713549 560.561395,401.937269 C562.490121,408.089741 567.785782,413.220993 574.760394,412.136883 C579.07328,411.467175 583.026961,408.612249 586.304963,405.925259 C590.226336,402.710662 593.36538,398.845395 595.957281,394.552467 C600.185402,387.549772 602.669958,379.633283 606.261656,372.315792 C607.965966,368.84283 609.612957,365.345052 611.654239,362.044447 C612.664806,360.409953 613.740682,358.791096 615.273728,357.576443 C616.093923,356.926793 619.552222,355.802228 618.229696,354.343149 C637.620139,354.597774 654.798034,369.489761 658.520351,387.92304 C658.86705,389.641163 659.138016,391.373225 659.424268,393.101886 C659.604913,394.193476 659.53196,398.218861 660.507787,398.916105 C662.659888,400.454393 661.755276,395.781397 661.66287,395.10863 C661.424211,393.36977 661.169571,391.632269 660.902426,389.897828 C659.448933,380.463788 655.24895,371.693677 648.24481,364.965665 C640.235314,357.272185 629.428609,352.282353 618.11193,352.282353" id="Fill-20" fill="#89C5CC" transform="translate(610.929730, 382.282353) scale(-1, 1) translate(-610.929730, -382.282353) "></path>
            <g id="Plant" stroke-width="1" transform="translate(65.000000, 269.000000)">
                <path d="M9.93785602,35.7363701 C28.6043474,67.0518486 50.3448762,97.3738414 63.400835,131.612719 C62.8747124,127.576998 62.316848,123.545457 61.6924335,119.519653 C58.3796628,98.1788894 54.2624276,76.9938487 49.9359142,55.8347788 C47.7325965,45.061608 45.4023236,34.3274793 43.0122847,23.5942683 C41.7268475,17.8294571 40.457171,12.0611334 39.145247,6.30181171 C38.8274703,4.90590411 38.5544351,2.4694293 38.1565942,0 C50.8449133,41.636678 63.0807311,83.3047517 72.0307975,125.94239 C73.204927,131.538126 74.2047864,137.123918 75.0238081,142.699993 C75.3039851,141.427955 75.5795646,140.155702 75.8811982,138.88715 C79.5025613,123.679846 84.9347228,108.59358 91.4026624,94.3744557 C94.494721,87.5745292 98.0463864,80.9235176 102.228151,74.7261293 C104.835821,70.8630236 110.985519,66.2708832 113.364361,62.3144999 C100.354578,86.1759773 95.6569872,116.031633 88.1451337,141.973334 C86.3116359,148.30385 84.4667482,154.62409 82.659084,160.955464 C93.9872772,138.237255 111.563216,119.571486 136,111.482566 C106.420215,131.026943 88.6779699,165.254031 76.7221336,200.259757 C76.682738,200.674905 76.6358989,201.090058 76.5954089,201.505863 C80.1135643,194.828835 84.5452103,188.789483 90.5514934,184.559607 C103.406592,175.504479 117.667098,178.142392 130.137007,185.909854 C120.350227,179.688703 102.662664,185.353659 94.4280037,191.676694 C88.5328799,196.203004 83.4948291,202.275393 79.119821,208.199601 C78.071517,209.619676 76.6413193,211.276578 75.1303997,213.044484 C73.0120284,226.795282 69.5599117,240.451838 64.6724606,254 C65.4790179,250.11126 64.8958605,243.891877 65.11953,240.993318 C65.1438759,240.679499 65.1636243,240.365464 65.1877517,240.052521 C64.4448288,243.018848 63.7270637,245.951459 63.0359813,248.836783 C64.4097546,243.330925 65.1563919,237.583268 65.7392402,231.776207 C65.8893549,229.280566 66.0357479,226.784927 66.1904602,224.289502 C66.141426,219.553405 65.9463583,214.798592 65.6164284,210.036217 C64.4465561,205.407706 63.1367171,201.041891 62.0564998,197.41118 C58.158506,184.310429 52.4441742,171.759576 45.4108456,160.050843 C38.9937018,149.366014 31.3123836,139.687606 22.4447835,130.934599 C17.6643455,126.217405 12.6613846,121.724669 7.7288832,117.169517 C5.94526254,115.52278 2.75721952,111.473853 0,109.363232 C20.0804874,120.433766 40.7488532,132.410494 55.3976085,150.247606 C53.6802099,143.652644 51.8148695,137.151008 49.841671,130.779652 C39.8311473,98.4544622 27.1913357,64.9525261 9.93785602,35.7363701 Z" id="Fill-19" fill="#DDE3E9"></path>
                <path d="M30,213 C30,248.898509 32.8428117,278 71,278 C109.157188,278 112,248.898509 112,213" id="Base" fill="#C5CFD6"></path>
            </g>
            <g id="Graph" stroke-width="1" transform="translate(511.064865, 44.423529)">
                <rect id="Value" fill="#DDE3E9" x="0" y="32" width="6" height="25" rx="3"></rect>
                <rect id="Value" fill="#DDE3E9" x="14" y="16" width="6" height="41" rx="3"></rect>
                <rect id="Value" fill="#DDE3E9" x="28" y="8" width="6" height="49" rx="3"></rect>
                <rect id="Value" fill="#DDE3E9" x="42" y="16" width="6" height="41" rx="3"></rect>
                <rect id="Value" fill="#C5CFD6" x="56" y="0" width="6" height="57" rx="3"></rect>
            </g>
            <g id="Pie-Chart" stroke-width="1" transform="translate(47.221622, 324.305882) scale(-1, 1) translate(-47.221622, -324.305882) translate(27.221622, 304.305882)">
                <path d="M40,20.256388 C40,9.11740024 30.998,0 20,0 L20,20.256388 L33.668,35 C37.556,31.3953758 40,26.1074457 40,20.256388 Z" id="Value" fill="#F2F2F2"></path>
                <path d="M20.5292199,20 L0.332,20 C0.332,25.221 2.46179684,30.113 5.8286734,33.668 C9.53183367,37.556 14.8053278,40 20.5292199,40 C25.8017042,40 30.6278299,37.891 34.332,34.557 L20.5292199,20 Z" id="Value" fill="#AFB9C5"></path>
                <path d="M0,20 C0,9.002 9.002,0 20,0 L20,20 L0,20 Z M30,0 L22,18 L40,10 C38.22,5.334 34.223,1.78 30,0 Z" id="Value" fill="#C5CFD6"></path>
            </g>
            <g id="Chart" stroke-width="1" transform="translate(630.118919, 296.117647)">
                <path d="M37.7664728,37.179 C35.8448939,39.219 33.1227826,40.5 30.095205,40.5 C24.2778019,40.5 19.5618833,35.799 19.5618833,30 C19.5618833,24.201 24.2778019,19.5 30.095205,19.5 L30.095205,0 C13.5458518,0 0,13.503 0,30 C0,46.497 13.5458518,60 30.095205,60 C38.788205,60 46.6445583,56.334 52,50.502 L37.7664728,37.179 Z" id="Value" fill="#F2F2F2"></path>
                <path d="M30,0 L30,19.5 C35.799,19.5 40.5,24.201 40.5,30 L60,30 C60,13.503 46.497,0 30,0 Z" id="Value" fill="#AFB9C5"></path>
                <path d="M40.0969635,30 C40.0969635,33.4069834 38.4924726,36.4354131 36,38.3907651 L48.2618015,54 C55.3993366,48.4117535 60,39.7492845 60,30 L40.0969635,30 Z" id="Value" fill="#C5CFD6"></path>
            </g>
            <g id="Chart" stroke-width="1" transform="translate(451.183784, 54.905882)">
                <path d="M29.0511329,28.5039 C27.5729953,30.0679 25.4790636,31.05 23.1501577,31.05 C18.6752322,31.05 15.0476025,27.4459 15.0476025,23 C15.0476025,18.5541 18.6752322,14.95 23.1501577,14.95 L23.1501577,0 C10.419886,0 0,10.3523 0,23 C0,35.6477 10.419886,46 23.1501577,46 C29.8370808,46 35.8804294,43.1894 40,38.7182 L29.0511329,28.5039 Z" id="Value" fill="#F2F2F2"></path>
                <path d="M23,0 L23,14.95 C27.4459,14.95 31.05,18.5541 31.05,23 L46,23 C46,10.3523 35.6477,0 23,0 Z" id="Value" fill="#AFB9C5"></path>
                <path d="M31.0727226,23 C31.0727226,25.5552376 29.8693544,27.8265598 28,29.2930738 L37.1963511,41 C42.5495024,36.8088151 46,30.3119634 46,23 L31.0727226,23 Z" id="Value" fill="#C5CFD6"></path>
            </g>
            <g id="Image" stroke-width="1" transform="translate(73.997297, 48.670588)">
                <path d="M48.007,51.9862978 C48.003,51.9962978 47.999,52.0062978 47.993,52.0182978 C47.999,52.0082978 48.007,51.9682978 48.007,51.9862978" id="Fill-35" fill="#C5CFD6"></path>
                <path d="M47.9976864,52.0014952 C47.9976864,52.0034952 47.9956864,52.0074952 47.9956864,52.0114952 C47.9956864,52.0014952 48.0136864,51.9714952 47.9976864,52.0014952" id="Fill-37" fill="#C5CFD6"></path>
                <path d="M48.0671431,51.8323017 C48.0531431,51.8723017 48.0351431,51.9103017 48.0191431,51.9503017 C48.0271431,51.9303017 48.0351431,51.9143017 48.0431431,51.8943017 C47.8351431,52.4143017 47.9671431,52.0763017 48.0671431,51.8323017" id="Fill-39" fill="#C5CFD6"></path>
                <path d="M48.0223751,51.95275 C48.0143751,51.97075 48.0063751,51.99075 47.9983751,52.00875 C47.9403751,52.12075 48.0223751,51.95275 48.0223751,51.95275" id="Fill-41" fill="#C5CFD6"></path>
                <polygon id="Fill-43" fill="#C5CFD6" points="48 52.001 48 52.001 48 51.999"></polygon>
                <path d="M47.999,52.002 C47.999,52 47.999,52 48.001,51.998 C47.999,52 47.999,52 47.999,52.002" id="Fill-45" fill="#C5CFD6"></path>
                <path d="M47.9895117,52.0163509 C47.9775117,52.0403509 48.0455117,51.9243509 47.9895117,52.0163509" id="Fill-47" fill="#C5CFD6"></path>
                <path d="M47.998,52.002 L48.002,51.998 C48,52 48,52.002 47.998,52.002" id="Fill-49" fill="#C5CFD6"></path>
                <rect id="Photo-Background" fill="#DDE3E9" x="0" y="0" width="95" height="63" rx="4"></rect>
                <g id="icons8-night_landscape" transform="translate(8.000000, 18.000000)">
                    <polygon id="Mountains" fill="#AFB9C5" points="28 0 0 45 56 45"></polygon>
                    <polygon id="Mountains" fill="#C5CFD6" points="55.5 12 31 45 80 45"></polygon>
                </g>
                <circle id="Sun" fill="#FFFFFF" cx="74" cy="21" r="9"></circle>
            </g>
            <g id="Image" stroke-width="1" transform="translate(591.254054, 458.376471) scale(-1, 1) translate(-591.254054, -458.376471) translate(520.254054, 411.376471)">
                <path d="M71.007,76.9862978 C71.003,76.9962978 70.999,77.0062978 70.993,77.0182978 C70.999,77.0082978 71.007,76.9682978 71.007,76.9862978" id="Fill-35" fill="#C5CFD6"></path>
                <path d="M70.9976864,77.0014952 C70.9976864,77.0034952 70.9956864,77.0074952 70.9956864,77.0114952 C70.9956864,77.0014952 71.0136864,76.9714952 70.9976864,77.0014952" id="Fill-37" fill="#C5CFD6"></path>
                <path d="M71.0671431,76.8323017 C71.0531431,76.8723017 71.0351431,76.9103017 71.0191431,76.9503017 C71.0271431,76.9303017 71.0351431,76.9143017 71.0431431,76.8943017 C70.8351431,77.4143017 70.9671431,77.0763017 71.0671431,76.8323017" id="Fill-39" fill="#C5CFD6"></path>
                <path d="M71.0223751,76.95275 C71.0143751,76.97075 71.0063751,76.99075 70.9983751,77.00875 C70.9403751,77.12075 71.0223751,76.95275 71.0223751,76.95275" id="Fill-41" fill="#C5CFD6"></path>
                <polygon id="Fill-43" fill="#C5CFD6" points="71 77.001 71 77.001 71 76.999"></polygon>
                <path d="M70.999,77.002 C70.999,77 70.999,77 71.001,76.998 C70.999,77 70.999,77 70.999,77.002" id="Fill-45" fill="#C5CFD6"></path>
                <path d="M70.9895117,77.0163509 C70.9775117,77.0403509 71.0455117,76.9243509 70.9895117,77.0163509" id="Fill-47" fill="#C5CFD6"></path>
                <path d="M70.998,77.002 L71.002,76.998 C71,77 71,77.002 70.998,77.002" id="Fill-49" fill="#C5CFD6"></path>
                <rect id="Photo-Background" fill="#DDE3E9" x="0" y="0" width="142" height="94" rx="4"></rect>
                <g id="icons8-night_landscape" transform="translate(11.000000, 27.000000)">
                    <polygon id="Mountains" fill="#AFB9C5" points="41.7257937 0 0.670793651 67 82.7807937 67"></polygon>
                    <polygon id="Mountains" fill="#C5CFD6" points="84.0557937 17.9464286 47.7607937 67 120.350794 67"></polygon>
                </g>
                <circle id="Sun" fill="#FFFFFF" cx="110.5" cy="31.5" r="13.5"></circle>
            </g>
        </g>
        <g id="Group-2" transform="translate(66.000000, 4.000000)">
            <g id="Group" transform="translate(0.000000, 47.000000)">
                <g id="Head/Front/Afro" transform="translate(83.126667, 0.000000)">
                    <path d="M68.625,87.4202161 C81.4825551,87.4202161 86.1586846,72.0270943 93.463446,63.5797668 C98.6898531,57.5358772 107.609714,59.3380622 110.25,50.8767483 C116.889235,29.6000142 99.1193722,14.625 75.9375,14.625 C52.7556278,14.625 37.125,27.758534 33.75,47.5017483 C30.375,67.2449625 45.4431278,87.4202161 68.625,87.4202161 Z" id="Hair-Back" fill="#191847"></path>
                    <g id="Head" stroke-width="1" transform="translate(60.750000, 34.875000)" fill="#B28B67">
                        <path d="M9.29505812,38.8013926 C4.11115989,32.7165479 0.602589143,25.2594868 1.18887338,16.9036356 C2.8781215,-7.17189815 36.392097,-1.87558746 42.9112591,10.2756745 C49.4304211,22.4269365 48.6557752,53.2496203 40.2303391,55.4213898 C36.8702868,56.2874884 29.7123763,54.1658936 22.4272935,49.7748443 L27,82.125 L0,82.125 L9.29505812,38.8013926 Z"></path>
                    </g>
                    <path d="M81.4272402,58.1887884 C80.4462455,57.6697839 79.3221976,57.375 78.1275019,57.375 C74.3022663,57.375 71.2013001,60.3970779 71.2013001,64.125 C71.2013001,65.6465502 71.7178781,67.0505165 72.5894377,68.1794134 C70.9483388,70.8844313 69.8282811,73.7265166 69.4611436,76.6482442 C63.7729144,76.6482442 43.0127778,55.125 63.6938889,34.875 C84.375,14.625 114.261766,43.5329548 105.281056,45.2188426 C100.117607,46.1881418 89.7185789,51.1176469 81.427243,58.1887863 Z" id="Hair" fill="#191847"></path>
                </g>
                <g id="Bottom/Sitting/Sweat-Pants" transform="translate(0.000000, 211.334895)">
                    <g id="Objects/Seat/Ball" transform="translate(11.233333, 47.271967)" fill="#89C5CC">
                        <ellipse id="Ballsy-Ball" cx="130.5" cy="66.0483871" rx="86.625" ry="82.983871"></ellipse>
                    </g>
                    <path d="M304.995394,183.077403 C290.602366,151.15948 280.193473,123.366643 276.015382,108.703076 C268.861476,83.5954899 263.419214,61.5022802 262.043704,53.2516189 C258.763624,33.5768588 287.275959,32.4311582 291.044691,42.2091712 C296.748816,57.0085821 306.706928,105.633271 318.672359,179.079053 L304.995394,183.077403 Z M138.044576,82.9100111 C151.250164,77.6800269 197.49543,61.3127313 219.799522,56.6827228 C226.208823,55.3522441 232.420906,54.1160793 238.261354,52.99893 C255.62123,49.6783669 264.615275,81.0572728 247.895597,83.4682865 C206.256989,89.4726634 147.22723,95.6731583 142.175573,96.3689957 C135.09546,97.3442416 129.745275,86.1968931 138.044576,82.9100111 Z" id="Skin" fill="#B28B67"></path>
                    <path d="M248.916199,44.3639048 L177.486667,7.93124261 L177.486667,0 L185.981522,0 C255.086394,17.6433861 290.398928,28.9503311 291.919123,33.920835 C291.935478,33.9743118 291.950474,34.0278586 291.96411,34.0814756 C291.998887,34.1272108 292.033075,34.1732226 292.066667,34.2195106 C305.761792,53.0909495 313.963747,145.222819 316.655777,152.121341 L290.412817,156.04406 C280.374188,118.746387 248.256667,92.763469 249.109824,48.0924847 C248.879453,46.7821115 248.821244,45.5394453 248.916199,44.3639048 Z" id="Leg-Back" fill="#1F28CF"></path>
                    <path d="M183.421432,66.0012054 C176.885795,64.6903632 170.867176,63.5204566 165.717172,62.615388 C132.451435,56.7692234 122.750864,38.9276207 128.48636,5.99813869e-14 L189.777913,-4.97379915e-14 C199.789993,2.88169691 251.822168,24.7444407 278.818772,36.372781 C296.686508,44.0690124 291.054016,71.8134108 280.935508,79.0336428 C280.880562,79.4765901 280.698462,79.7774714 280.374188,79.9121339 C225.943747,102.515622 182.884273,90.6556293 168.5,94.4450754 L161.846631,73.4160837 L183.421432,66.0012054 Z" id="Leg-Front" fill="#2B44FF"></path>
                    <g id="Accessories/Shoe/Flat-Sneaker" transform="translate(161.714274, 105.047112) rotate(64.000000) translate(-161.714274, -105.047112) translate(127.452607, 82.536651)" fill="#E4E4E4">
                        <path d="M3.1313891,28.3080469 C1.79789473,31.8030161 1.13114754,34.406627 1.13114754,36.1188797 C1.13114754,38.1475767 1.47096033,41.1079501 2.15058591,45 C4.51687706,45 25.7831341,45 65.9493571,45 C67.607261,39.5488207 66.6502227,36.6059043 63.0782422,36.171251 C59.5062618,35.7365978 56.5389569,35.3441406 54.1763277,34.9938797 L24.3971822,21.7903387 C23.8922992,21.5664825 23.3015394,21.7942999 23.0776833,22.2991829 C23.074387,22.3066173 23.0711815,22.3140916 23.0680676,22.3216042 L21.1108476,27.0435319 C17.8041279,28.5779837 15.1170749,29.3452096 13.0496885,29.3452096 C11.3229394,29.3452096 8.91985705,28.6321945 5.84044141,27.2061645 L5.84044935,27.2061474 C4.8381261,26.7419869 3.64930615,27.178254 3.18514567,28.1805773 C3.16576222,28.2224345 3.14783264,28.2649498 3.1313891,28.3080469 Z" id="shoe"></path>
                    </g>
                    <g id="Accessories/Shoe/Flat-Sneaker" transform="translate(295.436667, 148.569038)" fill="#E4E4E4">
                        <path d="M3.1313891,28.3080469 C1.79789473,31.8030161 1.13114754,34.406627 1.13114754,36.1188797 C1.13114754,38.1475767 1.47096033,41.1079501 2.15058591,45 C4.51687706,45 25.7831341,45 65.9493571,45 C67.607261,39.5488207 66.6502227,36.6059043 63.0782422,36.171251 C59.5062618,35.7365978 56.5389569,35.3441406 54.1763277,34.9938797 L24.3971822,21.7903387 C23.8922992,21.5664825 23.3015394,21.7942999 23.0776833,22.2991829 C23.074387,22.3066173 23.0711815,22.3140916 23.0680676,22.3216042 L21.1108476,27.0435319 C17.8041279,28.5779837 15.1170749,29.3452096 13.0496885,29.3452096 C11.3229394,29.3452096 8.91985705,28.6321945 5.84044141,27.2061645 L5.84044935,27.2061474 C4.8381261,26.7419869 3.64930615,27.178254 3.18514567,28.1805773 C3.16576222,28.2224345 3.14783264,28.2649498 3.1313891,28.3080469 Z" id="shoe"></path>
                    </g>
                </g>
                <g id="Body/Pregnant" transform="translate(22.466667, 92.177986)">
                    <path d="M124.979894,2.56821401 C125.242536,1.71458366 125.509199,0.858519096 125.779759,9.9475983e-14 L126.778706,0.469174042 C126.934595,0.308615667 127.091652,0.1521982 127.249885,-8.52651283e-14 L158.739164,4.86030091 C158.739164,22.5371193 172.828941,39.0762177 181.742265,53.3063526 C195.598115,75.427238 220.253232,99.9461973 204.445372,132.809483 C190.20168,162.420987 153.099961,167.229713 93.1402158,147.23566 C93.1402158,131.286454 106.272696,115.252542 106.691196,95.8594388 C107.089591,77.3980558 110.547698,21.4632737 124.979894,2.56821401 Z" id="Shirt" fill="#FF9B21"></path>
                    <path d="M164.095883,124.413457 C166.201736,113.565 167.567853,106.32244 168.194233,102.685777 C184.970204,121.609215 194.661805,131.180686 197.269037,131.400191 C202.17244,131.813013 205.795659,127.472527 206.827324,128.692769 C208.532489,133.746252 203.716379,146.395948 194.510486,148.235294 C190.114487,149.113619 183.311933,140.064488 180.509164,136.858177 C179.406787,135.59708 173.935693,131.44884 164.095883,124.413457 Z M193.073884,66.5737289 C197.422632,66.5737289 199.758575,68.3683783 202.329879,71.9891691 C204.901182,75.6099599 207.33434,92.6864055 203.20605,92.6864055 C199.077759,92.6864055 181.781346,86.0852001 181.781346,81.6473376 C181.781346,77.2094752 193.583413,75.3300815 193.583413,71.9891691 C193.583413,68.6482567 188.725135,66.5737289 193.073884,66.5737289 Z" id="Skin" fill="#B28B67"></path>
                    <path d="M155.316468,140.921932 C155.058137,141.845059 154.794781,142.78552 154.526399,143.743316 C105.255919,109.369027 105.232281,67.7125667 119.885617,21.0208661 C108.840993,66.9876121 113.340545,105.756109 155.316468,140.921932 Z" id="Shade" fill-opacity="0.2" fill="#000000"></path>
                </g>
            </g>
            <g id="Bottom/Standing/Shorts" transform="translate(465.500000, 346.500000) scale(-1, 1) translate(-465.500000, -346.500000) translate(297.000000, 212.000000)">
                <polygon id="Leg" fill="#997659" points="143.786667 9.9475983e-14 186.058641 138.466535 206.53624 256.223405 222.592091 256.223405 200.954194 9.9475983e-14"></polygon>
                <path d="M128.664047,0 C131.535262,76.0255703 128.15623,115.240936 127.513618,122.14819 C126.871005,129.055443 118.07154,173.842446 97.2398755,258.542169 L114.348585,252.654816 C147.271089,174.972635 158.489905,134.599834 162.265867,124.399236 C166.041829,114.198637 176.070596,72.7322255 192.352169,0 L128.664047,0 Z" id="Leg" fill="#B28B67"></path>
                <g id="Accessories/Shoe/Flat-Sneaker" transform="translate(94.360000, 223.979079)" fill="#E4E4E4">
                    <path d="M3.1313891,28.3080469 C1.79789473,31.8030161 1.13114754,34.406627 1.13114754,36.1188797 C1.13114754,38.1475767 1.47096033,41.1079501 2.15058591,45 C4.51687706,45 25.7831341,45 65.9493571,45 C67.607261,39.5488207 66.6502227,36.6059043 63.0782422,36.171251 C59.5062618,35.7365978 56.5389569,35.3441406 54.1763277,34.9938797 L24.3971822,21.7903387 C23.8922992,21.5664825 23.3015394,21.7942999 23.0776833,22.2991829 C23.074387,22.3066173 23.0711815,22.3140916 23.0680676,22.3216042 L21.1108476,27.0435319 C17.8041279,28.5779837 15.1170749,29.3452096 13.0496885,29.3452096 C11.3229394,29.3452096 8.91985705,28.6321945 5.84044141,27.2061645 L5.84044935,27.2061474 C4.8381261,26.7419869 3.64930615,27.178254 3.18514567,28.1805773 C3.16576222,28.2224345 3.14783264,28.2649498 3.1313891,28.3080469 Z" id="shoe"></path>
                </g>
                <g id="Accessories/Shoe/Flat-Sneaker" transform="translate(199.953333, 223.979079)" fill="#E4E4E4">
                    <path d="M3.1313891,28.3080469 C1.79789473,31.8030161 1.13114754,34.406627 1.13114754,36.1188797 C1.13114754,38.1475767 1.47096033,41.1079501 2.15058591,45 C4.51687706,45 25.7831341,45 65.9493571,45 C67.607261,39.5488207 66.6502227,36.6059043 63.0782422,36.171251 C59.5062618,35.7365978 56.5389569,35.3441406 54.1763277,34.9938797 L24.3971822,21.7903387 C23.8922992,21.5664825 23.3015394,21.7942999 23.0776833,22.2991829 C23.074387,22.3066173 23.0711815,22.3140916 23.0680676,22.3216042 L21.1108476,27.0435319 C17.8041279,28.5779837 15.1170749,29.3452096 13.0496885,29.3452096 C11.3229394,29.3452096 8.91985705,28.6321945 5.84044141,27.2061645 L5.84044935,27.2061474 C4.8381261,26.7419869 3.64930615,27.178254 3.18514567,28.1805773 C3.16576222,28.2224345 3.14783264,28.2649498 3.1313891,28.3080469 Z" id="shoe"></path>
                </g>
                <polygon id="Bottom" fill="#69A1AC" points="138.17 0 156.143333 70.5472423 211.04099 70.5472423 202.855526 0"></polygon>
                <path d="M128.06,-3.55271368e-15 C122.146143,17.7613678 121.02281,41.2771152 124.69,70.5472423 L180.71099,70.5472423 L196.115526,-3.55271368e-15 L128.06,-3.55271368e-15 Z" id="Bottom" fill="#89C5CC"></path>
            </g>
            <g id="Body/Turtle-Neck" transform="translate(464.000000, 198.000000) scale(-1, 1) rotate(8.000000) translate(-464.000000, -198.000000) translate(320.000000, 93.000000)">
                <path d="M224.429764,103.832461 L256.298656,134.866444 C265.571329,138.814681 273.168964,143.174332 279.09156,147.945396 C280.423463,149.549113 281.873457,152.621918 275.606918,151.246882 C269.34038,149.871846 262.686971,148.706841 261.509187,150.741133 C260.331402,152.775425 263.80184,155.892682 261.625149,158.555047 C260.174021,160.329956 255.293764,154.684317 246.984378,141.618127 L213.844945,122.114764 L224.429764,103.832461 Z M68.5910159,75.7456338 L93.2255817,75.8379211 C74.4631117,136.517597 64.5033908,168.288513 63.3464191,171.15067 C60.7432326,177.590523 66.2519252,187.398308 68.6076608,192.668939 C60.9351085,196.096057 61.7526271,183.404038 52.0739088,187.898895 C43.2396235,192.001592 36.5194047,199.435405 26.3126646,193.148759 C25.0578059,192.375853 23.6826852,189.465722 27.0051507,187.191608 C35.2826239,181.525962 47.2109642,171.61006 48.8226709,168.346164 C51.0205208,163.895259 57.6099691,133.028415 68.5910159,75.7456338 Z" id="Skin" fill="#B28B67"></path>
                <path d="M138.124453,10.9172112 L147.670283,8.41010709 C167.64942,60.942998 249.299512,90.7995258 255.876491,110.515664 C258.288443,117.746093 253.290643,121.945053 256.237774,123.953808 L244.44667,134.260479 C242.096232,131.962792 237.941813,136.905421 228.157675,134.558297 C218.373536,132.211173 143.704906,74.7020795 138.124453,10.9172112 Z" id="Clothes-Back" fill="#DB2721" transform="translate(197.341229, 71.809088) rotate(5.000000) translate(-197.341229, -71.809088) "></path>
                <path d="M160.020955,13.1667551 C158.895333,84.7653743 200.358244,103.027302 191.12317,131.747762 C183.497356,155.463531 110.505747,180.957882 97.875,157.710832 C92.7622347,148.300722 90.442552,136.91986 90.1793553,124.546404 C86.9512008,134.052472 84.3980892,142.236058 82.5200177,149.097169 C79.2800819,160.933544 66.7195423,162.814989 66.7195423,167.374786 L50.1712087,162.814989 C51.2936432,156.620316 43.4923589,153.603879 45.5840866,139.764438 C54.9562678,77.7555329 80.1376518,32.8072489 121.128238,4.91958636 L121.587514,-1.62468235 C121.741862,-3.82803392 123.652876,-5.48925279 125.856266,-5.33545141 L125.856335,-5.33644233 L157.154907,-3.15272973 C159.358684,-2.99890134 161.020496,-1.08768476 160.866667,1.11609199 C160.866644,1.11642226 160.866621,1.11675252 160.866598,1.11708278 L160.020955,13.1667551 Z" id="Clothes-Front" fill="#FF4133"></path>
            </g>
        </g>
    </g>
</svg>