<?xml version="1.0" encoding="UTF-8"?>
<svg width="529px" height="199px" viewBox="0 0 529 199" version="1.1" xmlns="http://www.w3.org/2000/svg" xmlns:xlink="http://www.w3.org/1999/xlink">
    <!-- Generator: Sketch 52.5 (67469) - http://www.bohemiancoding.com/sketch -->
    <title>Embodimenmt</title>
    <desc>Created with Sketch.</desc>
    <g id="Embodimenmt" stroke="none" stroke-width="1" fill="none" fill-rule="evenodd">
        <g id="Scene/Home" transform="translate(-121.000000, -11.000000)">
            <g id="Background-Shape-2" opacity="0.6" transform="translate(0.000000, 165.000000)" fill="#DDE3E9">
                <path d="M729.022375,170.224536 C739.65376,246.307665 481.824559,295.934087 259.904988,261.301004 C37.9854174,226.667921 -63.8207594,91.4218243 42.0755599,19.3573876 C147.971879,-52.7070491 718.390989,94.1414063 729.022375,170.224536 Z" id="Background-Shape"></path>
            </g>
            <g id="Mobile3" transform="translate(141.000000, 0.000000)">
                <rect id="Container" fill="#FF9B21" x="0" y="0" width="159" height="302" rx="8"></rect>
                <g id="Camera" transform="translate(64.000000, 16.000000)" fill="#FFFFFF">
                    <circle id="Lens" cx="2" cy="2" r="2"></circle>
                    <rect id="Sensor" x="9" y="0" width="21" height="4" rx="2"></rect>
                </g>
                <g id="Rows" transform="translate(14.000000, 28.000000)">
                    <g id="Row">
                        <rect id="Background" fill="#FFFFFF" x="0" y="0" width="131" height="54" rx="4"></rect>
                        <g id="Text" transform="translate(39.000000, 16.200000)" fill="#DDE3E9">
                            <rect id="Name" x="0" y="0" width="73" height="8.1" rx="3"></rect>
                            <rect id="Name" x="0" y="13.5" width="49" height="8.1" rx="3"></rect>
                        </g>
                        <circle id="Avatar" fill="#C5CFD6" cx="21" cy="27" r="12"></circle>
                    </g>
                    <g id="Row" transform="translate(0.000000, 62.000000)">
                        <rect id="Background" fill="#FFFFFF" x="0" y="0" width="131" height="42" rx="4"></rect>
                        <g id="Text" transform="translate(39.000000, 12.600000)" fill="#DDE3E9">
                            <rect id="Name" x="0" y="0" width="73" height="6.3" rx="3"></rect>
                            <rect id="Name" x="0" y="10.5" width="49" height="6.3" rx="3"></rect>
                        </g>
                        <circle id="Avatar" fill="#C5CFD6" cx="21" cy="21" r="12"></circle>
                    </g>
                    <g id="Row" transform="translate(0.000000, 112.000000)">
                        <rect id="Background" fill="#FFFFFF" x="0" y="0" width="131" height="42" rx="4"></rect>
                        <g id="Text" transform="translate(39.000000, 12.600000)" fill="#DDE3E9">
                            <rect id="Name" x="0" y="0" width="73" height="6.3" rx="3"></rect>
                            <rect id="Name" x="0" y="10.5" width="49" height="6.3" rx="3"></rect>
                        </g>
                        <circle id="Avatar" fill="#AFB9C5" cx="21" cy="21" r="12"></circle>
                    </g>
                    <g id="Row" transform="translate(0.000000, 162.000000)">
                        <rect id="Background" fill="#FFFFFF" x="0" y="0" width="131" height="42" rx="4"></rect>
                        <g id="Text" transform="translate(39.000000, 12.600000)" fill="#DDE3E9">
                            <rect id="Name" x="0" y="0" width="73" height="6.3" rx="3"></rect>
                        </g>
                        <circle id="Avatar" fill="#C5CFD6" cx="21" cy="21" r="12"></circle>
                    </g>
                </g>
            </g>
            <g id="Web" transform="translate(287.000000, 31.000000)">
                <rect id="Container" fill="#F2F2F2" x="0" y="0" width="335" height="346" rx="8"></rect>
                <rect id="Background" fill="#FFFFFF" x="249" y="43" width="70" height="81" rx="8"></rect>
                <g id="Profile-Info" transform="translate(259.000000, 58.000000)" fill="#DDE3E9">
                    <circle id="Avatar" cx="25" cy="16" r="16"></circle>
                    <rect id="Name" x="0" y="36" width="50" height="6" rx="3"></rect>
                    <rect id="Name" x="8" y="46" width="34" height="6" rx="3"></rect>
                </g>
                <path d="M8,0 L327,0 C331.418278,-8.11624501e-16 335,3.581722 335,8 L335,27 L0,27 L0,8 C-5.41083001e-16,3.581722 3.581722,8.11624501e-16 8,0 Z" id="Header" fill="#C5CFD6"></path>
                <g id="Buttons" transform="translate(9.000000, 10.000000)" fill="#F2F2F2">
                    <circle id="buttons" cx="4" cy="4" r="4"></circle>
                    <circle id="buttons" cx="16" cy="4" r="4"></circle>
                    <circle id="buttons" cx="28" cy="4" r="4"></circle>
                </g>
                <g id="Components" transform="translate(249.000000, 132.000000)">
                    <rect id="Background" fill="#FFFFFF" x="0" y="0" width="70" height="194" rx="8"></rect>
                    <g id="Rows" transform="translate(18.000000, 18.000000)" fill="#DDE3E9">
                        <rect id="Data" x="0" y="0" width="34" height="26" rx="4"></rect>
                    </g>
                </g>
                <g id="Rows" transform="translate(16.000000, 44.000000)">
                    <g id="Row">
                        <rect id="Container" stroke="#979797" fill="#FFFFFF" x="0.5" y="0.5" width="224" height="46" rx="4"></rect>
                        <g id="Text-Stuff" transform="translate(9.000000, 14.100000)" fill="#DDE3E9">
                            <rect id="Label" x="0" y="0" width="167" height="7.05" rx="3"></rect>
                            <rect id="Label" x="0" y="11.75" width="112.09589" height="7.05" rx="3"></rect>
                        </g>
                        <g id="Check" transform="translate(193.954198, 16.500000)">
                            <circle id="Background" fill="#DDE3E9" cx="7" cy="7" r="7"></circle>
                            <circle id="Indicator" fill="#F2F2F2" cx="7" cy="7" r="3"></circle>
                        </g>
                    </g>
                    <g id="Row" transform="translate(0.000000, 55.000000)">
                        <rect id="Container" fill="#FFFFFF" x="0" y="0" width="225" height="39" rx="4"></rect>
                        <g id="Text-Stuff" transform="translate(9.000000, 11.700000)" fill="#DDE3E9">
                            <rect id="Label" x="0" y="0" width="167" height="5.85" rx="2.925"></rect>
                            <rect id="Label" x="0" y="9.75" width="112.09589" height="5.85" rx="2.925"></rect>
                        </g>
                        <g id="Check" transform="translate(193.954198, 12.500000)">
                            <circle id="Background" fill="#DDE3E9" cx="7" cy="7" r="7"></circle>
                            <circle id="Indicator" fill="#F2F2F2" cx="7" cy="7" r="3"></circle>
                        </g>
                    </g>
                    <g id="Row" transform="translate(0.000000, 102.000000)">
                        <rect id="Container" fill="#FFFFFF" x="0" y="0" width="225" height="39" rx="4"></rect>
                        <g id="Text-Stuff" transform="translate(9.000000, 11.700000)" fill="#DDE3E9">
                            <rect id="Label" x="0" y="0" width="167" height="5.85" rx="2.925"></rect>
                            <rect id="Label" x="0" y="9.75" width="112.09589" height="5.85" rx="2.925"></rect>
                        </g>
                        <g id="Check" transform="translate(193.954198, 12.500000)">
                            <circle id="Background" fill="#DDE3E9" cx="7" cy="7" r="7"></circle>
                            <circle id="Indicator" fill="#AFB9C5" cx="7" cy="7" r="3"></circle>
                        </g>
                    </g>
                </g>
            </g>
            <g id="Pie-Chart" transform="translate(233.000000, 224.000000) scale(-1, 1) translate(-233.000000, -224.000000) translate(213.000000, 204.000000)">
                <path d="M40,20.256388 C40,9.11740024 30.998,0 20,0 L20,20.256388 L33.668,35 C37.556,31.3953758 40,26.1074457 40,20.256388 Z" id="Value" fill="#F2F2F2"></path>
                <path d="M0,20 C0,9.002 9.002,0 20,0 L20,20 L0,20 Z M30,0 L22,18 L40,10 C38.22,5.334 34.223,1.78 30,0 Z" id="Value" fill="#C5CFD6"></path>
            </g>
        </g>
        <g id="Group-3" transform="translate(238.000000, 185.500000) scale(-1, 1) translate(-238.000000, -185.500000) translate(-12.000000, -8.000000)">
            <g id="Humaaan" transform="translate(366.500000, 194.000000) scale(-1, 1) translate(-366.500000, -194.000000) translate(233.000000, 2.000000)">
                <g id="Head/Front/Chongo" transform="translate(114.043637, 54.620196) rotate(-8.000000) translate(-114.043637, -54.620196) translate(53.523637, 8.479350)">
                    <g id="Head" stroke-width="1" transform="translate(48.044118, 27.423077)" fill="#B28B67">
                        <path d="M7.35099367,30.5104968 C3.25130946,25.7258325 0.476557427,19.8621605 0.940220121,13.2917477 C2.27616145,-5.63944128 28.780678,-1.47482091 33.9363552,8.08001758 C39.0920324,17.6348561 38.4794039,41.8714963 31.8161505,43.5792125 C29.1588542,44.2602473 23.4980231,42.5919847 17.7366177,39.1391938 L21.3529412,64.5769231 L0,64.5769231 L7.35099367,30.5104968 Z"></path>
                    </g>
                    <path d="M73.5461978,25.0965175 C70.6284593,24.2119021 66.3929282,23.9119007 64.6111662,24.1148491 C65.6247136,21.7003619 66.0269041,19.0103327 65.6990218,16.3911143 C65.3803343,13.8460584 64.2365602,11.6790172 63.1787412,9.40821973 C62.6911405,8.36153073 62.1385627,7.32054654 61.3147021,6.51994854 C60.4754486,5.70430412 59.4130661,5.16591319 58.2990562,4.90905437 C57.1590282,4.6461342 55.966964,4.66802638 54.8251651,4.90662983 C54.3200601,5.01216871 53.8668551,5.24178709 53.3714898,5.36943209 C52.8642053,5.50021474 52.6181232,5.18452512 52.2499196,4.86726668 C51.3625804,4.10282288 50.0617442,3.72545006 48.9391524,3.59038882 C47.6796592,3.43892626 46.3727612,3.6278266 45.1715703,4.03949955 C44.0023911,4.44026206 42.8791863,5.09103763 42.033871,6.03910483 C41.6574942,6.46111774 41.3158536,6.94146228 41.0938144,7.47179516 C41.0027511,7.68943346 40.9876988,7.81836204 40.7692695,7.89808668 C40.5672547,7.97189259 40.3309805,7.97403189 40.1224953,8.04427229 C38.1065705,8.72314403 36.3829746,10.2718558 35.4444846,12.2603367 C34.8969469,13.4204087 34.6375834,15.4628855 34.7086223,17.7521664 C34.7796612,20.0414472 36.858656,26.0148343 38.8031332,28.1936417 C40.5387847,30.1384096 43.0899873,31.4217766 45.5521018,31.9835573 C43.9178664,33.8408277 42.8300108,36.1616848 42.0255616,38.5220476 C41.1517762,41.0860007 40.6109815,43.7500731 40.4112824,46.4644903 C40.2215956,49.0434898 40.2040232,51.7708142 40.8121108,54.2947623 C41.3809669,56.6550539 42.5974827,58.5913358 44.6283236,59.8197229 C45.5585723,60.3824305 46.5594512,60.8051565 47.5661195,61.1915144 C48.5582122,61.5722388 49.5533018,61.9424093 50.5925268,62.1560542 C52.5593441,62.5602396 54.8255738,62.4908549 56.3406164,60.934299 C56.8866556,60.3731602 57.487183,59.6680464 57.8855594,58.9825428 C58.0287951,58.7360239 58.1151588,58.5747919 57.9411373,58.3338352 C57.7326521,58.0452434 57.3954386,57.8241109 57.1276294,57.5983433 C55.6003951,56.3111255 54.6550259,54.5926958 54.4167085,52.5505184 C54.1749174,50.4784621 54.7347148,47.8039784 56.7608562,46.8996956 C59.2619297,45.783408 62.0163049,47.0647071 64.2392846,48.2590792 C65.1840408,44.9437321 67.1238865,41.9586218 70.1652099,40.4378636 C73.5299204,38.7554454 77.3908816,38.5585584 80.8486305,37.1150289 C81.74966,36.7388683 82.6673764,36.3118637 83.3307694,35.5454233 C83.6079778,35.2250985 83.9332039,34.8095748 84.0438829,34.3859217 C84.1892981,33.8294181 83.8283142,33.3628364 83.5494712,32.928986 C82.0709356,30.6285949 76.4639363,25.9811329 73.5461978,25.0965175 Z" id="hair" fill="#191847"></path>
                </g>
                <g id="Bottom/Standing/Skinny-Jeans-Walk" transform="translate(0.000000, 171.929577)">
                    <polygon id="Leg" fill="#1F28CF" points="113.92 0 156.712659 112.853995 186.707163 196.033473 203.81 196.033473 162.579582 8.705635e-14"></polygon>
                    <path d="M103.343799,0 C102.878641,38.7225441 103.214931,90.8561645 102.131123,93.2699309 C101.408584,94.8791084 78.9348765,113.213592 34.71,148.273383 L43.5254324,163.213389 C96.0305378,129.467067 123.625272,110.345857 126.309634,105.849762 C130.336178,99.1056181 150.565216,37.0451257 161.09,0 L103.343799,0 Z" id="Leg" fill="#2B44FF"></path>
                    <g id="Accessories/Shoe/Flat-Pointy" transform="translate(50.285000, 167.648536) rotate(50.000000) translate(-50.285000, -167.648536) translate(23.140000, 149.907950)" fill="#191847">
                        <path d="M0,35 L0.885245902,16.625 L19.4754098,16.625 C28.2903373,22.75 39.798534,27.7083333 54,31.5 L54,35 L20.3606557,35 L8.85245902,33.25 L8.85245902,35 L0,35 Z" id="Shoe"></path>
                    </g>
                    <g id="Accessories/Shoe/Flat-Pointy" transform="translate(185.120000, 176.518828)" fill="#191847">
                        <path d="M0,35 L0.885245902,16.625 L19.4754098,16.625 C28.2903373,22.75 39.798534,27.7083333 54,31.5 L54,35 L20.3606557,35 L8.85245902,33.25 L8.85245902,35 L0,35 Z" id="Shoe"></path>
                    </g>
                </g>
                <g id="Body/Pointing-Forward" transform="translate(129.294852, 163.138234) rotate(-8.000000) translate(-129.294852, -163.138234) translate(15.374852, 80.173445)">
                    <path d="M141.287004,37.9050194 L172.200403,21.0294675 C177.341112,14.9449021 182.406142,10.2193845 187.395494,6.85291487 C188.920079,6.21851546 191.586193,5.83453162 189.09287,10.2454019 C186.599547,14.6562722 184.175973,19.4076116 185.446222,20.7665053 C186.716472,22.125399 189.883954,20.2270844 191.399342,22.4848978 C192.409602,23.9901068 186.99821,26.3679131 175.165167,29.6183169 L152.702815,50.1174792 L141.287004,37.9050194 Z M189.703125,52.1433871 L203.282059,44.708333 C205.187376,37.4821881 207.46495,33.8464702 210.114781,33.8011795 C212.150403,32.8571353 208.605382,41.9880443 212.464277,41.1962135 C216.323171,40.4043826 225.74163,33.4225365 227.364477,34.8401151 C229.765375,36.9373312 227.624587,43.3770001 225.10223,46.5803906 C220.387948,52.5675233 216.484725,54.614942 206.837305,57.2960492 C201.793135,58.6978704 196.339496,61.5077004 190.476387,65.7255391 L189.703125,52.1433871 Z" id="Skin" fill="#997659"></path>
                    <path d="M127.230937,30.8366913 C137.943326,32.4179339 152.561129,32.4253508 169.302774,25.2081223 L173.174912,39.4376588 C161.034308,48.1576292 144.924596,54.3505065 132.077124,51.9453884 C121.952609,50.0500227 118.696981,36.9661925 127.230937,30.8366913 Z" id="Sleeve" fill="#2026A2" transform="translate(147.754124, 38.838038) rotate(-9.000000) translate(-147.754124, -38.838038) "></path>
                    <path d="M140.811613,55.7131812 C152.306723,58.5705743 171.583311,55.2009183 198.641378,45.6042132 C205.352897,59.4435515 208.455464,69.3099384 207.949079,75.2033737 C184.737244,87.288525 164.842697,92.6766765 148.452249,93.0323766 C148.973115,102.725922 147.789349,111.949554 143.812721,120.377489 C135.63745,137.703893 87.7666921,121.657711 71.6710764,124.815991 C61.5915286,92.1888725 81.0806393,78.9293432 81.0963205,58.0526108 C81.1134931,35.1903641 99.5312715,-1.42108547e-13 102.241079,-1.42108547e-13 L126.953027,8.62748707e-14 C128.31653,17.4601989 135.179419,36.702851 140.811613,55.7131812 Z" id="Clothes" fill="#1F28CF"></path>
                </g>
            </g>
            <g id="Humaaan">
                <g id="Head/Front/Pony" transform="translate(148.311494, 53.172451) rotate(7.000000) translate(-148.311494, -53.172451) translate(87.791494, 7.031606)">
                    <g id="Head" stroke-width="1" transform="translate(48.044118, 27.423077)" fill="#B28B67">
                        <path d="M7.35099367,30.5104968 C3.25130946,25.7258325 0.476557427,19.8621605 0.940220121,13.2917477 C2.27616145,-5.63944128 28.780678,-1.47482091 33.9363552,8.08001758 C39.0920324,17.6348561 38.4794039,41.8714963 31.8161505,43.5792125 C29.1588542,44.2602473 23.4980231,42.5919847 17.7366177,39.1391938 L21.3529412,64.5769231 L0,64.5769231 L7.35099367,30.5104968 Z"></path>
                    </g>
                    <path d="M62.7854068,56.6024061 C60.1375548,61.6559036 56.4754232,65.4615385 52.816801,65.4615385 C45.8675614,65.4615385 40.9264706,56.2237472 40.9264706,46.2915415 C40.9264706,45.9425758 40.9334248,45.5959314 40.9471461,45.2518762 C33.59609,50.2674781 27.9307215,60.1538462 18.2040456,60.1538462 C4.97099065,60.1538462 -0.284407163,33.6153846 18.2040456,33.6153846 C30.7775983,33.6153846 36.9624538,35.4381179 42.2925909,38.1335107 C43.3438674,35.1867587 44.9468907,32.7092631 46.9070699,30.9791434 C47.3786328,30.4513402 48.1015917,29.9463562 49.034289,29.4782102 C49.6045035,29.1680188 50.1945744,28.9153802 50.801027,28.7252608 C54.0155609,27.5507155 58.6716138,26.7222754 63.8725218,26.5416948 C64.8436973,26.5079747 65.7975055,26.4981073 66.7279846,26.5105376 C66.7431281,21.6377834 70.720655,17.6923077 75.625,17.6923077 C80.5387099,17.6923077 84.5220588,21.6528657 84.5220588,26.5384615 C84.5220588,31.2632732 80.7965785,35.1229309 76.1069965,35.371855 C73.4243197,36.1948814 69.9775596,36.7991638 66.1551379,37.0539866 C66.5262561,38.4416288 66.7279412,40.0180426 66.7279412,41.7994589 C66.7279412,43.3724313 66.5533274,45.0406543 66.2318038,46.7345059 C65.402766,45.7547418 64.2942426,45.1153846 63.1691176,45.1153846 C60.0217243,45.1153846 57.8308824,47.6897473 57.8308824,50.4230769 C57.8308824,53.8921001 59.8450773,56.4016846 62.7854068,56.6024061 Z" id="hair" fill="#191847"></path>
                </g>
                <g id="Bottom/Standing/Sprint" transform="translate(0.000000, 174.929577)">
                    <path d="M184.42016,-8.71184178 C167.458963,5.12357511 174.110571,126.67213 172.979408,128.200516 C172.476669,128.879799 145.571865,134.624332 92.2649963,145.434116 L94.5814345,154.844481 C156.952036,151.843263 189.951414,148.027919 193.579568,143.398449 C198.774045,136.770374 205.14875,99.6662017 212.703681,32.0859309 L184.42016,-8.71184178 Z" id="Leg" fill="#B28B67" transform="translate(152.484339, 73.066320) rotate(-55.000000) translate(-152.484339, -73.066320) "></path>
                    <path d="M101.27509,135.544338 L105.353016,150.700956 C151.857533,156.119072 182.499016,149.551171 193.271883,139.293401 C200.453794,132.454888 206.845223,95.4516105 212.446169,28.2835689 L182.190306,-14.9262819 C141.811419,15.5445162 166.065537,115.538883 165.036009,117.824385 C164.00648,120.109886 139.488459,121.879835 101.27509,135.544338 Z" id="Pant" fill="#2F3676" transform="translate(156.860630, 68.860375) rotate(-55.000000) translate(-156.860630, -68.860375) "></path>
                    <g id="Accessories/Shoe/Flat-Sneaker" transform="translate(198.811684, 166.122066) rotate(20.000000) translate(-198.811684, -166.122066) translate(171.666684, 148.381480)" fill="#E4E4E4">
                        <path d="M2.28004921,22.4680239 C1.35018034,24.9605595 0.885245902,26.8353722 0.885245902,28.092462 C0.885245902,29.6703374 1.15118635,31.9728501 1.68306723,35 C3.53494727,35 20.178105,35 51.6125403,35 C52.9100303,30.7601938 52.1610439,28.4712589 49.3655809,28.1331953 C46.5701179,27.7951316 44.2478793,27.4898872 42.3988652,27.217462 L19.2938401,17.0363435 C18.7884459,16.8136439 18.1982092,17.0428133 17.9755097,17.5482075 C17.9728332,17.5542814 17.9702173,17.5603818 17.9676624,17.5665078 L16.5215329,21.0338582 C13.9336653,22.2273206 11.8307543,22.8240519 10.2127997,22.8240519 C8.93655596,22.8240519 7.18822216,22.3294296 4.96779829,21.3401852 L4.96778998,21.3402038 C3.95883528,20.8906937 2.77651599,21.3442132 2.32700593,22.3531679 C2.31016951,22.3909584 2.29450973,22.4292621 2.28004921,22.4680239 Z" id="shoe"></path>
                    </g>
                    <polygon id="Leg" fill="#997659" points="115.7 0 69.6460935 110.192907 24.3822715 203.351721 35.0614721 203.351721 151.899582 0"></polygon>
                    <g id="Accessories/Shoe/Flat-Sneaker" transform="translate(21.360000, 176.518828)" fill="#E4E4E4">
                        <path d="M2.28004921,22.4680239 C1.35018034,24.9605595 0.885245902,26.8353722 0.885245902,28.092462 C0.885245902,29.6703374 1.15118635,31.9728501 1.68306723,35 C3.53494727,35 20.178105,35 51.6125403,35 C52.9100303,30.7601938 52.1610439,28.4712589 49.3655809,28.1331953 C46.5701179,27.7951316 44.2478793,27.4898872 42.3988652,27.217462 L19.2938401,17.0363435 C18.7884459,16.8136439 18.1982092,17.0428133 17.9755097,17.5482075 C17.9728332,17.5542814 17.9702173,17.5603818 17.9676624,17.5665078 L16.5215329,21.0338582 C13.9336653,22.2273206 11.8307543,22.8240519 10.2127997,22.8240519 C8.93655596,22.8240519 7.18822216,22.3294296 4.96779829,21.3401852 L4.96778998,21.3402038 C3.95883528,20.8906937 2.77651599,21.3442132 2.32700593,22.3531679 C2.31016951,22.3909584 2.29450973,22.4292621 2.28004921,22.4680239 Z" id="shoe"></path>
                    </g>
                    <path d="M28.4698084,183.999048 L52.1991105,188.434194 C70.5465402,161.550098 147.331283,51.3162756 155.75,2.84217094e-14 L102.923225,2.84217094e-14 C74.8088437,37.0964714 45.9586982,156.670237 28.4698084,183.999048 Z" id="Pant" fill="#5C63AB"></path>
                </g>
                <g id="Body/Jacket-2" transform="translate(133.500000, 164.725352) rotate(7.000000) translate(-133.500000, -164.725352) translate(19.580000, 81.760563)">
                    <path d="M176.34375,68.9007302 L208.615161,54.7748282 C214.26836,49.1599875 219.727329,44.8924489 224.992069,41.9722124 C226.566326,41.4726671 229.255871,41.3217486 226.386337,45.4992404 C223.516803,49.6767321 220.68698,54.1994564 221.83357,55.6635251 C222.980161,57.1275938 226.301583,55.5116606 227.613776,57.8925235 C228.488571,59.4797654 222.889849,61.3784383 210.81761,63.5885421 L186.648228,82.0584043 L176.34375,68.9007302 Z M45.8745644,72.7914439 L64.125,76.4006963 C45.7710734,110.493025 35.9281922,128.56198 34.5963565,130.607559 C31.5997262,135.210113 34.395643,143.645249 35.4284429,148.08725 C28.9492352,149.590518 31.5044357,139.870539 23.3051235,141.899982 C15.8211716,143.752364 9.47568283,148.506235 2.4972042,142.094881 C1.63924126,141.306643 1.01117182,138.842833 3.93640209,137.579157 C11.2242175,134.430879 21.9913509,128.535791 23.7372425,126.24708 C26.1180776,123.126014 33.4971849,105.307469 45.8745644,72.7914439 Z" id="Skin" fill="#B28B67"></path>
                    <path d="M109.809339,8.78101794 L117.366627,6.79820252 C135.490586,21.4928929 145.705761,59.7122982 157.291581,63.8759427 C168.245505,67.8125 182.75978,61.8059366 199.945837,53.906539 L206.437578,65.5305802 C191.838585,84.3231103 158.782177,102.012881 144.128761,94.8471575 C120.700995,83.3906547 111.374864,35.9663931 109.809339,8.78101794 Z" id="Coat-Back" fill="#DB2721" transform="translate(158.123459, 51.637224) rotate(5.000000) translate(-158.123459, -51.637224) "></path>
                    <path d="M80.15625,101.197861 C111.035783,101.197861 133.750119,101.197861 148.299261,101.197861 C151.413049,101.197861 150.826315,96.7164265 150.376198,94.4550701 C145.181305,68.3562845 124.902412,40.2230565 124.902412,3.07209214 L105.246759,0 C88.98901,26.0614734 83.3667984,58.148424 80.15625,101.197861 Z" id="Shirt" fill="#DDE3E9"></path>
                    <path d="M73.359672,74.7738297 C59.4682613,99.7489847 47.7917788,117.729901 38.3302246,128.716578 L24.046875,125.92815 C33.2475591,69.0548213 59.8915125,27.0787712 103.978735,2.27181937e-14 L104.203125,1.4989538e-14 L111.761323,0 C129.406853,59.9525846 134.271413,99.8991087 126.355004,119.839572 L65.015625,119.839572 C65.9860751,105.248838 69.0977123,89.8186045 73.3596734,74.7738267 Z" id="Coat-Front" fill="#FF4133"></path>
                </g>
            </g>
        </g>
        <g id="Mobile3" transform="translate(355.000000, -19.000000)">
            <g id="Group" transform="translate(0.752718, 111.000000)" fill="#89C5CC">
                <path d="M12.139863,0 C10.8150371,0 9.4942504,0.0266022626 8.17108772,0.095441451 C7.1624999,0.14817927 5.62122565,-0.0609051802 4.76778691,0.567748289 C3.88108497,1.22067049 3.94214671,2.55731751 4.08066419,3.50123112 C4.81292983,8.49288902 6.60011418,12.9191321 10.3388981,16.4555996 C16.0955705,21.9011294 22.6949899,24.6679981 30.5042395,25.9001029 C35.9898168,26.7656098 41.0539017,25.563841 45.0920545,21.6628758 C48.0425006,27.1389749 50.2808765,33.1989237 51.4039848,39.3151105 C51.9580547,42.3330672 52.1272219,45.3146208 52.0298082,48.3876489 C51.9670833,50.3559829 51.8585027,52.31965 51.647519,54.2786499 C51.5560451,55.1299223 51.1219604,56.4184986 51.4553052,57.222867 C51.8463854,58.1674807 53.1652714,58.2589551 53.7573564,57.4534199 C54.250127,56.7829963 54.1596035,55.4664176 54.2608187,54.6730168 C54.4285603,53.355038 54.583947,52.0361258 54.6951411,50.7120799 C54.8757128,48.5689643 55.0092408,46.4197815 54.9994994,44.2684985 C54.9769279,39.4350541 53.9022889,34.582708 52.4322929,29.9945178 C49.6122862,21.1922025 45.0366951,13.3692704 37.9205081,7.23138172 C33.5449714,3.45712737 28.5371962,1.92866404 22.8556037,1.10819426 C19.3182997,0.597384143 15.7232603,0 12.139863,0" id="Fill-16"></path>
                <path d="M32.5712675,35 C18.2723696,35 8.64204555,46.5241625 4.08868149,58.5015953 C2.37224237,63.0163306 1.96994464,67.9738742 1.30842479,72.7144486 C1.09603594,74.2357354 1.17471582,76.5539408 0.557219238,77.9092029 C0.333122071,78.4006816 -0.180638832,78.5773956 0.0650016363,79.2469528 C0.213697249,79.6524625 0.505468481,79.9008173 0.943593663,79.9813279 C1.84302649,80.1468978 3.11478377,79.1673519 3.88589345,78.780719 C10.2819123,75.5730304 14.484261,70.6132124 17.9124559,64.5448952 C20.0375153,60.7836392 22.1937187,56.8791017 23.4561093,52.7498622 C24.227219,50.2274235 24.6761159,47.5708006 24.9397871,44.953978 C25.0435228,43.9234876 25.1439802,42.8684346 25.1378918,41.8315761 C25.1318035,40.8029052 24.6531676,40.2591173 24.3091772,39.363721 C29.080316,37.5576904 34.465673,37.0655295 39.2986316,38.9370602 C43.7686325,40.6680385 47.4818078,44.0130955 49.5609705,48.2155678 C50.1011922,49.3079195 50.5177741,50.460313 50.8212537,51.6356771 C51.0198267,52.4055314 51.0294275,53.4044089 51.397537,54.1003482 C52.290179,55.7876597 54.1681928,54.6596013 53.9878848,53.088962 C53.4851297,48.7075013 50.9786134,44.3087559 47.774984,41.2625435 C43.7344442,37.4207769 38.2575282,35 32.5712675,35" id="Fill-18"></path>
            </g>
            <rect id="Container" fill="#2F3676" x="27.7527182" y="0" width="145" height="302" rx="8"></rect>
            <g id="Camera" transform="translate(109.752718, 16.000000)" fill="#FFFFFF">
                <circle id="Lens" cx="2" cy="2" r="2"></circle>
                <rect id="Sensor" x="9" y="0" width="21" height="4" rx="2"></rect>
            </g>
            <g id="Rows" transform="translate(44.752718, 28.000000)">
                <g id="Row">
                    <rect id="Container" fill="#FFFFFF" x="0" y="0" width="114" height="54" rx="4"></rect>
                    <g id="Text-Stuff" transform="translate(9.000000, 16.200000)" fill="#DDE3E9">
                        <rect id="Label" x="0" y="0" width="56" height="8.1" rx="3"></rect>
                        <rect id="Label" x="0" y="13.5" width="37.5890411" height="8.1" rx="3"></rect>
                    </g>
                    <g id="Check" transform="translate(94.816794, 20.000000)">
                        <circle id="Background" fill="#DDE3E9" cx="7" cy="7" r="7"></circle>
                        <circle id="Indicator" fill="#F2F2F2" cx="7" cy="7" r="3"></circle>
                    </g>
                </g>
                <g id="Row" transform="translate(0.000000, 62.000000)">
                    <rect id="Background" fill="#FFFFFF" x="0" y="0" width="114" height="42" rx="4"></rect>
                    <g id="Text" transform="translate(39.000000, 12.600000)" fill="#DDE3E9">
                        <rect id="Name" x="0" y="0" width="56" height="6.3" rx="3"></rect>
                        <rect id="Name" x="0" y="10.5" width="37.5890411" height="6.3" rx="3"></rect>
                    </g>
                    <circle id="Avatar" fill="#C5CFD6" cx="21" cy="21" r="12"></circle>
                </g>
                <g id="Row" transform="translate(0.000000, 112.000000)">
                    <rect id="Container" fill="#FFFFFF" x="0" y="0" width="114" height="42" rx="4"></rect>
                    <g id="Text-Stuff" transform="translate(9.000000, 12.600000)">
                        <rect id="Label" fill="#DDE3E9" x="0" y="0" width="56" height="6.3" rx="3"></rect>
                        <rect id="Label" fill="#AFB9C5" x="0" y="10.5" width="37.5890411" height="6.3" rx="3"></rect>
                    </g>
                    <g id="Check" transform="translate(94.816794, 14.000000)">
                        <circle id="Background" fill="#DDE3E9" cx="7" cy="7" r="7"></circle>
                        <circle id="Indicator" fill="#F2F2F2" cx="7" cy="7" r="3"></circle>
                    </g>
                </g>
                <g id="Row" transform="translate(0.000000, 162.000000)">
                    <rect id="Background" fill="#FFFFFF" x="0" y="0" width="114" height="42" rx="4"></rect>
                    <g id="Text" transform="translate(39.000000, 12.600000)" fill="#DDE3E9">
                        <rect id="Name" x="0" y="0" width="56" height="6.3" rx="3"></rect>
                        <rect id="Name" x="0" y="10.5" width="37.5890411" height="6.3" rx="3"></rect>
                    </g>
                    <circle id="Avatar" fill="#C5CFD6" cx="21" cy="21" r="12"></circle>
                </g>
            </g>
        </g>
        <path d="M469.225393,51.1010075 C468.69196,50.1993687 467.426405,49.879661 466.837645,49.6095631 C464.390395,48.4882236 461.869376,48 459.374455,48 C451.681258,48.0267736 443.863142,49.7820163 436.297649,52.8200272 C431.494316,54.7485105 425.687447,61.238735 420.909168,57.7140753 C412.58476,51.5726945 404.17162,51.8742908 396.273819,60.6418422 C389.053162,68.6589467 383.571642,83.8852244 380.372783,100.337573 C379.890154,102.821214 377.932145,111.96202 377.377834,118.123875 C377.140868,119.383807 376.913298,120.652401 376.707998,121.939894 C376.125501,125.595272 375.603203,129.315221 375.11779,133.042257 C374.910402,134.632134 374.388799,138.142619 375.00818,138.821407 C374.018563,143.06659 373.141339,147.441704 372.410609,151.95856 C370.285576,165.094926 367.962202,179.50461 367.215465,193.427646 C366.938832,198.58313 366.928393,203.768537 367.185192,208.934258 C367.3122,211.487195 367.259657,216.621418 368.004306,218.5625 C369.584771,222.681691 370.396229,216.915139 370.21807,214.168488 C368.85752,193.234718 371.484669,173.57663 374.598275,153.898855 C376.611611,141.17433 379.919731,129.533346 383.625576,118.990866 C386.624702,110.457189 389.842002,103.737027 393.953229,98.0791452 C398.980652,91.1605439 404.355695,85.5672335 409.681326,79.956599 C413.183959,76.2649984 416.690767,72.6726174 420.291179,69.4920767 C421.091851,68.7841525 422.35149,66.9698504 423.239153,66.9627633 C425.116434,66.9470142 427.77664,70.1669278 429.589894,71.3646506 C435.554044,75.3058752 441.594399,80.3519027 447.758281,82.364644 C451.711879,83.6568617 455.415985,82.2024277 459.11348,79.1407931 C459.491372,78.8289599 460.124671,78.0249659 460.900637,76.8768529 C463.645747,74.4223479 466.242622,71.3331523 468.50371,66.8769305 C469.806498,64.3090317 470.988541,60.9906859 472.066542,57.9534624 C472.389107,57.045524 472.531773,56.0045052 472.536645,55.0154586 C472.780917,54.7185871 472.94307,54.3721058 472.979606,53.9673527 C473.248585,50.9781642 470.795767,50.9230421 469.225393,51.1010075" id="Twisted-Leaf" fill="#89C5CC"></path>
        <path d="M457.980481,72.6597754 C454.569531,71.9146199 450.803318,71.9716506 447.328853,72.0331208 C428.695311,72.2865146 410.397488,81.1085139 398.488828,95.2046569 C388.350902,107.205007 385.563234,122.124851 383.560426,137.206908 C383.361855,138.70439 383.276704,140.192311 383.164681,141.692867 C383.140601,142.014903 383.104656,142.302105 383.066268,142.572574 C382.278615,143.276749 381.865421,144.097718 382.331661,144.999623 C380.596522,148.796774 379.128704,152.690229 377.869228,156.705941 C374.162342,168.525979 370.391592,180.570724 372.714416,193 C373.257083,186.160073 374.398603,179.165788 375.76382,172.438216 C375.842341,172.051978 375.927144,171.668814 376.015436,171.287015 C376.02451,171.246718 376.032885,171.206421 376.041959,171.166465 C376.525299,169.106189 377.153466,167.107724 377.917388,165.140678 C377.925414,165.119163 377.933092,165.09799 377.941468,165.076817 C378.042323,164.817959 378.149461,164.560467 378.255202,164.302975 C378.474014,163.769892 378.698758,163.237833 378.937113,162.708506 C379.017728,162.528194 379.095202,162.346174 379.169535,162.162788 C380.281741,159.436925 380.75147,156.365464 381.747814,153.545006 C381.986169,152.903667 382.235342,152.264718 382.49638,151.629185 C382.511735,151.591961 382.52744,151.554737 382.543144,151.517514 C383.248785,149.807276 384.028411,148.11787 384.852706,146.446222 C385.300799,146.109501 385.540201,145.27419 385.926524,144.515033 C386.006441,144.365455 386.631118,143.36793 386.817126,142.793184 C387.30256,141.854056 387.786249,140.914586 388.275172,139.977165 C388.260515,139.982629 388.245858,139.988093 388.231201,139.993557 C388.720473,139.09336 389.211142,138.19692 389.697972,137.304236 C389.805109,137.108214 389.913294,136.911851 390.021129,136.715146 C390.195969,136.40199 390.370809,136.089175 390.5453,135.777043 C392.177489,132.856183 393.90809,129.993721 395.705347,127.166774 C396.346776,126.15798 397.879156,124.711381 398.172999,123.578622 C398.183817,123.536275 398.18626,123.497344 398.192891,123.456706 C402.092764,117.979369 406.582417,112.927201 411.966511,108.924124 C411.31566,109.627616 409.932295,112.015051 409.566562,112.487689 C408.447377,113.93497 407.232222,115.282193 406.01253,116.645807 C403.828252,119.088564 401.695623,121.608843 399.800651,124.273918 C396.33526,129.147822 393.345531,134.27717 390.519475,139.50965 C390.492604,139.540385 390.463289,139.569413 390.437814,139.600831 C389.017457,141.351707 388.123365,143.998 387.100848,146.000904 C391.147294,144.126746 395.621592,142.905879 399.774477,141.241744 C403.915846,139.582731 407.944494,137.73521 411.833898,135.565653 C417.003368,132.682359 422.365825,129.426829 427.250176,125.742714 C432.847498,122.270672 437.551077,117.491705 441.702915,112.476761 C446.615185,106.543178 451.117053,100.557687 453.901231,93.3530376 C455.268891,89.8126952 456.344803,86.1210677 456.982742,82.3864112 C457.01066,82.2235151 457.046256,82.046959 457.084993,81.8635729 C457.73759,80.573723 458.321087,79.2548456 458.810709,77.9055746 C459.588241,75.7657283 461.424584,73.4117609 457.980481,72.6597754" id="Fill-10" fill="#69A1AC"></path>
        <path d="M424.915479,116 C415.555733,116 406.758008,120.41494 399.157808,126.993297 C394.993276,130.597828 391.267787,135.188055 387.978716,139.967284 C386.080259,142.72607 384.387451,145.710589 383.188989,149.029873 C382.380265,151.270239 381.825182,153.604524 381.44894,156.012272 C380.990401,158.946577 380.626157,161.940395 380.461375,164.923519 C380.396512,166.098218 379.859613,172.331581 381.395887,172.437124 C381.387076,172.590791 381.385014,172.73725 381.394388,172.868599 C378.058638,179.499727 375.997649,187.271148 374.086445,194.639223 C372.423632,201.050895 370.94191,207.516733 369.980027,214.149722 C368.713702,222.882428 367.881921,231.746483 367.48637,240.604726 C367.401448,242.508467 367.343147,244.413138 367.292906,246.319436 C367.250352,247.945369 367.207235,249.571302 367.165243,251.197235 C367.118376,253.019377 366.866049,255.117235 367.094006,256.928684 C367.292344,258.506262 368.36633,258.267509 368.413759,256.697603 C368.471123,254.801766 368.46175,252.90221 368.526987,251.004978 C368.613784,248.487037 368.703204,245.969096 368.800124,243.451852 C369.47481,225.965284 372.00596,208.735834 376.677209,192.217992 C378.567605,185.533627 380.733761,179.205878 383.517802,173.022498 C385.965531,167.585828 388.909854,162.322585 391.919415,157.420608 C394.844616,152.656955 397.885859,148.003494 401.469999,143.967489 C404.378516,140.692375 407.577792,137.839205 410.866488,135.184335 C415.04358,131.812512 419.21261,128.52252 423.737262,125.934139 C426.089196,124.588804 428.48556,123.384349 430.855865,122.093413 C431.282348,121.86117 431.739575,121.635901 432.149748,121.366927 C433.518054,120.469805 433.067576,119.118658 431.97728,118.17876 C429.97478,116.452397 427.311842,116 424.915479,116 Z" id="Fill-1" fill="#C1DEE2"></path>
        <path d="M-0.39662582,104.822266 C-0.81160628,103.302929 -1.06078191,101.73203 -0.945561598,100.142495 C-0.916288145,99.7407085 -0.579292162,96.8222657 -0.25306881,96.8222657 C0.506635825,96.8222657 -0.539714455,104.354365 -0.39662582,104.822266 M-13.6180459,111.396168 C-13.5720084,111.414626 -12.7355448,113.022351 -12.4611517,113.489154 C-11.8782383,114.482145 -11.2566167,115.45106 -10.6180459,116.396168 C-11.8161678,114.839001 -12.8910647,113.336674 -13.6180459,111.396168 M31.2571866,63.5635398 C31.9688219,62.9632692 31.5794919,61.4636311 30.7354097,62.2915996 C30.0539488,62.9624903 30.0336545,62.8960243 29.1770219,62.8531849 C28.4814084,62.8183942 27.7414679,62.6023798 27.042383,62.5164414 C25.5595647,62.3341793 24.0850243,62.2570684 22.593127,62.3611811 C19.3951742,62.5839459 16.2834721,63.345708 13.3221079,64.5304117 C8.15427385,66.598126 2.93757324,69.2775347 -1.17362263,73.0087152 C-7.7105202,78.9413207 -12.9600655,87.06211 -16.057615,95.1595324 C-17.9762265,100.174337 -19.009099,105.207575 -17.2651253,110.423335 C-16.3938059,113.030046 -15.0145953,115.510576 -13.0129375,117.468985 C-12.4895584,117.980721 -11.7998196,118.37718 -11.3100863,118.91436 C-10.5570614,119.740251 -10.7295628,119.475686 -11.2190291,120.654158 C-11.7536234,121.940898 -12.2834112,123.229195 -12.8097275,124.519309 C-14.187336,127.897389 -15.543582,131.313635 -16.5438769,134.818936 C-16.8733921,135.972483 -17.1268037,137.143686 -17.3105204,138.327611 C-17.4499101,139.222824 -18.2590114,142.628685 -17.5548529,143.54389 C-16.3833918,145.067155 -15.8843125,142.728124 -15.8466612,141.927937 C-15.8138165,141.226928 -15.7526666,140.524363 -15.6650807,139.827509 C-15.4445138,138.072911 -15.0455708,136.350508 -14.5272653,134.658223 C-13.9673032,132.829371 -13.2810357,131.03479 -12.5990408,129.246181 C-11.962708,127.578301 -11.2967348,125.921325 -10.6176772,124.269802 C-10.2406307,123.352261 -9.85904462,122.436536 -9.47745856,121.520812 C-9.34714786,121.207955 -9.2801233,120.554459 -8.93512037,120.82266 C-8.18102729,118.867367 -6.95322275,117.010474 -5.9353039,115.174871 C-4.68827319,112.926712 -3.41587463,110.683227 -1.98272392,108.541258 C-0.949050292,106.996444 0.139631546,105.484083 1.33085295,104.048834 C2.0270005,103.210221 2.77121347,102.421976 3.56188968,101.666445 C3.9963477,101.251552 5.47970007,99.4717707 6.07811459,99.4717707 C5.82096458,99.4717707 4.65778133,101.732132 4.47646788,101.999035 C3.75201514,103.067163 2.9656114,104.084664 2.16291884,105.098269 C0.673424774,106.979308 -0.708723176,108.92863 -1.95895824,110.967784 C-1.59820054,111.1825 -0.0980252696,110.1933 0.349250197,110.00247 C1.35248239,109.574855 2.38375275,109.209292 3.44039097,108.927331 C5.30159098,108.430395 7.57642065,107.864395 9.41385497,107.864395 C8.87231787,107.864395 7.61540705,108.748185 7.05170644,108.988345 C6.14834352,109.372861 5.222016,109.723625 4.28287103,110.01649 C3.4158242,110.286768 2.5330226,110.492916 1.64434632,110.682708 C0.755135994,110.872239 -0.851584295,110.879509 -1.66068559,111.353079 C-1.7095521,111.381639 -1.65881638,111.84015 -1.85027698,111.962956 C-2.04307273,112.086801 -2.59529104,112.046298 -2.6401521,112.08031 C-3.30265385,112.577766 -3.76595113,114.019246 -4.16462711,114.728303 C-5.19910183,116.566762 -6.20687354,118.4195 -7.22452536,120.266786 C-7.53988795,120.839017 -7.95939228,121.230543 -7.68194797,121.694506 C-7.38581156,122.189106 -5.98684071,122.495992 -5.44023004,122.676177 C-3.41053402,123.34577 -1.35386797,123.567496 0.762345807,123.215953 C4.72614105,122.558044 8.16655723,120.842392 11.2683792,118.413788 C23.1490837,109.111671 32.8935472,97.4063932 35.8682629,82.5442427 C37.0995388,76.391209 38.4261445,66.7949275 31.2571866,63.5635398" id="Leave-the-Leaf!" fill="#89C5CC" transform="translate(9.342752, 103.048012) scale(-1, 1) rotate(-302.000000) translate(-9.342752, -103.048012) "></path>
        <g id="Plant" transform="translate(9.000000, 26.000000)" fill="#69A1AC">
            <path d="M9.93785602,39.3944238 C28.6043474,73.9154237 50.3448762,107.341243 63.400835,145.084887 C62.8747124,140.63606 62.316848,136.191842 61.6924335,131.753948 C58.3796628,108.228697 54.2624276,84.8751088 49.9359142,61.5501498 C47.7325965,49.6742135 45.4023236,37.8413157 43.0122847,26.0094297 C41.7268475,19.6545196 40.457171,13.2957376 39.145247,6.94687905 C38.8274703,5.40808327 38.5544351,2.72220553 38.1565942,0 C50.8449133,45.8987002 63.0807311,91.8320098 72.0307975,138.834131 C73.204927,145.002658 74.2047864,151.160225 75.0238081,157.307078 C75.3039851,155.904832 75.5795646,154.502348 75.8811982,153.103945 C79.5025613,136.339988 84.9347228,119.709458 91.4026624,104.034833 C94.494721,96.5388511 98.0463864,89.2070272 102.228151,82.3752607 C104.835821,78.1167189 110.985519,73.0545169 113.364361,68.6931495 C100.354578,94.9971403 95.6569872,127.908887 88.1451337,156.506037 C86.3116359,163.48456 84.4667482,170.451753 82.659084,177.43122 C93.9872772,152.387526 111.563216,131.811087 136,122.894168 C106.420215,144.439149 88.6779699,182.169798 76.7221336,220.758787 C76.682738,221.21643 76.6358989,221.67408 76.5954089,222.132448 C80.1135643,214.771944 84.5452103,208.11439 90.5514934,203.451536 C103.406592,193.469504 117.667098,196.37744 130.137007,204.939996 C120.350227,198.082035 102.662664,204.326868 94.4280037,211.297143 C88.5328799,216.286776 83.4948291,222.980748 79.119821,229.511371 C78.071517,231.076808 76.6413193,232.903314 75.1303997,234.852187 C73.0120284,250.010547 69.5599117,265.065018 64.6724606,280 C65.4790179,275.713199 64.8958605,268.857187 65.11953,265.661925 C65.1438759,265.315983 65.1636243,264.969803 65.1877517,264.624826 C64.4448288,267.894794 63.7270637,271.127592 63.0359813,274.308264 C64.4097546,268.238814 65.1563919,261.902815 65.7392402,255.50133 C65.8893549,252.75023 66.0357479,249.999132 66.1904602,247.24827 C66.141426,242.027375 65.9463583,236.78585 65.6164284,231.535987 C64.4465561,226.433692 63.1367171,221.620982 62.0564998,217.618623 C58.158506,203.17685 52.4441742,189.341265 45.4108456,176.434 C38.9937018,164.655448 31.3123836,153.986338 22.4447835,144.337353 C17.6643455,139.137296 12.6613846,134.184675 7.7288832,129.163248 C5.94526254,127.347946 2.75721952,122.884562 0,120.557894 C20.0804874,132.761632 40.7488532,145.964324 55.3976085,165.627283 C53.6802099,158.357245 51.8148695,151.190087 49.841671,144.166545 C39.8311473,108.532478 27.1913357,71.6012099 9.93785602,39.3944238 Z" id="Fill-19"></path>
        </g>
        <g id="Row" transform="translate(134.000000, 58.000000)">
            <rect id="Background" fill="#FFFFFF" x="0" y="0" width="131" height="42" rx="4"></rect>
            <g id="Text" transform="translate(39.000000, 12.600000)">
                <rect id="Name" fill="#8991DC" x="0" y="0" width="73" height="6.3" rx="3"></rect>
                <rect id="Name" fill="#FF9B21" x="0" y="10.5" width="49" height="6.3" rx="3"></rect>
            </g>
            <circle id="Avatar" fill="#FF9B21" cx="21" cy="21" r="12"></circle>
        </g>
        <g id="Chart" transform="translate(235.000000, 6.000000)">
            <path d="M37.7664728,37.179 C35.8448939,39.219 33.1227826,40.5 30.095205,40.5 C24.2778019,40.5 19.5618833,35.799 19.5618833,30 C19.5618833,24.201 24.2778019,19.5 30.095205,19.5 L30.095205,0 C13.5458518,0 0,13.503 0,30 C0,46.497 13.5458518,60 30.095205,60 C38.788205,60 46.6445583,56.334 52,50.502 L37.7664728,37.179 Z" id="Value" fill="#E87613"></path>
            <path d="M30,0 L30,19.5 C35.799,19.5 40.5,24.201 40.5,30 L60,30 C60,13.503 46.497,0 30,0 Z" id="Value" fill="#8991DC"></path>
            <path d="M40.9262567,30 C40.9262567,33.2650258 39.3886195,36.1672709 37,38.0411499 L48.7508931,53 C55.5910309,47.6445971 60,39.3430643 60,30 L40.9262567,30 Z" id="Value" fill="#2B44FF"></path>
        </g>
        <g id="Row" transform="translate(282.000000, 105.000000)">
            <rect id="Background" fill="#FFFFFF" x="0" y="0" width="102" height="30" rx="4"></rect>
            <g id="Text" transform="translate(7.000000, 9.000000)">
                <rect id="Name" fill="#DB2721" x="0" y="0" width="95" height="6" rx="3"></rect>
                <rect id="Name" fill="#FF9B21" x="0" y="11" width="64" height="6" rx="3"></rect>
            </g>
        </g>
        <path d="M104.485146,326.720509 C102.91013,314.178797 101.242815,301.708914 98.1913526,289.410948 C96.3927279,282.163915 94.087674,275.069392 91.9933421,267.904742 C92.1810761,268.803472 92.3472155,269.70799 92.491412,270.61489 C91.762767,268.478023 90.2410414,266.434093 89.3657618,264.304715 C88.389475,261.929888 87.6044052,259.463146 86.8586935,257.011042 C85.4027967,252.225304 84.0290988,247.431395 82.3906924,242.700465 C80.5649003,237.429616 78.4625574,232.246258 76.5033661,227.021707 C74.8405787,222.587631 73.2833264,217.932277 71.1186377,213.700755 C69.9389433,211.394354 68.8811541,208.917059 67.7230544,206.566062 C67.3353957,205.779333 64.0091243,196.9905 64.0342019,196.9905 C64.5841687,196.9905 66.6468053,200.897253 66.9884882,201.471215 C67.9870663,203.147483 68.8355267,204.891837 69.693043,206.639595 C70.0632866,204.564345 70.6494767,202.53267 71.5728217,200.624911 C71.8577317,200.03597 73.8576742,195.692788 74.5089964,195.692788 C74.8343093,195.692788 71.8281261,203.894382 71.4481301,204.614388 C71.1395357,205.199243 70.5613566,205.940696 70.3600388,206.562998 C70.034726,207.567942 70.2022586,207.316706 70.4707984,208.223266 C70.9629473,209.884896 72.0520835,211.512143 72.7375392,213.107729 C73.1137039,213.95948 74.0408803,216.911673 74.9429791,218.233896 C77.2657963,222.774186 78.9163932,228.310228 80.6847157,233.206265 C81.0650601,230.8008 81.7226517,228.481463 82.633458,226.217957 C82.8494044,225.680421 84.56792,220.692808 85.0628552,220.692808 C85.619788,220.692808 83.487143,228.680954 83.1973568,229.371002 C82.6592323,230.652714 81.8132099,231.893234 81.3656435,233.197754 C80.8745396,234.629595 81.7372804,235.918456 82.2868988,237.382978 C84.3087843,242.770934 86.0812864,248.212677 87.7008845,253.727613 C97.1067443,249.608092 98.9771189,237.483745 99.5908247,228.54274 C100.032818,222.098776 99.0352851,215.536684 97.4714151,209.285743 C95.3843974,200.943211 91.8731783,192.889022 88.1477543,185.13475 C83.806883,176.099447 77.8373577,168.029599 70.6397242,160.955843 C66.8752905,157.25607 62.5880575,154.049577 58.2336025,151.044959 C56.1065302,149.577033 53.9212918,148.35864 51.4382563,147.541953 C50.3188179,147.174291 49.169774,146.908076 48.0081912,146.70416 C47.1255973,146.549265 45.3248828,145.730876 44.5931031,145.939558 C38.6176567,147.592677 34.1259712,150.342315 30.643661,155.453843 C27.3469951,160.292348 25.3007287,166.076903 24.1631787,171.751499 C22.8967574,178.070526 22.5912977,184.441639 23.6783441,190.801176 C24.507648,195.653298 25.9381189,200.410101 27.3706796,205.120264 C32.4656219,221.873072 41.3960512,239.83372 57.4203204,249.023577 C62.607214,251.998578 68.3625344,253.737485 74.2707588,254.659365 C75.6629166,254.876558 77.0536812,255.083198 78.4625574,255.162517 C79.4123734,255.216305 82.5348889,254.585492 83.2220861,254.995027 C84.1642395,255.556393 84.7054987,258.741098 85.1161452,259.89583 C88.2362227,268.672408 91.0264594,277.54839 93.558257,286.503692 C96.2516661,296.031595 98.3912772,305.652093 100.173532,315.379827 C100.931434,319.51739 101.669831,323.648145 102.298514,327.808177 C102.445149,328.776014 102.293638,331.820122 103.238229,332.674937 C103.835565,333.215537 104.679846,332.993919 105.035113,332.332126 C105.652998,331.181479 104.646409,328.004604 104.485146,326.720509" id="Leaf" fill="#C1DEE2" transform="translate(64.123641, 239.442244) rotate(-37.000000) translate(-64.123641, -239.442244) "></path>
    </g>
</svg>