<?xml version="1.0" encoding="UTF-8"?>
<svg width="596px" height="216px" viewBox="0 0 596 216" version="1.1" xmlns="http://www.w3.org/2000/svg" xmlns:xlink="http://www.w3.org/1999/xlink">
    <!-- Generator: Sketch 52.5 (67469) - http://www.bohemiancoding.com/sketch -->
    <title>meaning_making</title>
    <desc>Created with Sketch.</desc>
    <g id="meaning_making" stroke="none" stroke-width="1" fill="none" fill-rule="evenodd">
        <g id="Background" transform="translate(207.000000, -20.000000)" fill="#FF73C6" fill-opacity="0.7">
            <path d="M35.7336717,112.551181 C61.7812612,112.551181 90.5167785,87.8066479 90.5167785,56.2755906 C90.5167785,24.7445332 61.7812612,0 35.7336717,0 C9.68608231,0 0,36.0844777 0,61.9455628 C0,87.8066479 9.68608231,112.551181 35.7336717,112.551181 Z" id="Weird-Shape"></path>
        </g>
        <g id="Mobile3" transform="translate(425.000000, -2.000000)">
            <rect id="Container" fill="#DDE3E9" x="48" y="0" width="159" height="302" rx="8"></rect>
            <g id="Camera" transform="translate(112.000000, 16.000000)" fill="#FFFFFF">
                <circle id="Lens" cx="2" cy="2" r="2"></circle>
                <rect id="Sensor" x="9" y="0" width="21" height="4" rx="2"></rect>
            </g>
            <g id="Rows" transform="translate(62.000000, 28.000000)">
                <g id="Row">
                    <rect id="Container" fill="#FFFFFF" x="0" y="0" width="131" height="54" rx="4"></rect>
                    <g id="Text-Stuff" transform="translate(9.000000, 16.200000)" fill="#DDE3E9">
                        <rect id="Label" x="0" y="0" width="73" height="8.1" rx="3"></rect>
                        <rect id="Label" x="0" y="13.5" width="49" height="8.1" rx="3"></rect>
                    </g>
                </g>
                <g id="Row" transform="translate(0.000000, 62.000000)">
                    <rect id="Background" fill="#FFFFFF" x="0" y="0" width="131" height="42" rx="4"></rect>
                    <g id="Text" transform="translate(39.000000, 12.600000)" fill="#DDE3E9">
                        <rect id="Name" x="0" y="0" width="73" height="6.3" rx="3"></rect>
                        <rect id="Name" x="0" y="10.5" width="49" height="6.3" rx="3"></rect>
                    </g>
                    <circle id="Avatar" fill="#C5CFD6" cx="21" cy="21" r="12"></circle>
                </g>
                <g id="Row" transform="translate(0.000000, 112.000000)">
                    <rect id="Container" fill="#FFFFFF" x="0" y="0" width="131" height="42" rx="4"></rect>
                    <g id="Text-Stuff" transform="translate(9.000000, 12.600000)">
                        <rect id="Label" fill="#DDE3E9" x="0" y="0" width="73" height="6.3" rx="3"></rect>
                        <rect id="Label" fill="#AFB9C5" x="0" y="10.5" width="49" height="6.3" rx="3"></rect>
                    </g>
                </g>
                <g id="Row" transform="translate(0.000000, 162.000000)">
                    <rect id="Background" fill="#FFFFFF" x="0" y="0" width="131" height="42" rx="4"></rect>
                    <g id="Text" transform="translate(39.000000, 12.600000)" fill="#DDE3E9">
                        <rect id="Name" x="0" y="0" width="73" height="6.3" rx="3"></rect>
                        <rect id="Name" x="0" y="10.5" width="49" height="6.3" rx="3"></rect>
                    </g>
                    <circle id="Avatar" fill="#C5CFD6" cx="21" cy="21" r="12"></circle>
                </g>
            </g>
        </g>
        <g id="Humaaan" transform="translate(462.000000, 242.500000) scale(-1, 1) translate(-462.000000, -242.500000) translate(292.000000, -2.000000)">
            <g id="Head/Front/Hijab-1" transform="translate(145.066521, 69.466782) rotate(-8.000000) translate(-145.066521, -69.466782) translate(68.083481, 10.784165)">
                <g id="Head" transform="translate(61.147059, 34.875000)" fill="#BA8B72">
                    <path d="M9.35581013,38.8013926 C4.13803022,32.7165479 0.606527635,25.2594868 1.19664379,16.9036356 C2.89693275,-7.17189815 36.6299538,-1.87558746 43.1917248,10.2756745 C49.7534958,22.4269365 48.9737868,53.2496203 40.4932825,55.4213898 C37.111269,56.2874884 29.9065749,54.1658936 22.5738771,49.7748443 L27.1764706,82.125 L0,82.125 L9.35581013,38.8013926 Z"></path>
                </g>
                <g id="Hijab" transform="translate(40.764706, 31.500000)">
                    <path d="M57.4499267,5.6379058 C56.827439,5.2687887 55.5250861,4.49021074 54.8653018,4.20802914 C54.709168,4.14012731 53.6159616,3.36527357 53.5865631,3.37509252 C52.758871,3.65251571 50.3621093,4.67678137 50.1563929,5.56184668 C50.124508,5.62891769 50.0932081,5.69183451 50.0627126,5.74682065 C49.7230941,6.36020309 49.4114847,6.98884266 49.1142088,7.62511081 C48.4618839,9.0218191 47.8987783,10.4815953 47.3609759,11.9298908 C46.3134532,14.7504983 45.4034161,17.6368173 44.5667289,20.5297074 C43.7149037,23.474638 42.9919347,26.4539349 42.1825984,29.4110259 C41.0179936,33.6661069 39.5274458,37.8168049 38.3708854,42.0701487 C37.6323395,44.7859955 37.221565,47.5337162 37.4155073,50.3289455 C37.4174087,50.3625565 37.4185057,50.3957144 37.4215772,50.4298541 C37.4227472,50.4438273 37.4245024,50.4576493 37.4257456,50.4716224 C37.4587275,50.9013149 37.5057505,51.3320648 37.5684234,51.7640988 C37.6232713,52.133518 37.6782655,52.5042968 37.7369163,52.875 C38.7933609,50.7820524 39.5999182,48.4758825 40.4558387,46.2870113 C40.5395733,46.0727315 40.6194319,45.8568656 40.6974622,45.64032 C40.9734571,45.1964278 41.2548636,44.7557078 41.5394148,44.3166496 C43.3338933,41.548007 45.1354656,38.789561 46.8562285,35.9708417 C49.9512616,30.9011653 53.0174081,25.7243112 56.6868089,21.068919 C57.7703118,19.6941901 58.8790448,18.3405341 59.9489454,16.9545512 C60.5577576,16.1658626 61.1507736,15.3639563 61.7245563,14.5477747 C62.1347458,13.9641513 63.918075,11.9298908 63.2722922,10.7076578 C62.9418824,10.0823116 59.0647233,6.59555583 57.4499267,5.6379058 Z" id="Front" fill="#2C2C2C"></path>
                    <path d="M55.0618135,4.31006174 C55.66717,4.51217161 55.3726573,3.26065579 54.7863203,2.82024484 C52.069946,0.779914893 41.684916,0.0395212061 32.6476411,1.90336925 C26.5935139,3.15197277 19.5524111,6.25968319 14.7167999,10.2548904 C10.3576263,13.8565791 7.35971034,19.6302747 5.81624309,25.2086344 C4.19565463,31.0660209 3.95020802,37.1725732 4.85308495,43.179039 C5.05143919,44.4983953 5.47765492,45.7557039 5.71512862,47.0470749 C5.98255664,48.5013303 6.11973551,49.901491 6.59647122,51.3163571 C6.8884141,52.182548 7.38452325,53.0317078 7.63362101,53.9028505 C7.91796353,54.8968881 7.74464574,55.8164985 7.53727539,56.8275673 C7.19935785,58.4754684 6.7803699,60.1199932 6.1849346,61.6938422 C5.29077572,64.0572043 4.20571392,66.2706616 3.52540804,68.7231562 C2.6202212,71.9863964 -1.16622603,82.605528 1.60090785,85.5 L54.2763842,85.5 C52.949974,81.9053639 48.9684996,77.6748212 48.1624899,73.8268177 C47.6877661,71.5600159 47.4619164,66.6096353 47.4122161,66.4297196 C46.2251682,58.3001294 43.9073546,54.4178965 42.4556954,53.0089856 C41.0040362,51.6000748 39.0705334,51.1668276 38.9709092,49.9447068 C38.559149,44.8901132 40.582258,40.0470217 42.0657421,35.329676 C43.8337923,29.7073503 45.129503,23.9455487 46.9522459,18.3422799 C47.7593733,15.8610499 51.918648,3.26065579 55.0618135,4.31006174 Z" id="Turban" fill="#8991DC"></path>
                    <path d="M36.593158,10.125 C34.6067924,16.3866949 34.1795692,19.7291649 34.6067924,28.284872 L33.6323769,28.284872 C31.8120672,20.2108561 33.4321575,12.6100205 35.3684306,10.125 L36.593158,10.125 Z M9.94442584,26.2848468 C13.6460561,35.2084226 15.3337917,40.4779257 25.670604,47.6990442 L24.8724095,48.2543167 C14.6108913,42.4764632 11.6226313,35.5844358 9.16583415,26.6565967 L9.94442584,26.2848468 Z M25.1534718,17.2038436 C26.8347427,29.8699513 27.3255877,37.104842 36.0840638,50.9598422 L35.1522256,51.2428838 C26.1382449,39.1794127 24.7093907,29.3333594 24.2835249,17.2734068 L25.1534718,17.2038436 Z M15.4786459,54.8283573 L16.275901,53.8654872 C27.1547967,57.2508731 25.9429932,64.2401631 39.6450439,71.3183782 L38.5,72.0076663 C26.502072,67.0883227 23.6973929,56.5372492 15.4786459,54.8283573 Z" id="Shade" fill-opacity="0.2" fill="#000000"></path>
                </g>
            </g>
            <g id="Body/Long-Sleeve" transform="translate(164.466471, 207.481645) rotate(-8.000000) translate(-164.466471, -207.481645) translate(19.557219, 101.965786)">
                <path d="M217.5,73.6929233 L262.226695,67.6160951 C271.173849,62.6591314 279.404796,59.3033538 286.919537,57.548762 C289.034264,57.487262 292.398386,58.2529856 287.386776,62.4144734 C282.375165,66.5759612 277.290179,71.1794357 278.183097,73.4003491 C279.076014,75.6212625 283.736748,74.794934 284.508848,78.2108876 C285.023581,80.48819 277.459492,80.8582289 261.816583,79.3210044 L225.524701,93.6524064 L217.5,73.6929233 Z M76.9970299,84.004723 L101.802669,84.0974498 C74.6026125,145.066076 60.420081,176.988283 59.2550748,179.864069 C56.6338106,186.334588 62.180758,196.189077 64.5528529,201.484806 C56.8270189,204.928244 57.6502148,192.175786 47.9042832,196.692047 C39.0086487,200.814281 32.2417617,208.283493 21.9641414,201.966911 C20.7005684,201.190324 19.3158983,198.266335 22.6614364,195.981393 C30.9963921,190.288767 43.0075682,180.325646 44.6304672,177.046208 C46.84358,172.574108 57.6324342,141.56028 76.9970299,84.004723 Z" id="Skin" fill="#997659"></path>
                <path d="M139.893114,10.930249 L159.353534,10.5213534 C167.875344,53.0444838 196.203352,77.8963432 253.511801,63.6301192 L266.070122,118.251841 C212.367541,129.995512 162.838781,112.503602 147.945939,54.7145468 C144.090653,39.754786 140.713022,24.130732 139.893114,10.930249 Z" id="Clothes-Back" fill="#AFB9C5" transform="translate(202.981618, 66.113161) rotate(5.000000) translate(-202.981618, -66.113161) "></path>
                <path d="M135.360691,0.0179852717 L164.787521,6.73087357 C164.787521,57.1442438 180.910185,89.3088066 189.179688,126.374332 L109.705702,126.374332 C108.586172,139.18203 107.898679,152.346023 107.540429,165.86631 L48.0331029,165.86631 C61.5177967,94.4015842 89.9794229,39.1128142 133.417982,0 L135.345214,0 L135.360691,0.0179852717 Z" id="Clothes" fill="#C5CFD6"></path>
                <path d="M122.244576,54.4529498 C120.196462,85.8674415 121.401017,109.841235 125.858239,126.374332 L109.705702,126.374332 C111.923488,101.002317 115.836736,77.0285275 122.244573,54.4529618 Z" id="Shade" fill-opacity="0.1" fill="#000000"></path>
            </g>
        </g>
        <circle id="Floating-Random-Circle" fill-opacity="0.8" fill="#EAE1A6" transform="translate(395.500000, 61.500000) scale(-1, 1) translate(-395.500000, -61.500000) " cx="395.5" cy="61.5" r="56.5"></circle>
        <g id="Web" transform="translate(-223.000000, -54.000000)">
            <rect id="Container" fill="#F2F2F2" x="0" y="52" width="396" height="346" rx="8"></rect>
            <g id="Content" transform="translate(16.000000, 95.000000)">
                <g id="Components" transform="translate(294.000000, 89.000000)">
                    <rect id="Background" fill="#FFFFFF" x="0" y="0" width="70" height="194" rx="8"></rect>
                    <g id="Rows" transform="translate(18.000000, 18.000000)">
                        <rect id="Data" fill="#DDE3E9" x="0" y="0" width="34" height="26" rx="4"></rect>
                        <rect id="Data" fill="#AFB9C5" x="0" y="34" width="34" height="25" rx="4"></rect>
                        <rect id="Data" fill="#DDE3E9" x="0" y="67" width="34" height="25" rx="4"></rect>
                    </g>
                </g>
                <g id="Profile" transform="translate(294.000000, 0.000000)">
                    <rect id="Background" fill="#FFFFFF" x="0" y="0" width="70" height="81" rx="8"></rect>
                    <g id="Profile-Info" transform="translate(10.000000, 15.000000)" fill="#DDE3E9">
                        <circle id="Avatar" cx="25" cy="16" r="16"></circle>
                        <rect id="Name" x="0" y="36" width="50" height="6" rx="3"></rect>
                        <rect id="Name" x="8" y="46" width="34" height="6" rx="3"></rect>
                    </g>
                </g>
                <g id="Rows">
                    <g id="Row">
                        <rect id="Container" fill="#FFFFFF" x="0" y="0" width="286" height="47" rx="4"></rect>
                        <g id="Text-Stuff" transform="translate(9.000000, 14.100000)" fill="#DDE3E9">
                            <rect id="Label" x="0" y="0" width="228" height="7.05" rx="3"></rect>
                        </g>
                        <g id="Check" transform="translate(248.435115, 16.500000)">
                            <circle id="Background" fill="#DDE3E9" cx="7" cy="7" r="7"></circle>
                            <circle id="Indicator" fill="#F2F2F2" cx="7" cy="7" r="3"></circle>
                        </g>
                    </g>
                    <g id="Row" transform="translate(0.000000, 55.000000)">
                        <rect id="Container" fill="#FFFFFF" x="0" y="0" width="286" height="39" rx="4"></rect>
                        <g id="Text-Stuff" transform="translate(9.000000, 11.700000)" fill="#DDE3E9">
                            <rect id="Label" x="0" y="0" width="228" height="5.85" rx="2.925"></rect>
                        </g>
                        <g id="Check" transform="translate(248.435115, 12.500000)">
                            <circle id="Background" fill="#DDE3E9" cx="7" cy="7" r="7"></circle>
                            <circle id="Indicator" fill="#F2F2F2" cx="7" cy="7" r="3"></circle>
                        </g>
                    </g>
                    <g id="Row" transform="translate(0.000000, 102.000000)">
                        <rect id="Container" fill="#FFFFFF" x="0" y="0" width="286" height="39" rx="4"></rect>
                        <g id="Text-Stuff" transform="translate(9.000000, 11.700000)" fill="#DDE3E9">
                            <rect id="Label" x="0" y="0" width="228" height="5.85" rx="2.925"></rect>
                        </g>
                        <g id="Check" transform="translate(248.435115, 12.500000)">
                            <circle id="Background" fill="#DDE3E9" cx="7" cy="7" r="7"></circle>
                            <circle id="Indicator" fill="#AFB9C5" cx="7" cy="7" r="3"></circle>
                        </g>
                    </g>
                    <g id="Row" transform="translate(0.000000, 149.000000)">
                        <rect id="Container" fill="#FFFFFF" x="0" y="0" width="286" height="39" rx="4"></rect>
                        <g id="Text-Stuff" transform="translate(9.000000, 11.700000)" fill="#DDE3E9">
                            <rect id="Label" x="0" y="0" width="228" height="5.85" rx="2.925"></rect>
                        </g>
                        <g id="Check" transform="translate(248.435115, 12.500000)">
                            <circle id="Background" fill="#DDE3E9" cx="7" cy="7" r="7"></circle>
                            <circle id="Indicator" fill="#F2F2F2" cx="7" cy="7" r="3"></circle>
                        </g>
                    </g>
                </g>
            </g>
        </g>
        <g id="Image" transform="translate(228.000000, 62.000000)">
            <path d="M48.007,51.9862978 C48.003,51.9962978 47.999,52.0062978 47.993,52.0182978 C47.999,52.0082978 48.007,51.9682978 48.007,51.9862978" id="Fill-35" fill="#C5CFD6"></path>
            <path d="M47.9976864,52.0014952 C47.9976864,52.0034952 47.9956864,52.0074952 47.9956864,52.0114952 C47.9956864,52.0014952 48.0136864,51.9714952 47.9976864,52.0014952" id="Fill-37" fill="#C5CFD6"></path>
            <path d="M48.0671431,51.8323017 C48.0531431,51.8723017 48.0351431,51.9103017 48.0191431,51.9503017 C48.0271431,51.9303017 48.0351431,51.9143017 48.0431431,51.8943017 C47.8351431,52.4143017 47.9671431,52.0763017 48.0671431,51.8323017" id="Fill-39" fill="#C5CFD6"></path>
            <path d="M48.0223751,51.95275 C48.0143751,51.97075 48.0063751,51.99075 47.9983751,52.00875 C47.9403751,52.12075 48.0223751,51.95275 48.0223751,51.95275" id="Fill-41" fill="#C5CFD6"></path>
            <polygon id="Fill-43" fill="#C5CFD6" points="48 52.001 48 52.001 48 51.999"></polygon>
            <path d="M47.999,52.002 C47.999,52 47.999,52 48.001,51.998 C47.999,52 47.999,52 47.999,52.002" id="Fill-45" fill="#C5CFD6"></path>
            <path d="M47.9895117,52.0163509 C47.9775117,52.0403509 48.0455117,51.9243509 47.9895117,52.0163509" id="Fill-47" fill="#C5CFD6"></path>
            <path d="M47.998,52.002 L48.002,51.998 C48,52 48,52.002 47.998,52.002" id="Fill-49" fill="#C5CFD6"></path>
            <rect id="Photo-Background" fill="#DDE3E9" x="0" y="0" width="95" height="63" rx="4"></rect>
            <g id="icons8-night_landscape" transform="translate(8.000000, 18.000000)">
                <polygon id="Mountains" fill="#AFB9C5" points="28 0 0 45 56 45"></polygon>
                <polygon id="Mountains" fill="#C5CFD6" points="55.5 12 31 45 80 45"></polygon>
            </g>
            <circle id="Sun" fill="#FFFFFF" cx="74" cy="21" r="9"></circle>
        </g>
        <g id="Profile" opacity="0.5" transform="translate(306.000000, 1.000000)">
            <path d="M72.0319505,4.91297787 C81.0436267,5.1050034 91.2682616,10.0925651 89.8430235,20.6586077 C88.7992394,28.3989991 82.0976076,34.6825013 74.3359695,35.2242545 C65.9940394,35.8063609 57.1742489,29.4041183 56.0410108,20.9104672 C54.7659441,11.3569651 63.2195759,4.72234383 72.0319505,4.91297787 M67.6125537,0.611884255 C63.9593092,1.15734809 60.468287,3.07574809 57.2511886,4.79423745 C56.0233981,5.4505566 49.7977727,9.45155234 54.6806616,10.4455396 C42.9158425,29.4194247 70.6034679,47.0431013 86.1703124,34.7117226 C93.1606997,29.1740587 96.8408267,18.6752715 92.3222425,10.4571353 C87.6488521,1.95745447 76.5658298,-0.732758298 67.6125537,0.611884255" id="face" fill="#89C5CC"></path>
            <path d="M65.4593086,16.7619272 C65.4593086,20.3055868 70.9595689,20.3055868 70.9595689,16.7619272 C70.9595689,13.2182677 65.4593086,13.2182677 65.4593086,16.7619272" id="Fill-231" fill="#89C5CC"></path>
            <path d="M75.6574781,17.3294694 C75.6574781,21.1713715 81.620767,21.1713715 81.620767,17.3294694 C81.620767,13.4875672 75.6574781,13.4875672 75.6574781,17.3294694" id="Fill-233" fill="#89C5CC"></path>
            <path d="M68.7752698,24.9274187 C67.9725016,27.8421251 77.1232254,29.3370485 77.4277397,25.9636145 C77.5728127,24.351806 69.3333143,22.8939889 68.7752698,24.9274187" id="Fill-235" fill="#89C5CC"></path>
            <path d="M95.5994095,23.1259966 C106.128559,21.8625243 116.984933,22.446486 127.565067,22.7493668 C130.212997,22.8258987 132.860463,22.9001115 135.508857,22.9441753 C137.19226,22.9724689 140.828356,23.7804604 142.297625,22.9924136 C148.314679,19.7655498 136.51139,18.2052264 134.840038,18.0568009 C124.315987,17.1908306 108.074762,16.88192 97.5196571,17.290554 C94.3980381,17.4116136 93.7231937,23.350954 95.5994095,23.1259966" id="Fill-237" fill="#89C5CC"></path>
            <path d="M142.979978,75.468817 C143.070359,64.4366255 143.465718,53.3297574 144.313909,42.3304979 C144.65921,37.8471191 145.073572,33.3697702 145.41702,28.8863915 C145.578778,26.7745745 146.329172,23.8167319 145.08794,21.9637319 C143.808702,20.0546085 141.002721,19.6575702 139.311902,21.3496213 C137.287832,23.9697957 137.876004,28.367366 137.624328,31.5367149 C137.237312,36.4101745 136.769648,41.2799234 136.537439,46.1635872 C136.088315,55.6164383 135.983102,65.2334851 136.742766,74.6728851 C137.101509,79.1270426 137.879248,83.4731277 138.913763,87.8173574 C139.385134,89.7946638 143.132467,98.6032553 142.344994,99.8180255 C141.123693,101.701638 132.098575,100.98966 130.141248,101.042072 C125.117458,101.177047 120.091813,101.264711 115.067096,101.360723 C110.764963,101.442821 106.462829,101.501728 102.160232,101.539762 C100.451801,101.555068 90.413953,101.250796 92.6405689,103.78377 C67.7413117,105.518957 42.3660483,102.62234 17.618353,101.628817 C16.3683149,101.57826 14.3229244,101.22343 12.4351213,101.121387 C12.2089371,100.209498 12.0230768,99.3945489 11.9771911,98.8282128 C11.6518197,94.8508723 11.5670006,90.8600809 11.2142832,86.8836681 C10.5691022,79.6084979 9.31813714,72.4066128 8.57376889,65.143966 C7.8312546,57.8887404 7.90587683,50.6117149 7.47343873,43.3388638 C7.39928,42.0925532 7.22408,31.8845872 4.64799111,29.4044894 C5.8692927,29.8673915 7.83867048,29.9276894 8.97283556,29.8363149 C18.1532229,29.0955787 27.2664038,27.5004681 36.3679975,26.1312426 C38.9718959,25.7397702 44.8809562,26.0171404 47.0408292,24.715634 C48.9100927,23.5885277 49.649826,19.6380894 46.3979657,19.9576681 C37.3223276,20.9298553 28.2958197,22.4386936 19.2915594,23.9243404 C16.8832546,24.3213787 14.4809752,24.7462468 12.0791594,25.1803915 C10.4750133,25.4702851 6.24101333,25.4480213 4.99700063,26.4151064 C3.48601651,27.5890596 3.32564825,28.3877745 3.83780698,28.9188596 C3.12588317,28.7231234 2.27259429,29.0306426 1.24781333,30.0561702 C-0.689583492,32.5780128 1.13194032,38.7886936 1.36275937,41.7456085 C1.64039111,45.2925149 1.77665778,48.8454511 1.93841651,52.3988511 C2.25034667,59.2751277 2.97014984,66.0563191 4.0765054,72.8495702 C5.31634667,80.4600894 6.37079111,88.1016851 7.61387683,95.7098851 C7.93739429,97.6909021 8.35917206,99.6227532 8.89774984,101.536515 C5.54901968,103.249438 7.8256927,105.973047 10.4815022,106.456357 C10.5005054,106.459604 10.5204356,106.462387 10.5394387,106.465634 C11.3672356,108.484685 12.5250387,110.355311 13.4293117,107.649791 C13.4983721,107.44246 13.5308165,107.186889 13.5391594,106.899779 C20.3983784,107.67623 27.9380038,107.193847 34.6910832,107.469826 C49.3188927,108.067702 64.0370832,108.964749 78.6797244,108.510196 C84.4766197,108.33023 90.2911276,107.815379 96.0393562,107.041711 C99.4070895,106.588549 102.787801,106.048187 106.101769,105.296783 C106.339077,105.243443 106.700137,105.186855 107.116817,105.118209 C107.18495,105.116353 107.25401,105.114498 107.318436,105.11357 C112.392747,105.037038 117.462886,104.901136 122.533026,104.690094 C126.78881,104.513374 131.063597,104.422464 135.30594,104.021251 C137.940893,103.771711 143.50975,103.818094 145.127337,101.168234 C146.598461,98.7586383 144.139172,92.5521319 143.789699,89.8456851 C143.175572,85.0802979 142.940582,80.270383 142.979978,75.468817" id="Hola-:)" fill="#C1DEE2"></path>
            <path d="M91.5556267,43.6137757 C87.5009981,43.9611843 83.7518108,45.8652055 79.6596394,45.8888609 C76.2251632,45.9083417 72.8435251,44.8818864 69.3900457,45.0335587 C65.3391251,45.2102779 63.1101917,47.8299885 59.5616965,48.7066268 C56.7367124,49.4042268 54.9569029,47.2413885 52.4721219,46.2849715 C49.3347441,45.0766949 47.0172838,45.700546 44.3281029,47.5275715 C42.3522362,48.8703587 37.7441981,51.883397 37.779887,54.5991204 C37.8855632,62.8246779 47.4826298,51.4617757 49.4172457,51.3240183 C51.9877727,51.1412694 54.8595695,54.0712821 57.5946362,54.2382609 C61.2108013,54.4595077 63.5291886,52.1282991 66.8589156,51.2790268 C70.2261854,50.420014 73.8659886,51.4724438 77.2416013,51.79898 C81.0932203,52.1714353 84.4637346,51.3128864 88.1897473,50.3935757 C91.800814,49.5025587 94.8779378,49.5498694 98.546941,50.2980268 C101.023379,50.8031374 107.192458,53.73918 108.275639,49.9640694 C109.750935,44.82298 94.3903441,43.3725843 91.5556267,43.6137757" id="Fill-241" fill="#89C5CC"></path>
            <path d="M92.7899524,59.3024472 C84.4818571,60.1085834 76.1232413,60.8159238 67.7771397,61.0422728 C64.1623651,61.1406047 50.265946,59.5914132 51.4983714,64.1847196 C52.5546698,68.1230983 71.465146,65.6434643 75.3167651,65.3433664 C79.5688413,65.0131196 83.8144286,64.5511451 88.0456476,64.0158855 C89.5450444,63.8261791 93.1663079,64.0223791 94.2244603,62.7649366 C95.233019,61.5650089 94.7356921,59.1076387 92.7899524,59.3024472" id="Fill-243" fill="#89C5CC"></path>
            <path d="M35.4753581,80.2209851 C35.2862533,80.3007638 35.2862533,80.3007638 35.4753581,80.2209851 M37.2278216,80.1973298 C39.2991676,80.1319298 38.8551422,79.0396106 40.9213898,79.6087298 C41.8743295,79.8712574 41.9721263,79.4816404 42.7109327,80.3926021 C44.152393,82.169534 42.7948248,86.039266 41.3737581,87.4711085 C36.1126597,92.7731468 29.7989708,80.4329553 37.2278216,80.1973298 M37.2278216,74.9954787 C22.8248057,75.4792532 28.8511295,97.7282404 41.3867359,93.1864191 C46.5639422,91.3106915 49.81812,82.8606404 46.7729771,78.1119511 C45.2916565,75.8020787 43.4029263,75.3911255 40.9213898,75.2311043 C40.3452692,75.1939979 39.6203676,76.0312106 39.2606978,75.9931766 C38.4060184,75.9027298 38.485739,74.9481681 37.2278216,74.9954787" id="have-a-nice-day-:)" fill="#89C5CC"></path>
            <path d="M71.6707511,80.9833357 C71.4139765,80.9040209 76.2185352,82.3010762 75.6929352,81.7542209 C76.814586,82.9207528 75.3063829,85.6796123 74.0373416,86.1610677 C70.9643892,87.3280634 69.2397352,82.5492251 71.6707511,80.9833357 M73.8028146,74.9503017 C69.2930368,75.5894591 65.8126749,77.467506 65.1962305,82.4824336 C64.6275257,87.1114549 67.7551702,91.7989187 72.6885797,91.8893655 C83.4415956,92.0860294 83.7692844,73.55974 73.8028146,74.9503017" id="espero" fill="#89C5CC"></path>
            <path d="M122.89251,81.1857974 C123.522396,89.4057889 114.998777,81.882006 122.89251,81.1857974 M119.234631,72.3915847 C118.489336,73.6661889 119.124783,75.0182528 120.249679,75.7589889 C110.195609,77.8837932 112.472745,93.013457 122.703869,90.7782613 C127.906568,89.6414145 128.863215,84.1705421 128.087793,79.6533038 C127.718853,77.5053081 122.365983,67.0380613 119.234631,72.3915847" id="hola" fill="#89C5CC"></path>
        </g>
        <g id="humaaan-11" transform="translate(58.000000, -28.000000)">
            <g id="Head/Front/Afro" transform="translate(128.159246, 70.924000) rotate(-15.000000) translate(-128.159246, -70.924000) translate(57.306980, 16.688000)">
                <path d="M63.6166283,81.0401369 C75.5358167,81.0401369 79.8706741,66.7704318 86.6423214,58.939605 C91.4872962,53.336809 99.7561705,55.0074674 102.203764,47.1636748 C108.358456,27.4397538 91.8854683,13.5576421 70.3954494,13.5576421 C48.9054305,13.5576421 34.415553,25.732668 31.2868664,44.0349882 C28.1581797,62.3373084 42.1266094,81.0401369 63.6166283,81.0401369 Z" id="Hair-Back" fill="#191847"></path>
                <g id="Head" stroke-width="1" transform="translate(56.316359, 32.329762)" fill="#915B3C">
                    <path d="M8.61668863,35.9695996 C3.8111203,30.3288374 0.558611141,23.4160055 1.10210733,15.6699789 C2.66807119,-6.64848056 33.7361385,-1.73870383 39.7795208,9.52573796 C45.8229031,20.7901798 45.1047922,49.3633705 37.294259,51.3766405 C34.1794292,52.1795298 27.5439155,50.2127726 20.7905107,46.1421897 L25.0294931,76.1313749 L0,76.1313749 L8.61668863,35.9695996 Z"></path>
                </g>
                <path d="M75.4845388,53.9420696 C74.5751387,53.4609429 73.5331258,53.1876728 72.4256211,53.1876728 C68.8795578,53.1876728 66.0049055,55.9891943 66.0049055,59.4450461 C66.0049055,60.8555509 66.4837828,62.1570534 67.2917344,63.2035614 C65.7704058,65.7111624 64.7320919,68.3458274 64.3917487,71.0543222 C59.1186564,71.0543222 39.8736306,51.1018818 59.0453983,32.3297619 C78.2171659,13.5576421 105.922744,40.3558441 97.5974613,41.918693 C92.8108504,42.817251 83.1707612,47.3869922 75.4845414,53.9420676 Z" id="Hair" fill="#191847"></path>
            </g>
            <g id="Bottom/Standing/Baggy-Pants" transform="translate(0.000000, 210.685999)">
                <polygon id="Leg" fill="#784931" points="139.748003 0 190.935026 129.55569 225.266375 239.084106 238.82308 239.084106 186.337993 5.30873359e-13"></polygon>
                <path d="M129.440679,0 C128.89561,45.5267591 120.946508,106.821151 119.676509,109.659057 C118.829844,111.550995 89.6015778,135.610279 31.9917121,181.836909 L41.328982,191.828889 C109.303286,152.195353 144.863197,129.735517 148.008713,124.44938 C152.726988,116.520175 168.088064,43.5545895 180.420929,0 L129.440679,0 Z" id="Leg" fill="#915B3C"></path>
                <g id="Accessories/Shoe/Flat-Pointy" transform="translate(53.709121, 197.107258) rotate(50.000000) translate(-53.709121, -197.107258) translate(21.900806, 176.249347)" fill="#191847">
                    <path d="M0,41.7158218 L1.04289555,19.8150154 L22.943702,19.8150154 C33.3284421,27.1152842 46.8860842,33.0250256 63.6166283,37.5442397 L63.6166283,41.7158218 L23.9865976,41.7158218 L10.4289555,39.6300307 L10.4289555,41.7158218 L0,41.7158218 Z" id="Shoe"></path>
                </g>
                <g id="Accessories/Shoe/Flat-Pointy" transform="translate(216.922274, 207.536214)" fill="#191847">
                    <path d="M0,41.7158218 L1.04289555,19.8150154 L22.943702,19.8150154 C33.3284421,27.1152842 46.8860842,33.0250256 63.6166283,37.5442397 L63.6166283,41.7158218 L23.9865976,41.7158218 L10.4289555,39.6300307 L10.4289555,41.7158218 L0,41.7158218 Z" id="Shoe"></path>
                </g>
                <polygon id="Pant" fill="#2F3676" points="174.163556 227.802687 238.619157 220.807401 190.849885 2.84217094e-14 133.119435 2.84217094e-14"></polygon>
                <path d="M45.3241967,165.716602 L87.6032259,215.760447 C132.134816,167.123971 158.09685,135.388661 165.489326,120.554518 C172.881803,105.720376 179.527263,65.5355363 185.425707,0 L120.431644,0 C117.209615,57.6553062 115.037743,87.824451 113.916028,90.5074345 C112.794313,93.1904181 89.9303694,118.260141 45.3241967,165.716602 Z" id="Pant" fill="#8991DC"></path>
            </g>
            <g id="Body/Trench-Coat" transform="translate(155.249818, 199.734499) rotate(-10.000000) translate(-155.249818, -199.734499) translate(21.880847, 102.214000)">
                <path d="M206.173124,94.1153146 L237.654616,120.804733 C246.485384,123.862803 253.793796,127.410328 259.579851,131.447309 C260.915433,132.846883 262.455388,135.5998 256.571267,134.73118 C250.687146,133.862559 244.458869,133.213532 243.501485,135.174285 C242.5441,137.135038 245.955361,139.798484 244.114915,142.405686 C242.88795,144.14382 238.009153,139.229219 229.478524,127.661882 L197.569051,111.736722 L206.173124,94.1153146 Z M56.7072446,73.4638943 L74.7971874,78.0625522 C50.5815452,118.773292 37.6318712,140.288454 35.9481654,142.60804 C32.1598272,147.827109 34.9113156,157.9002 35.846123,163.177813 C28.1748426,164.545256 31.7616574,153.29197 22.045982,155.171625 C13.1779641,156.887287 5.46312053,162.07869 -2.3052584,154.124844 C-3.26033494,153.146965 -3.84342212,150.216288 -0.344007547,148.912227 C8.37431034,145.663337 21.331407,139.403357 23.5143959,136.82375 C26.4912913,133.305996 37.5555742,112.186044 56.7072446,73.4638943 Z" id="Skin" fill="#915B3C" transform="translate(128.887550, 118.378653) rotate(-4.000000) translate(-128.887550, -118.378653) "></path>
                <path d="M212.041997,91.4388947 C216.322135,91.1316164 220.977876,91.840669 225.96947,93.5225255 C228.425683,94.3501164 229.745942,97.0121652 228.918351,99.468378 C228.437693,100.894926 227.338238,101.938296 226.019703,102.400243 C226.974814,103.097038 227.938387,103.789986 228.910523,104.479018 L220.518159,121.611657 C185.202658,104.00331 152.009465,90.7275746 136.884063,61.6576093 C131.807586,51.9009775 133.525829,18.7598762 133.041282,6.70328273 L144.195079,2.12901314 C159.743039,34.2677247 180.784924,65.1009176 212.041997,91.4388947 Z" id="Back-Arm" fill="#69A1AC"></path>
                <path d="M93.8605991,118.795966 C126.647489,122.397786 152.454369,122.397786 171.281237,118.795966 C173.613759,118.349724 173.511327,108.294692 172.429622,105.548568 C155.584668,62.7842666 144.503922,31.478793 144.503922,1.7756729 C141.413084,3.39017178 136.003828,3.63212462 128.276152,2.50153141 C107.508141,33.1115518 97.9618253,68.2330479 93.8605991,118.795966 Z" id="Shirt" fill="#191847"></path>
                <path d="M87.7686047,123.851994 C86.6551335,122.804333 86.0746685,121.23383 86.3599826,119.615734 L86.9032734,116.534579 C87.2714462,114.446567 88.9672349,112.926105 90.9694489,112.688237 C91.3194625,111.123614 91.6212422,109.569477 91.8704803,108.02672 C93.9758723,94.9945677 90.3786992,82.2161192 90.5476353,69.6676184 C73.7777663,83.9755631 58.7338752,108.681389 45.4159618,143.785095 L25.7190162,137.989136 C26.4705662,135.197044 27.2490397,132.439245 28.0544368,129.715738 C25.7810093,128.424203 23.124502,122.504744 25.0363804,121.514185 C27.0109281,120.491156 29.1027284,119.771114 31.3056195,119.347312 C49.3658661,64.9506232 78.8998655,25.168186 119.907618,-4.03233003e-13 L125.540937,-3.96127575e-13 L131.768209,-1.0658141e-14 C128.276152,46.1801869 176.509698,147.001238 159.761787,233.106043 C128.805794,240.019061 84.6121081,218.510359 41.593608,235.694393 C43.1943273,201.019067 75.2586187,160.283448 87.7686085,123.851985 Z" id="Coat-Front" fill="#89C5CC"></path>
                <polygon id="Shade-Lapel" fill-opacity="0.1" fill="#000000" points="124.214865 1.04289555 118.834405 17.5888976 129.669457 29.9926784 119.877301 39.740063 143.567348 80.302957 114.597103 39.8211017 124.214865 29.9926784 114.597103 19.0312358"></polygon>
                <path d="M136.619317,95.9463902 C134.315415,95.9463902 132.447734,94.0787093 132.447734,91.774808 C132.447734,89.4709068 134.315415,87.6032259 136.619317,87.6032259 C138.923218,87.6032259 140.790899,89.4709068 140.790899,91.774808 C140.790899,94.0787093 138.923218,95.9463902 136.619317,95.9463902 Z M141.833794,119.932988 C139.529893,119.932988 137.662212,118.065307 137.662212,115.761406 C137.662212,113.457504 139.529893,111.589823 141.833794,111.589823 C144.137695,111.589823 146.005376,113.457504 146.005376,115.761406 C146.005376,118.065307 144.137695,119.932988 141.833794,119.932988 Z M142.87669,143.919585 C140.572789,143.919585 138.705108,142.051904 138.705108,139.748003 C138.705108,137.444102 140.572789,135.576421 142.87669,135.576421 C145.180591,135.576421 147.048272,137.444102 147.048272,139.748003 C147.048272,142.051904 145.180591,143.919585 142.87669,143.919585 Z" id="Buttons" fill="#C1DEE2"></path>
            </g>
        </g>
        <path d="M70.4885259,75.7429931 C84.4186267,78.9621233 84.9841795,63.6986997 84.9772691,43.4312695 C84.9703586,23.1638392 87.7544338,-0.083888016 73.824333,-3.30301828 C59.8942321,-6.52214854 45.2464242,12.9493831 45.2533346,33.2168133 C45.2602451,53.4842436 56.558425,72.5238628 70.4885259,75.7429931 Z" id="Weird-Shape" fill-opacity="0.6" fill="#2B44FF" transform="translate(65.226629, 36.259535) rotate(49.000000) translate(-65.226629, -36.259535) "></path>
        <g id="Plant" transform="translate(58.000000, 56.000000)" fill="#417505">
            <path d="M9.93785602,35.7363701 C28.6043474,67.0518486 50.3448762,97.3738414 63.400835,131.612719 C62.8747124,127.576998 62.316848,123.545457 61.6924335,119.519653 C58.3796628,98.1788894 54.2624276,76.9938487 49.9359142,55.8347788 C47.7325965,45.061608 45.4023236,34.3274793 43.0122847,23.5942683 C41.7268475,17.8294571 40.457171,12.0611334 39.145247,6.30181171 C38.8274703,4.90590411 38.5544351,2.4694293 38.1565942,0 C50.8449133,41.636678 63.0807311,83.3047517 72.0307975,125.94239 C73.204927,131.538126 74.2047864,137.123918 75.0238081,142.699993 C75.3039851,141.427955 75.5795646,140.155702 75.8811982,138.88715 C79.5025613,123.679846 84.9347228,108.59358 91.4026624,94.3744557 C94.494721,87.5745292 98.0463864,80.9235176 102.228151,74.7261293 C104.835821,70.8630236 110.985519,66.2708832 113.364361,62.3144999 C100.354578,86.1759773 95.6569872,116.031633 88.1451337,141.973334 C86.3116359,148.30385 84.4667482,154.62409 82.659084,160.955464 C93.9872772,138.237255 111.563216,119.571486 136,111.482566 C106.420215,131.026943 88.6779699,165.254031 76.7221336,200.259757 C76.682738,200.674905 76.6358989,201.090058 76.5954089,201.505863 C80.1135643,194.828835 84.5452103,188.789483 90.5514934,184.559607 C103.406592,175.504479 117.667098,178.142392 130.137007,185.909854 C120.350227,179.688703 102.662664,185.353659 94.4280037,191.676694 C88.5328799,196.203004 83.4948291,202.275393 79.119821,208.199601 C78.071517,209.619676 76.6413193,211.276578 75.1303997,213.044484 C73.0120284,226.795282 69.5599117,240.451838 64.6724606,254 C65.4790179,250.11126 64.8958605,243.891877 65.11953,240.993318 C65.1438759,240.679499 65.1636243,240.365464 65.1877517,240.052521 C64.4448288,243.018848 63.7270637,245.951459 63.0359813,248.836783 C64.4097546,243.330925 65.1563919,237.583268 65.7392402,231.776207 C65.8893549,229.280566 66.0357479,226.784927 66.1904602,224.289502 C66.141426,219.553405 65.9463583,214.798592 65.6164284,210.036217 C64.4465561,205.407706 63.1367171,201.041891 62.0564998,197.41118 C58.158506,184.310429 52.4441742,171.759576 45.4108456,160.050843 C38.9937018,149.366014 31.3123836,139.687606 22.4447835,130.934599 C17.6643455,126.217405 12.6613846,121.724669 7.7288832,117.169517 C5.94526254,115.52278 2.75721952,111.473853 0,109.363232 C20.0804874,120.433766 40.7488532,132.410494 55.3976085,150.247606 C53.6802099,143.652644 51.8148695,137.151008 49.841671,130.779652 C39.8311473,98.4544622 27.1913357,64.9525261 9.93785602,35.7363701 Z" id="Fill-19"></path>
        </g>
        <path d="M529.824257,-12.4057424 C535.403251,-24.2868077 570.874168,-22.1122939 581.788297,-6.68881706 C592.702425,8.73465984 580.229136,43 569.048106,43 C557.867077,43 557.867077,19.8652373 553.256799,13.0710133 C548.64652,6.27678933 524.245263,-0.524676999 529.824257,-12.4057424 Z" id="Weird-Shape" fill-opacity="0.7" fill="#91FFBD"></path>
    </g>
</svg>