<?xml version="1.0" encoding="UTF-8"?>
<svg width="337px" height="445px" viewBox="0 0 337 445" version="1.1" xmlns="http://www.w3.org/2000/svg" xmlns:xlink="http://www.w3.org/1999/xlink">
    <!-- Generator: Sketch 52.5 (67469) - http://www.bohemiancoding.com/sketch -->
    <title>humaaans/standing-24</title>
    <desc>Created with Sketch.</desc>
    <g id="humaaans/standing-24" stroke="none" stroke-width="1" fill="none" fill-rule="evenodd">
        <g id="humaaan-11" transform="translate(5.000000, -25.000000)">
            <g id="Head/Front/Afro" transform="translate(128.159246, 70.924000) rotate(-15.000000) translate(-128.159246, -70.924000) translate(57.306980, 16.688000)">
                <path d="M63.6166283,81.0401369 C75.5358167,81.0401369 79.8706741,66.7704318 86.6423214,58.939605 C91.4872962,53.336809 99.7561705,55.0074674 102.203764,47.1636748 C108.358456,27.4397538 91.8854683,13.5576421 70.3954494,13.5576421 C48.9054305,13.5576421 34.415553,25.732668 31.2868664,44.0349882 C28.1581797,62.3373084 42.1266094,81.0401369 63.6166283,81.0401369 Z" id="Hair-Back" fill="#191847"></path>
                <g id="Head" stroke-width="1" transform="translate(56.316359, 32.329762)" fill="#915B3C">
                    <path d="M8.61668863,35.9695996 C3.8111203,30.3288374 0.558611141,23.4160055 1.10210733,15.6699789 C2.66807119,-6.64848056 33.7361385,-1.73870383 39.7795208,9.52573796 C45.8229031,20.7901798 45.1047922,49.3633705 37.294259,51.3766405 C34.1794292,52.1795298 27.5439155,50.2127726 20.7905107,46.1421897 L25.0294931,76.1313749 L0,76.1313749 L8.61668863,35.9695996 Z"></path>
                </g>
                <path d="M75.4845388,53.9420696 C74.5751387,53.4609429 73.5331258,53.1876728 72.4256211,53.1876728 C68.8795578,53.1876728 66.0049055,55.9891943 66.0049055,59.4450461 C66.0049055,60.8555509 66.4837828,62.1570534 67.2917344,63.2035614 C65.7704058,65.7111624 64.7320919,68.3458274 64.3917487,71.0543222 C59.1186564,71.0543222 39.8736306,51.1018818 59.0453983,32.3297619 C78.2171659,13.5576421 105.922744,40.3558441 97.5974613,41.918693 C92.8108504,42.817251 83.1707612,47.3869922 75.4845414,53.9420676 Z" id="Hair" fill="#191847"></path>
            </g>
            <g id="Bottom/Standing/Jogging" transform="translate(0.000000, 210.685999)">
                <polygon id="Leg" fill="#784931" points="135.576421 0 213.070248 129.55569 271.168323 239.084106 283.682133 239.084106 186.337993 5.30873359e-13"></polygon>
                <g id="Accessories/Shoe/Flat-Pointy" transform="translate(260.723886, 207.536214)" fill="#191847">
                    <path d="M0,41.7158218 L1.04289555,19.8150154 L22.943702,19.8150154 C33.3284421,27.1152842 46.8860842,33.0250256 63.6166283,37.5442397 L63.6166283,41.7158218 L23.9865976,41.7158218 L10.4289555,39.6300307 L10.4289555,41.7158218 L0,41.7158218 Z" id="Shoe"></path>
                </g>
                <path d="M255.032865,221.545314 L279.165526,214.245045 C268.59235,182.636952 255.63342,147.853404 240.288738,109.894402 C224.944056,71.9353994 208.464438,35.3039322 190.849885,2.84217094e-14 L122.69048,2.84217094e-14 C142.274076,44.6578531 163.035313,85.2352452 184.974193,121.732176 C206.913072,158.229107 230.265963,191.500153 255.032865,221.545314 Z" id="Pant" fill="#2F3676"></path>
                <path d="M130.483574,2.84217094e-14 C123.169612,45.5267591 109.062982,103.692464 107.731697,105.487475 C106.844173,106.684149 74.8930942,117.390616 11.8784597,137.606876 L14.5815936,148.641752 C89.7263975,137.799641 129.321301,129.387885 133.366303,123.406484 C139.433807,114.434384 169.729671,43.5545895 181.463825,2.84217094e-14 L130.483574,2.84217094e-14 Z" id="Leg" fill="#915B3C"></path>
                <path d="M34.0291683,128.068071 L38.7904444,145.840535 C94.9943795,150.76997 129.431772,147.208144 142.102622,135.155056 C154.773471,123.101968 169.2145,78.0502828 185.425707,-1.13686838e-13 L120.431644,-1.13686838e-13 C110.160605,63.9126794 104.418425,97.2105109 103.205106,99.8934944 C101.991786,102.576478 78.9331404,111.968003 34.0291683,128.068071 Z" id="Pant" fill="#8991DC"></path>
                <g id="Accessories/Shoe/Flat-Pointy" transform="translate(25.550941, 160.605914) rotate(80.000000) translate(-25.550941, -160.605914) translate(-6.257373, 139.748003)" fill="#191847">
                    <path d="M0,41.7158218 L1.04289555,19.8150154 L22.943702,19.8150154 C33.3284421,27.1152842 46.8860842,33.0250256 63.6166283,37.5442397 L63.6166283,41.7158218 L23.9865976,41.7158218 L10.4289555,39.6300307 L10.4289555,41.7158218 L0,41.7158218 Z" id="Shoe"></path>
                </g>
            </g>
            <g id="Body/Trench-Coat" transform="translate(155.249818, 199.734499) rotate(-10.000000) translate(-155.249818, -199.734499) translate(21.880847, 102.214000)">
                <path d="M206.173124,94.1153146 L237.654616,120.804733 C246.485384,123.862803 253.793796,127.410328 259.579851,131.447309 C260.915433,132.846883 262.455388,135.5998 256.571267,134.73118 C250.687146,133.862559 244.458869,133.213532 243.501485,135.174285 C242.5441,137.135038 245.955361,139.798484 244.114915,142.405686 C242.88795,144.14382 238.009153,139.229219 229.478524,127.661882 L197.569051,111.736722 L206.173124,94.1153146 Z M56.7072446,73.4638943 L74.7971874,78.0625522 C50.5815452,118.773292 37.6318712,140.288454 35.9481654,142.60804 C32.1598272,147.827109 34.9113156,157.9002 35.846123,163.177813 C28.1748426,164.545256 31.7616574,153.29197 22.045982,155.171625 C13.1779641,156.887287 5.46312053,162.07869 -2.3052584,154.124844 C-3.26033494,153.146965 -3.84342212,150.216288 -0.344007547,148.912227 C8.37431034,145.663337 21.331407,139.403357 23.5143959,136.82375 C26.4912913,133.305996 37.5555742,112.186044 56.7072446,73.4638943 Z" id="Skin" fill="#915B3C" transform="translate(128.887550, 118.378653) rotate(-4.000000) translate(-128.887550, -118.378653) "></path>
                <path d="M212.041997,91.4388947 C216.322135,91.1316164 220.977876,91.840669 225.96947,93.5225255 C228.425683,94.3501164 229.745942,97.0121652 228.918351,99.468378 C228.437693,100.894926 227.338238,101.938296 226.019703,102.400243 C226.974814,103.097038 227.938387,103.789986 228.910523,104.479018 L220.518159,121.611657 C185.202658,104.00331 152.009465,90.7275746 136.884063,61.6576093 C131.807586,51.9009775 133.525829,18.7598762 133.041282,6.70328273 L144.195079,2.12901314 C159.743039,34.2677247 180.784924,65.1009176 212.041997,91.4388947 Z" id="Back-Arm" fill="#69A1AC"></path>
                <path d="M93.8605991,118.795966 C126.647489,122.397786 152.454369,122.397786 171.281237,118.795966 C173.613759,118.349724 173.511327,108.294692 172.429622,105.548568 C155.584668,62.7842666 144.503922,31.478793 144.503922,1.7756729 C141.413084,3.39017178 136.003828,3.63212462 128.276152,2.50153141 C107.508141,33.1115518 97.9618253,68.2330479 93.8605991,118.795966 Z" id="Shirt" fill="#191847"></path>
                <path d="M87.7686047,123.851994 C86.6551335,122.804333 86.0746685,121.23383 86.3599826,119.615734 L86.9032734,116.534579 C87.2714462,114.446567 88.9672349,112.926105 90.9694489,112.688237 C91.3194625,111.123614 91.6212422,109.569477 91.8704803,108.02672 C93.9758723,94.9945677 90.3786992,82.2161192 90.5476353,69.6676184 C73.7777663,83.9755631 58.7338752,108.681389 45.4159618,143.785095 L25.7190162,137.989136 C26.4705662,135.197044 27.2490397,132.439245 28.0544368,129.715738 C25.7810093,128.424203 23.124502,122.504744 25.0363804,121.514185 C27.0109281,120.491156 29.1027284,119.771114 31.3056195,119.347312 C49.3658661,64.9506232 78.8998655,25.168186 119.907618,-4.03233003e-13 L125.540937,-3.96127575e-13 L131.768209,-1.0658141e-14 C128.276152,46.1801869 176.509698,147.001238 159.761787,233.106043 C128.805794,240.019061 84.6121081,218.510359 41.593608,235.694393 C43.1943273,201.019067 75.2586187,160.283448 87.7686085,123.851985 Z" id="Coat-Front" fill="#89C5CC"></path>
                <polygon id="Shade-Lapel" fill-opacity="0.1" fill="#000000" points="124.214865 1.04289555 118.834405 17.5888976 129.669457 29.9926784 119.877301 39.740063 143.567348 80.302957 114.597103 39.8211017 124.214865 29.9926784 114.597103 19.0312358"></polygon>
                <path d="M136.619317,95.9463902 C134.315415,95.9463902 132.447734,94.0787093 132.447734,91.774808 C132.447734,89.4709068 134.315415,87.6032259 136.619317,87.6032259 C138.923218,87.6032259 140.790899,89.4709068 140.790899,91.774808 C140.790899,94.0787093 138.923218,95.9463902 136.619317,95.9463902 Z M141.833794,119.932988 C139.529893,119.932988 137.662212,118.065307 137.662212,115.761406 C137.662212,113.457504 139.529893,111.589823 141.833794,111.589823 C144.137695,111.589823 146.005376,113.457504 146.005376,115.761406 C146.005376,118.065307 144.137695,119.932988 141.833794,119.932988 Z M142.87669,143.919585 C140.572789,143.919585 138.705108,142.051904 138.705108,139.748003 C138.705108,137.444102 140.572789,135.576421 142.87669,135.576421 C145.180591,135.576421 147.048272,137.444102 147.048272,139.748003 C147.048272,142.051904 145.180591,143.919585 142.87669,143.919585 Z" id="Buttons" fill="#C1DEE2"></path>
            </g>
        </g>
    </g>
</svg>